<!-- <svg xmlns="http://www.w3.org/2000/svg" version="1.1" xmlns:xlink="http://www.w3.org/1999/xlink" xmlns:svgjs="http://svgjs.dev/svgjs" viewBox="0 0 700 700" width="700" height="700" opacity="0.99"><defs><filter id="nnnoise-filter" x="-20%" y="-20%" width="140%" height="140%" filterUnits="objectBoundingBox" primitiveUnits="userSpaceOnUse" color-interpolation-filters="linearRGB">
	<feTurbulence type="fractalNoise" baseFrequency="0.05" numOctaves="4" seed="15" stitchTiles="stitch" x="0%" y="0%" width="100%" height="100%" result="turbulence"></feTurbulence>
	<feSpecularLighting surfaceScale="23" specularConstant="0.9" specularExponent="20" lighting-color="#333333" x="0%" y="0%" width="100%" height="100%" in="turbulence" result="specularLighting">
    		<feDistantLight azimuth="3" elevation="122"></feDistantLight>
  	</feSpecularLighting>
  
</filter></defs><rect width="700" height="700" fill="#1c1c1c"></rect><rect width="700" height="700" fill="#333333" filter="url(#nnnoise-filter)"></rect></svg> -->
<!-- <svg xmlns="http://www.w3.org/2000/svg" version="1.1" xmlns:xlink="http://www.w3.org/1999/xlink" xmlns:svgjs="http://svgjs.dev/svgjs" viewBox="0 0 700 700" width="700" height="700" opacity="1"><defs><linearGradient gradientTransform="rotate(0, 0.5, 0.5)" x1="50%" y1="0%" x2="50%" y2="100%" id="ffflux-gradient"><stop stop-color="#332d2f" stop-opacity="1" offset="0%"></stop><stop stop-color="#d63666" stop-opacity="1" offset="100%"></stop></linearGradient><filter id="ffflux-filter" x="-20%" y="-20%" width="140%" height="140%" filterUnits="objectBoundingBox" primitiveUnits="userSpaceOnUse" color-interpolation-filters="sRGB">
  <feTurbulence type="fractalNoise" baseFrequency="0.005 0.003" numOctaves="2" seed="2" stitchTiles="stitch" x="0%" y="0%" width="100%" height="100%" result="turbulence"></feTurbulence>
  <feGaussianBlur stdDeviation="20 0" x="0%" y="0%" width="100%" height="100%" in="turbulence" edgeMode="duplicate" result="blur"></feGaussianBlur>
  <feBlend mode="color-burn" x="0%" y="0%" width="100%" height="100%" in="SourceGraphic" in2="blur" result="blend"></feBlend>
  
</filter></defs><rect width="700" height="700" fill="url(#ffflux-gradient)" filter="url(#ffflux-filter)"></rect></svg> -->
<!-- <svg xmlns="http://www.w3.org/2000/svg" version="1.1" xmlns:xlink="http://www.w3.org/1999/xlink" xmlns:svgjs="http://svgjs.dev/svgjs" viewBox="0 0 1422 800"><defs><linearGradient x1="50%" y1="0%" x2="50%" y2="100%" id="oooscillate-grad"><stop stop-color="#332d2f" stop-opacity="1" offset="0%"></stop><stop stop-color="#d63666" stop-opacity="1" offset="100%"></stop></linearGradient></defs><g stroke-width="2" stroke="url(#oooscillate-grad)" fill="none" stroke-linecap="round"><path d="M 0 572 Q 355.5 -100 711 400 Q 1066.5 900 1422 572" opacity="0.05"></path><path d="M 0 550 Q 355.5 -100 711 400 Q 1066.5 900 1422 550" opacity="0.09"></path><path d="M 0 528 Q 355.5 -100 711 400 Q 1066.5 900 1422 528" opacity="0.13"></path><path d="M 0 506 Q 355.5 -100 711 400 Q 1066.5 900 1422 506" opacity="0.16"></path><path d="M 0 484 Q 355.5 -100 711 400 Q 1066.5 900 1422 484" opacity="0.20"></path><path d="M 0 462 Q 355.5 -100 711 400 Q 1066.5 900 1422 462" opacity="0.24"></path><path d="M 0 440 Q 355.5 -100 711 400 Q 1066.5 900 1422 440" opacity="0.28"></path><path d="M 0 418 Q 355.5 -100 711 400 Q 1066.5 900 1422 418" opacity="0.32"></path><path d="M 0 396 Q 355.5 -100 711 400 Q 1066.5 900 1422 396" opacity="0.35"></path><path d="M 0 374 Q 355.5 -100 711 400 Q 1066.5 900 1422 374" opacity="0.39"></path><path d="M 0 352 Q 355.5 -100 711 400 Q 1066.5 900 1422 352" opacity="0.43"></path><path d="M 0 330 Q 355.5 -100 711 400 Q 1066.5 900 1422 330" opacity="0.47"></path><path d="M 0 308 Q 355.5 -100 711 400 Q 1066.5 900 1422 308" opacity="0.51"></path><path d="M 0 286 Q 355.5 -100 711 400 Q 1066.5 900 1422 286" opacity="0.54"></path><path d="M 0 264 Q 355.5 -100 711 400 Q 1066.5 900 1422 264" opacity="0.58"></path><path d="M 0 242 Q 355.5 -100 711 400 Q 1066.5 900 1422 242" opacity="0.62"></path><path d="M 0 220 Q 355.5 -100 711 400 Q 1066.5 900 1422 220" opacity="0.66"></path><path d="M 0 198 Q 355.5 -100 711 400 Q 1066.5 900 1422 198" opacity="0.70"></path><path d="M 0 176 Q 355.5 -100 711 400 Q 1066.5 900 1422 176" opacity="0.73"></path><path d="M 0 154 Q 355.5 -100 711 400 Q 1066.5 900 1422 154" opacity="0.77"></path><path d="M 0 132 Q 355.5 -100 711 400 Q 1066.5 900 1422 132" opacity="0.81"></path><path d="M 0 110 Q 355.5 -100 711 400 Q 1066.5 900 1422 110" opacity="0.85"></path><path d="M 0 88 Q 355.5 -100 711 400 Q 1066.5 900 1422 88" opacity="0.89"></path><path d="M 0 66 Q 355.5 -100 711 400 Q 1066.5 900 1422 66" opacity="0.92"></path><path d="M 0 44 Q 355.5 -100 711 400 Q 1066.5 900 1422 44" opacity="0.96"></path></g></svg> -->

<svg xmlns="http://www.w3.org/2000/svg" version="1.1" xmlns:xlink="http://www.w3.org/1999/xlink" xmlns:svgjs="http://svgjs.dev/svgjs" viewBox="0 0 700 700" width="700" height="700" opacity="1"><defs><filter id="nnnoise-filter" x="-20%" y="-20%" width="140%" height="140%" filterUnits="objectBoundingBox" primitiveUnits="userSpaceOnUse" color-interpolation-filters="linearRGB">
	<feTurbulence type="fractalNoise" baseFrequency="0.2" numOctaves="4" seed="15" stitchTiles="stitch" x="0%" y="0%" width="100%" height="100%" result="turbulence"></feTurbulence>
	<feSpecularLighting surfaceScale="40" specularConstant="0.8" specularExponent="20" lighting-color="#574148" x="0%" y="0%" width="100%" height="100%" in="turbulence" result="specularLighting">
    		<feDistantLight azimuth="3" elevation="42"></feDistantLight>
  	</feSpecularLighting>
  
</filter></defs><rect width="700" height="700" fill="#332d2f"></rect><rect width="700" height="700" fill="#574148" filter="url(#nnnoise-filter)"></rect></svg>