<?xml version='1.0' encoding='utf-8'?>
<svg xmlns:xlink="http://www.w3.org/1999/xlink" xmlns="http://www.w3.org/2000/svg" version="1.1" id="레이어_1" x="0px" y="0px" viewBox="0 0 1000 1000" style="enable-background:new 0 0 1000 1000;"> <style type="text/css"> .st0{enable-background:new ;} .st1{clip-path:url(#SVGID_00000111170172336282646830000003380676455606291604_);fill:#FEBA56;} .st2{clip-path:url(#SVGID_00000111170172336282646830000003380676455606291604_);fill:#FEBC56;} .st3{clip-path:url(#SVGID_00000111170172336282646830000003380676455606291604_);fill:#FEBD56;} .st4{clip-path:url(#SVGID_00000111170172336282646830000003380676455606291604_);fill:#FEBF56;} .st5{clip-path:url(#SVGID_00000057124655501064869300000014269126534372316349_);fill:#FEBA56;} .st6{clip-path:url(#SVGID_00000057124655501064869300000014269126534372316349_);fill:#FEBC56;} .st7{clip-path:url(#SVGID_00000057124655501064869300000014269126534372316349_);fill:#FEBD56;} .st8{clip-path:url(#SVGID_00000057124655501064869300000014269126534372316349_);fill:#FEBF56;} .st9{fill:#FFD354;} .st10{fill:#FFDC55;} </style> <g> <g class="st0"> <defs> <path id="SVGID_1_" class="st0" d="M744.96,436.75l7.93,55.4c-6.69-46.7-43.34-88.8-106.25-112.95 c-113.4-43.53-269.19-12.33-347.99,69.69c-35.07,36.5-48.97,76.92-43.61,114.38l-7.93-55.4c-5.36-37.46,8.54-77.88,43.61-114.38 c78.8-82.03,234.59-113.23,347.99-69.69C701.63,347.95,738.28,390.04,744.96,436.75z"/> </defs> <clipPath id="SVGID_00000110469755940473342170000008030508003831427514_"> <use xlink:href="#SVGID_1_" style="overflow:visible;"/> </clipPath> <path style="clip-path:url(#SVGID_00000110469755940473342170000008030508003831427514_);fill:#FEBA56;" d="M744.96,436.75 l7.93,55.4c-2.88-20.11-11.31-39.36-25-56.69l-7.93-55.4C733.65,397.39,742.08,416.64,744.96,436.75"/> <path style="clip-path:url(#SVGID_00000110469755940473342170000008030508003831427514_);fill:#FEBC56;" d="M719.96,380.06 l7.93,55.4c-10.38-13.14-23.78-25.18-40.08-35.66l-7.93-55.4C696.18,354.87,709.58,366.91,719.96,380.06"/> <path style="clip-path:url(#SVGID_00000110469755940473342170000008030508003831427514_);fill:#FEBD56;" d="M679.88,344.4 l7.93,55.4c-12.14-7.8-25.88-14.73-41.17-20.6c-6.22-2.39-12.58-4.55-19.03-6.5l-7.93-55.4c6.46,1.94,12.81,4.11,19.03,6.5 C654,329.67,667.74,336.6,679.88,344.4"/> <path style="clip-path:url(#SVGID_00000110469755940473342170000008030508003831427514_);fill:#FEBF56;" d="M619.68,317.3 l7.93,55.4c-64.41-19.37-139.54-16.76-205.85,3.92l-7.93-55.4C480.14,300.54,555.27,297.93,619.68,317.3"/> <path style="clip-path:url(#SVGID_00000110469755940473342170000008030508003831427514_);fill:#FEBD56;" d="M413.83,321.22 l7.93,55.4c-23.85,7.44-46.56,17.22-67.22,29.15l-7.93-55.4C367.27,338.44,389.98,328.66,413.83,321.22"/> <path style="clip-path:url(#SVGID_00000110469755940473342170000008030508003831427514_);fill:#FEBC56;" d="M346.61,350.37 l7.93,55.4c-18.66,10.78-35.65,23.32-50.29,37.49l-7.93-55.4C310.96,373.7,327.95,361.15,346.61,350.37"/> <path style="clip-path:url(#SVGID_00000110469755940473342170000008030508003831427514_);fill:#FEBA56;" d="M296.32,387.86 l7.93,55.4c-1.91,1.85-3.78,3.72-5.61,5.63c-35.07,36.5-48.97,76.92-43.61,114.38l-7.93-55.4c-5.36-37.46,8.54-77.88,43.61-114.38 C292.54,391.59,294.41,389.71,296.32,387.86"/> </g> <g class="st0"> <defs> <path id="SVGID_00000008142776379649199280000013217399509819386509_" class="st0" d="M791.07,430.16l7.93,55.4 c6.36,44.39-10.12,92.29-51.69,135.55c-93.38,97.2-278.05,134.18-412.43,82.6c-74.59-28.63-118.01-78.52-125.94-133.86 l-7.93-55.4c7.92,55.34,51.35,105.23,125.94,133.86c134.38,51.58,319.05,14.6,412.43-82.6 C780.94,522.45,797.42,474.55,791.07,430.16z"/> </defs> <clipPath id="SVGID_00000019636649151728677350000012292246608085381822_"> <use xlink:href="#SVGID_00000008142776379649199280000013217399509819386509_" style="overflow:visible;"/> </clipPath> <path style="clip-path:url(#SVGID_00000019636649151728677350000012292246608085381822_);fill:#FEBA56;" d="M791.07,430.16 l7.93,55.4c6.36,44.39-10.12,92.29-51.69,135.55c-2.17,2.25-4.38,4.48-6.64,6.67l-7.93-55.4c2.26-2.19,4.48-4.41,6.64-6.67 C780.94,522.45,797.42,474.55,791.07,430.16"/> <path style="clip-path:url(#SVGID_00000019636649151728677350000012292246608085381822_);fill:#FEBC56;" d="M732.73,572.38 l7.93,55.4c-17.34,16.78-37.47,31.64-59.59,44.42l-7.93-55.4C695.26,604.02,715.38,589.16,732.73,572.38"/> <path style="clip-path:url(#SVGID_00000019636649151728677350000012292246608085381822_);fill:#FEBD56;" d="M673.14,616.8 l7.93,55.4c-24.48,14.14-51.4,25.73-79.67,34.55l-7.93-55.4C621.74,642.53,648.66,630.94,673.14,616.8"/> <path style="clip-path:url(#SVGID_00000019636649151728677350000012292246608085381822_);fill:#FEBF56;" d="M593.47,651.35 l7.93,55.4c-78.59,24.51-167.65,27.61-243.98,4.66l-7.93-55.4C425.82,678.97,514.88,675.86,593.47,651.35"/> <path style="clip-path:url(#SVGID_00000019636649151728677350000012292246608085381822_);fill:#FEBD56;" d="M349.49,656.01 l7.93,55.4c-7.65-2.3-15.18-4.86-22.55-7.7c-18.13-6.96-34.42-15.18-48.81-24.42l-7.93-55.4c14.39,9.25,30.68,17.46,48.81,24.42 C334.31,651.14,341.84,653.71,349.49,656.01"/> <path style="clip-path:url(#SVGID_00000019636649151728677350000012292246608085381822_);fill:#FEBC56;" d="M278.13,623.89 l7.93,55.4c-19.32-12.41-35.2-26.68-47.5-42.26l-7.93-55.4C242.93,597.21,258.81,611.48,278.13,623.89"/> <path style="clip-path:url(#SVGID_00000019636649151728677350000012292246608085381822_);fill:#FEBA56;" d="M230.63,581.63 l7.93,55.4c-16.22-20.54-26.21-43.35-29.62-67.18l-7.93-55.4C204.42,538.28,214.41,561.09,230.63,581.63"/> </g> <g> <ellipse transform="matrix(0.9899 -0.1417 0.1417 0.9899 -65.8249 75.921)" class="st9" cx="500" cy="500.01" rx="251.45" ry="165.98"/> </g> <path class="st10" d="M665.13,296.3c134.38,51.58,167.65,172.19,74.24,269.42c-93.38,97.2-278.05,134.18-412.43,82.6 C192.53,596.71,159.32,476.1,252.7,378.9C346.1,281.67,530.71,244.7,665.13,296.3z M353.36,620.81 c113.37,43.52,269.21,12.31,347.99-69.69c78.8-82.03,50.73-183.8-62.64-227.32c-113.4-43.53-269.19-12.33-347.99,69.69 C211.94,475.49,239.95,577.28,353.36,620.81"/> </g> </svg>