<?xml version="1.0" encoding="UTF-8"?>
<svg enable-background="new 0 0 122.725 312.943" viewBox="0 0 122.725 312.943" xmlns="http://www.w3.org/2000/svg" fill='#964b62'>
 <path d="m66.099,109.558c.555-.097.591.323 1.027.342 .853,3.941 1.589,7.998 3.766,10.614-.087,1.624-1.254,2.169-1.711,3.424-.169,1.656.483,4.137-.685,4.794-3.145-.143-2.944-3.841-4.452-5.821-.832-1.094-1.453-1.689-2.739-2.397 1.945-3.306 4.133-6.368 4.794-10.956zm-2.055,10.272c1.079,1.546 1.898,3.352 3.425,4.451 .143-1.456.599-2.597 1.369-3.424-1.009-1.502-1.272-3.749-2.396-5.136-.455,1.715-1.196,3.141-2.398,4.109z" fill-rule="evenodd"/>
 <path d="m116.775,131.129c-.159,2.937-3.65,3.741-5.821,4.794-2.22,1.075-4.819,2.912-7.532,2.054 .005-1.25.974-1.538 1.369-2.397 5.605.127 7.538-3.419 11.984-4.451z" fill-rule="evenodd"/>
 <path d="m120.542,100.313c1.561,4.044 3.213,11.211 1.369,14.723 1.182,4.967-.034,9.645 0,14.038 .017,2.274.67,3.988-.685,5.821-.374.505-1.218.707-1.712,1.37-.837,1.122-1.089,2.609-1.714,3.424-2.561,3.349-6.774,5.201-8.9,7.875 1.139,7.649 6.23,11.345 7.875,18.491-.64-.731-.465-2.276-1.37-2.739-.163,2.733 1.362,5.833 1.37,9.587 .003,2.444.193,5.383 0,7.874-.082,1.051-.831,2.154-1.027,3.425-1.111,7.196-.291,13.529-3.766,18.146-1.507,2.001-3.863,3.136-5.821,4.452-2.126,4.778-4.283,7.684-5.479,13.695-1,5.025-4.294,10.787-2.397,17.462 .522,1.841 1.548,3.863 2.397,5.821 2.595,5.984 6.399,14.527 7.189,22.94 .276,2.924.329,6.39 1.028,8.903 .604,2.176 2.082,5.634 3.082,7.873 1.646,3.701 2.997,5.861-.343,9.247 1.391,2.614 2.515,6.993.343,9.587 .206.82.492,1.561.341,2.738-.763,2.091-2.487,3.218-3.423,5.137-6.816-.833-13.296,1.02-19.518,1.026-1.962.003-3.939-.672-5.82-.685-3.601-.025-7.883,1.348-10.957-.342 .319-2.771-1.262-4.484-1.027-6.507 .306-2.648 3.324-4.233 3.424-7.189 1.574-.594 2.767-1.571 3.424-3.082-1.406-1.562-2.099-3.836-2.055-6.849 1.488-2.394 4.205-3.556 6.849-4.791-1.209-3.249-2.38-6.695-4.107-9.59-1.22-2.039-2.939-3.773-4.11-5.819-2.274-3.98-3.873-8.676-6.163-13.013-.88-1.664-2.739-4.233-3.424-6.162-1.998-5.629-.607-12.031-2.739-18.488-2.36.954-.239,3.814 0,5.819 .6,5.02-.668,9.041-3.082,11.301-.01,3.069-1.938,4.224-3.424,5.819-.292,2.723-2.163,4.834-2.739,7.191-.154.63.211,1.441 0,2.053-.746,2.165-2.156,4.39-3.424,6.164-1.247,1.744-3.13,3.029-4.451,4.794-2.775,3.707-4.468,7.729-7.191,11.299 2.773,2.806 2.103,7.884-1.369,9.588 .035,2.361 2.24,2.553 2.739,4.45 3.442.251 6.048,2.47 7.875,4.451 1.416,1.534 1.956,3.605 3.082,5.479 .847,1.406 2.4,2.381 2.397,4.107-.874.609-1.871-.016-3.082.344-.623.184-1.144.929-1.712,1.026-4.432.766-12.281-.686-18.49-.686-2.966,0-5.599,1.271-7.532-.685-5.402,1.892-9.116,1.335-16.093,1.713-2.526-2.287-2.114-7.357-.685-9.93-1.31-3.264-.289-8.859 3.082-9.588-.385-.984-1.494-1.244-1.026-3.081-2.789-1.479-3.05-7.337-1.027-9.929 .045-.844.051-1.651-.343-2.056 .886-1.868.804-4.117 1.713-5.82 .279-.525.198-2.164.684-3.425 .752-1.946 2.12-3.92 3.082-6.163 .858-2.002 1.693-4.212 2.739-6.162 2.973-5.548 6.498-10.356 10.957-14.038 .391-3.946 1.963-6.712 3.767-9.247-.484-12.215 2.067-21.887 4.793-32.869 .499-2.007 1.503-3.96 1.712-5.819 .132-1.174-.387-2.425-.342-3.425 .164-3.733 3.496-6.968 1.369-10.956 .91-.778.805-1.834 1.711-3.082 .776-1.069 3.039-2.266 3.082-2.739 .122-1.336-2.288-1.248-2.054-3.082-1.701-.923-3.076-2.174-3.767-4.109-.113-1.254.38-1.902.685-2.738-1.499-1.914-3.385-4.433-1.37-7.19-1.354-1.956-1.273-5.347-2.397-7.533 3.298-2.523 7.036-4.606 10.272-7.19-4.398,1.423-7.174,4.468-11.642,5.821-1.579,1.959-3.662,3.414-6.505,4.108-1.726,1.116-1.868,2.706-3.425,3.424-3.041,1.403-7.317.919-9.586-.685-.891-.628-1.658-2.368-2.739-3.766-1.675-2.165-4.05-4.387-4.794-6.164-.684-1.633-.118-3.675-1.37-4.451 .04-5.177-1.848-16.381 4.451-18.832-3.37-2.308-.775-7.179 2.739-7.534 .259-1.453.8-2.624.685-4.45 2.188-1.982 5.79-6.817 6.163-10.957 .146-1.613-.635-3.276-.685-4.794-.093-2.836.268-6.238.685-8.902 .812-5.184 3.385-9.113 6.505-12.327 1.532-1.577 2.094-2.813 4.452-3.424 .495-.532.72-1.333 1.027-2.054 2.981-1.583 6.455-2.675 10.614-3.082-.292-3.144.988-4.718 2.397-6.163-.954-3.017-.896-7.609 0-10.614-1.979-.153-1.708,1.945-3.425,2.054-3.781.586-7.557-1.521-7.532-4.451 .027-3.304 6.015-5.548 5.821-.342 1.075.161.904-.922 1.711-1.028 .103-2.728-2.165-3.085-3.081-4.793-1.926-.115-2.299,2.39-4.11,3.082-.681.26-1.666-.242-3.081,0-2.198.375-2.871,1.833-6.164,1.37-.416-.059-1.273-.698-1.711-.685-1.226.036-1.917.765-2.739.685-1.546-.15-2.152-.979-3.425-1.37-2.937-.905-5.458-.558-6.163-3.424-.995-.376-2.43-.309-3.424-.685-.802-2.05-4.188-6.64-4.452-11.299-.209-3.708 1.624-7.9 3.767-7.875 2.632.03 1.982,2.967 3.081,5.136 1.556,1.142 3.205,3.575 5.479,4.451 1.275.492 3.124.083 4.793.343 .812.126.948.746 1.713.685 2.114-.17 3.758-2.289 5.478-1.37-.557-2.583-2.526-7.184-.343-9.93 1.636-2.056 6.061-.594 9.245-2.396 .092-9.495 6.046-13.128 13.354-15.408 3.056.368 6.105.742 7.19,3.082 .331,1.973-1.261,4.152.685,4.793 3.193-.917 3.876-4.341 6.164-6.163 1.308-.28 1.325.729 1.711,1.37 .491-.765.708-1.804 1.712-2.054 2.981,1.242 1.278,7.168 5.137,7.533-1.929-8.705 11.014-11.853 16.778-6.846 1.537,3.371 4.597,5.219 4.793,9.929 1.165,1.576 2.385,3.093 4.11,4.109 2.938-.313 4.905.343 6.162,1.712 .078,3.388-1.714,4.905-2.396,7.532 6.129,2.671 11.417.099 16.094-2.054 1.408-1.33 2.558-2.92 5.135-3.082 2.896,4.961-.261,8.726-3.424,11.984-1.383,1.424-3.319,3.184-4.45,3.766-2.376,1.223-5.61,1.098-6.85,3.424-1.831-.726-3.05.138-4.793,1.028-2.428.336-4.824-.875-7.189-.342-3.271.735-6.086,6.116-2.056,7.189 .644-1.194-.83-2.292 0-4.108 7.683-2.786 7.011,7.689 1.027,8.218-2.027.179-2.607-.558-4.45-1.37-.39,1.305.147,2.445 0,4.108-.149,1.676-1.238,3.205-1.029,4.452 .181,1.059 1.345,1.365 1.37,2.396 2.835.132 6.584,1.482 9.589,2.739 2.324.973 2.923,1.083 4.793,2.397 3.611,2.538 10.515,5.023 9.245,11.299 2.743,6.729 5.946,12.999 6.161,22.256 1.216.496 1.201-.599 2.742.344zm-49.65-91.763c1.859-.045 2.447-2.068 3.768-3.082 2.106-1.618 5.838-2.833 7.875-1.37-3.343-3.55-12.598-1.608-11.643,4.452zm-33.554,1.713c1.796-3.34 5.036-5.235 10.614-4.794 1.492.22 1.22,2.204 3.081,2.054 .422-.968.422-2.113 0-3.082-5.813-2.57-13.105,1.222-13.695,5.822zm40.745-4.794c-.209.019-.406.051-.342.342 7.253.964 7.4,9.035 8.217,16.435 4.31-5.943.196-18.081-7.875-16.777zm-40.402,12.325c1.778-1.716 1.445-4.072 2.739-5.82 .497-.669 1.469-1.3 2.054-1.711 1.687-1.187 4.019-1.362 5.479-3.082-7.048-1.44-10.539,3.602-10.272,10.613zm42.456,9.246c1.152-.824 3.517-3.99 3.767-5.136 1.252-5.753-2.302-12.298-5.479-14.723-1.034.106-2.661-.381-2.738.685 2.479.487 4.03,1.905 5.478,3.423-.562,2.039.947,4.035.343,6.505-.902,3.692-5.561,7.876-9.245,5.479-1.678.527-2.53,1.303-4.108.342-.526,1.755-2.419,2.146-4.793,2.054-.305-.609-.955-.87-.686-2.054 .345.001.408-.277.686-.342 1.107-.423.26,1.108 1.37.685 .295-1.954-2.719-2.173-2.398-4.794 .165-1.349 1.306-1.327 2.055-2.739-1.44.07-1.437-1.301-2.738-1.37-1.061.881-3.05.831-3.767,2.055 .928.67 1.868,1.329 2.055,2.739-.341,1.269-2.321,2.298-1.712,3.424 1.809.439 1.494-1.245 2.055-2.055 .843.298 1.484.798 1.37,2.055-1.579,2.241-8.514,5.323-8.903,0 1.282-1.458 2.733-2.745 3.082-5.136-.82-.437-1.261-1.25-2.739-1.027-.221,1.362.906,1.376.685,2.739-1.149,2.45-3.802,1.149-3.767-1.027 .042-2.66 3.421-2.526 5.478-3.082-1-.255-.662-1.848-2.054-1.712-1.701,1.169-5.664,2.268-5.821,4.451-.129,1.792 1.922,2.709 3.767,3.767 .119,1.716-.851,2.346-2.055,2.739-5.45-1.032-7.874-7.258-6.848-12.669-5.337,6.438-1.321,22.474 8.903,18.49-.346-2.735-4.497-1.667-5.479-3.767 4.946-1.017 6.851,4.603 12.668,2.739 .642-.614.41-2.102 1.37-2.396 1.023,1.096.832,1.519.685,3.424 .874.038 1.198.628 1.711,1.028-.593,2.012.173,2.209.343,4.108-2.483-.05-3.635,2.469-5.821,3.082-4.599,1.289-7.717-1.981-9.587-5.821 .597,2.371 1.367,4.568 1.712,7.19-1.875,3.752-4.878-1.209-6.506-.686 .266,4.012.604,7.771 4.451,8.903-.026-2.581 1.899-5.693 4.452-5.136 2.409.526 1.102,3.86 2.397,4.793 1.053-.543.515-2.68 1.711-3.081 1.591,1.833 4.272,2.576 7.876,2.396 1.097-.158 1.207-1.303 2.396-1.369 .668.589 1.036,1.474 2.053,1.712-.002-.91.131-1.955-.341-2.397-2.463.792-3.42-.862-5.137-1.711-4.874,4.051-4.87-6.733-1.027-6.164 .631,1.398-1.786,3.56-1.026,5.136 1.614-1.315 7.636-1.68 5.478,1.37 1.232.12 1.649.524 2.739,0 .524-1.551-2.236.182-1.713-1.37 1.103-.952 3.171-.938 4.108-2.054-.566-1.943-2.694-2.327-3.082-4.452 3.131-2.583-2.031-5.986-.684-8.902 1.903-.419 1.398,1.569 2.055,2.396 .121-1.135 1.026-1.485 1.711-2.054 .509.405.534,1.293 1.028,1.712 1.113-.848-.81-2.614.342-3.424 2.134,2.75 5.305,2.87 7.874,1.029zm-22.255-17.462c2.264-1.605 3.673,1.039 6.505-.342-.783-1.293-6.041-1.513-6.505.342zm-10.957,5.478c2.211-.757 1.477-4.458 3.082-5.82-2.452.337-3.63,3.605-3.082,5.82zm29.788,4.451c-.898,1.328-3.197,1.475-3.082,3.081 6.812.392 8.434-12.044 2.739-12.668 2.749,2.042 2.308,6.687.343,9.587zm-20.2-8.218c.895.097 1.473-.125 1.369-1.026-.857-.059-1.072.525-1.369,1.026zm-7.875,11.299c-3.461-1.705-3.572-7.939-3.082-11.641-3.325,3.594-.937,11.622 3.082,11.641zm23.282-9.244c.146-1.517-.571-2.168-1.712-2.396-.573.823-.109,2.896 1.712,2.396zm-21.229,0c.567-.346.373-1.454.685-2.055-1.307-.593-2.073,2.133-.685,2.055zm1.713-.685c.449.439 1.261.439 1.711,0 .381-1.982-1.874-1.428-1.711,0zm12.327,2.055c.646-.078.754.385 1.368.342 .423-1.001 1.653-2.653.343-3.423 .089,1.686-1.739,1.455-1.711,3.081zm10.956.342c1.286-.043.911-3.706-.344-3.423 .356.9.41,2.1.344,3.423zm-18.147-.342c.78.095 1.287-.083 1.37-.686-.851.446-1.421-1.004-1.713,0 .267.076.398.287.343.686zm15.408,5.82c2.293-.776 1.113-4.257-.686-4.793 .908,1.355.377,3.625.686,4.793zm-2.397-1.712c-.404.966-1.593,1.146-2.397,1.712 2.871,3.447 5.955-5.328.343-4.451 .38,1.218 2.068,1.127 2.054,2.739zm-35.267-2.054c-.227,4.223 1.055,8.756 3.424,9.245-2.175-1.855-2.809-7.223-3.424-9.245zm18.832,6.848c.53.383.713,1.113 1.712,1.027 .204-1.312.514-2.972 2.396-3.424 .305-2.026-.361-4.876-1.711-4.108 2.203,2.733-1.476,4.701-2.397,6.505zm11.299-5.822c.688.471 1.487,2.6 2.396,1.713-1.159-1.492 1.854.436 1.714-1.028-.654-.78-3.167-2.354-4.11-.685zm24.653,7.191c3.627-.774 4.28,1.427 5.821,2.739 .511-3.005 3.514-5.031 2.396-8.56-2.803.288-4.779-.778-6.847-2.054-.623,2.459.066,6.23-1.37,7.875zm-38.692-4.793c.934.249.689-.681 1.37-.685-.042-.872-.498-1.328-1.37-1.37-.468.438-.468,1.617 0,2.055zm-14.38,6.848c-1.737-2.257-3.87-4.12-3.424-8.56-1.75.646-3.99.804-6.505.685-2.683,3.999.042,10.09 3.424,11.299-.718-4.153 4.531-3.978 6.505-3.424zm27.735-6.164c-.267-.761-.199-1.856-1.028-2.054-.015,1.041-.201,2.254 1.028,2.054zm15.406,8.218c5.207,3.75 8.85-3.537 9.245-8.902 .361-.02.271-.439-.342-.343-1.477,4.572-6.347,5.75-8.903,9.245zm-13.011-5.821c.98-1.231-.599-2.189-1.369-2.739 .329,1.041-.049,2.788 1.369,2.739zm-64.028,4.109c1.135-.121 1.485-1.025 2.055-1.712-1.141-.572-.276-3.148-1.712-3.424-.146,1.011-.429,2.977-.343,5.136zm113.677-2.397c.625.858.713,2.255 1.712,2.739 .429-1.082 1.212-3.156.343-4.451-1.295-.039-1.842.67-2.055,1.712zm-25.681,3.766c-.716.699-2.056,2.061-1.026,3.424 1.461-.936 2.367-2.426 3.082-4.108-.683-.589-1.913-2.405-3.082-1.37 .736.29.552,1.503 1.026,2.054zm23.968,2.397c2.409-.471 1.477-5.501-1.369-4.793-.518,1.332 2.051,2.191 1.369,4.793zm-110.937-.342c1.213-.955 2.649-1.688 3.082-3.424-1.413-.495-3.251,1.228-3.082,3.424zm105.802,3.767c5.369.705 4.096-6.951 0-6.848 .153,1.526 1.156,4.49 0,6.848zm-77.725-4.109c1.318-.051 1.97-.77 2.397-1.712-.774-1.676-3.32.553-2.397,1.712zm52.387,5.478c2.395.111 3.813-.752 4.451-2.397-2.295-.59-.677-4.305-1.028-5.478-1.074,2.692-2.657,4.876-3.423,7.875zm12.668-6.163c-.255,1.396 1.104,1.179.685,2.74-.216,1.731-2.651,3.045-1.71,4.793 2.16-1.684 4.323-4.927 3.08-8.902-.646.077-.756-.386-1.37-.342 .256,1.053-.94.657-.685,1.711zm8.219-1.028c.246,1.843.704,6.487-.686,8.56 4.612.573 5.116-9.797.686-8.56zm-8.219,9.588c6.382,2.967 9.164-7.488 4.452-9.587-.274,4.404-1.321,8.038-4.452,9.587zm-60.946-7.875c.314-.598 1.07-.755 2.054-.685-.005-1.77-3.447-.013-2.054.685zm42.114-.342c-.828,2.286-2.875,1.633-3.766,2.739 2.574,1.643 5.96-2.077 4.109-3.767-.22.365-.177.57-.343,1.028zm-73.272,3.081c.703.551.661,1.85 2.054,1.711 1.116-1.508 1.811-3.439 2.397-5.478-2.791-.051-3.491,1.989-4.451,3.767zm26.365,6.848c-.998-1.473-2.38-1.895-3.424-3.423-1.319-1.933-1.524-4.566-2.739-6.849h-1.027c-.446,4.705 1.912,12.426 7.19,10.272zm61.973-6.506c-.074,1.539-2.446,3.599-1.027,4.451 1.759-1.25 4.121-6.267 1.37-7.875-1.119.826-.376,1.957-.343,3.424zm-83.545,5.136c.804.11 1.286.541 2.397.343-.116-2.501.336-5.596 1.027-8.218-3.804-1.362-2.998,4.73-3.424,7.875zm15.408,2.74c-1.759-3.268-4.404-5.437-4.109-10.615h-1.026c-2.221,3.313-1.186,12.883 5.135,10.615zm10.272-9.93c-.201,1.229.397,1.656.685,2.397 1.562.192 1.448-1.291 3.082-1.027 1.06.081 1.33.953 2.054,1.37 .669,2.982 2.721,4.583 5.478,5.478 .341-5.02-1.893-7.466-5.135-8.902-.369.875 1.474,1.198.342,1.712-2.112-1.123-3.766-2.174-6.506-1.028zm24.311.685c-1.949-.123-1.435,2.217-3.424,2.055-2.056-.226-1.719-2.846-3.767-3.083-1.68,4.119 6.983,5.111 7.191,1.028zm-44.854-.342c-1.168,2.657-.85,7.188.342,8.902 1.047-.249 1.007.591 2.055.342 .313-2.254-.109-7.431 0-9.587-1.112-.199-1.594.234-2.397.343zm41.086.342c.607-.078 1.715.345 1.37-.685h-1.37v.685zm24.654,8.56c-.004-.453-.599-.313-.686-.685 .95-2.931 2.996-4.766 3.767-7.875-1.211-.157-1.977-.761-3.423-.685 .318,6.064-7.815,6.79-10.272,2.739v3.081c2.642.918 2.069,3.912 2.739,6.163-.16,2.123-2.562,2.003-2.396,4.452 2.832-.248 4.019-2.143 5.479-3.767 1.074-.162.904.922 1.712,1.028 .393-.748.067-2.215 1.027-2.397 1.87.069 3.33.55 3.766,2.054 1.876-.406 3.114-1.452 3.767-3.081-1.189-.121-1.299,1.741-2.397.685-.56-1.387 1.813-1.576.686-2.397-.451.69-1.125,1.159-2.055,1.37 .001-.344-.277-.408-.343-.685-.202-1.361 2.396-1.69 1.37-2.739-1.131.697-1.056,2.598-2.741,2.739zm-4.11-6.163c-2.298.553-5.075-1.886-6.162-2.397 .706,1.917 4.118,4.007 6.162,2.397zm-43.826,3.424c-1.014-2.297-1.939-4.68-4.452-5.478 .775,2.348 2.061,5.872 4.452,5.478zm26.023-2.397c-2.024-.083-2.723,1.158-5.136.685-1.628-.882-2.511-2.511-3.767-3.766-.837,4.098 6.445,6.914 8.903,3.081zm-26.023-1.027c1.671,4.035 6.758,4.654 7.19,9.93-.68,2.352-5.917,2.935-6.848.342 .908-.005 2.016.19 2.055-.685-3.382-1.765-2.604,2.067-1.713,3.082 2.092,2.38 7.593.802 7.875-2.397 .141-1.593-1.779-3.991-3.082-5.82-1.586-2.23-2.98-4.488-3.766-5.821 .241,1.266-1.2.854-1.711,1.369zm4.794,1.027c.947,2.135 2.435,3.729 3.766,5.479 .229-3.082-.808-4.899-1.712-6.848-1.629-.488-1.322.959-2.054,1.369zm49.305,2.054c-.282.968.481.888.343,1.712 2.301-.893 3.625-2.766 4.451-5.136-2.247.493-2.335,3.145-4.794,3.424zm6.164,11.984c-.146-.863 1.788-1.363.684-2.055-1.196,2.917-5.059,1.199-5.821-1.026-.575-1.215 1.161-2.759-.341-2.739-2.677,2.661.659,6.67 5.478,5.82zm-11.643.342c.825-1.952.414-5.362-1.712-5.478-1.895,1.837.027,4.409 1.712,5.478zm12.326-3.423c.076.266.01.675.343.685 .377-1.397.144-2.445-1.369-2.739-1.024,1.064.302,1.709 1.026,2.054zm-47.592,4.451c-.076,1.902 1.047,2.604 1.369,4.109 2.128-1.026 3.646-.521 5.136.685v-2.054c-1.975.263-2.925-.499-4.108-1.027-.083-2.137 1.377-2.73 2.739-3.424-.924-1.497.55-1.722.343-3.424-3.929-1.71-1.75,5.518-5.479,5.135zm36.978-3.082c1.062-.08 1.069-1.214 1.37-2.055-.472.015-.752-.162-1.027-.342-.472.442-.339,1.487-.343,2.397zm-28.076.685c.003,1.331 1.614,1.244 2.054.343-.532-.414-1.334-1.095-2.054-.343zm30.474,7.532c.358-2.503.979-6.599-.687-7.532 1.017,2.071-1.464,6.497.687,7.532zm-6.164-1.026c1.071.647 1.76-1.524 3.767-1.027-.028-1.26.901-2.694.343-3.424-2.388-.319-1.401,1.631-2.397,2.055-1.633-.536-1.106-3.23-2.739-3.766-.668,1.792 1.781,3.165 1.026,6.162zm-2.74-3.767c.185-1.21-.29-1.763-1.026-2.054-.717.837-.969,2.358 1.026,2.054zm-19.516.685c.441.472 1.488.339 2.396.343-.112-.8-.411-1.415-.684-2.054h-1.028c-.146.651-.737.859-.684,1.711zm-6.163-.342c.896.096 1.474-.125 1.371-1.028-.897-.096-1.475.126-1.371,1.028zm3.766-.343c.438.02.475.439 1.028.343 .018-.59-.264-.878-.685-1.028 .001.344-.277.408-.343.685zm6.849,1.37c.985-.041 2.241.187 2.738-.342v-1.37c-.968.283-.887-.482-1.712-.343 .298,1.326-1.494.56-1.026,2.055zm9.587-1.027c.805.199 2.632,1.124 2.738,0-.307-1.224-2.463-1.418-2.738,0zm-4.794.684c.857.737 2.256.865 2.739-.343-.413-1.423-2.668-1.276-2.739.343zm-21.229,7.876c-.016-2.395-1.383-6.057-2.397-8.56 .451,3.201.392,6.912 2.397,8.56zm27.049-2.055c-.333,1.507-1.771,2.99-2.738,3.424-1.473.659-5.017.517-6.505-.343-1.207-.697-1.705-2.342-2.056-3.424-.289-.893 1.062-3.353-1.37-3.424-1.007,1.506-.62,3.787-1.027,6.506 1.464,1.39 3.476,2.229 5.136,3.424 1.331-1.271 3.576-.421 5.136,0 4.629-.618 6.084-5.213 4.452-10.272-.472.015-.752-.161-1.028-.342-1.262,1.374.481,2.282 0,4.451zm3.081,2.397c1.044.556 2.143,1.055 2.398,2.397-.139,1.345-1.506,1.462-1.712,2.739 2.697-.498 4.684-1.707 5.821-3.767-4.12-.241-6.681-3.789-5.821-7.875-.473.015-.753-.161-1.028-.342-.64,2.883 1.542,4.522.342,6.848zm8.904-.685c.491-2.395-1.854-4.953-3.424-3.082 .365.663 1.576.478 2.055,1.028-2.118,2.701-5.609-.615-4.794-4.109h-1.027c-.099,3.309 2.696,7.473 7.19,6.163zm-33.213-1.027c-.647-.609-.001-2.509-1.37-2.397-2.88,1.131-.218,5.297 2.74,4.793 2.925-.499 2.618-4.698 4.108-7.19-3.512-.089-2.017,4.831-5.478,4.794zm19.517-.343c-.184-1.187.509-3.247-.686-3.423-.832.766-.21,2.986-1.369,3.423-.437-.477-1.678-.148-1.713-1.026-.421-1.062 1.314-2.604-.342-2.74-1.223.816.508,2.946-1.37,3.424-1.607-.446-1.221-2.888-2.739-3.424-.86,5.11 5.318,6.366 8.219,3.766zm-19.175,4.794c-1.702-.012-2.312-1.206-4.109-1.711 1.346,3.329 7.312,6.158 10.614,5.136-4.015-.354-2.417-4.188-.685-5.821-1.328-1.402.876-3.547 0-4.451-.797,3.25-2.354,6.871-5.82,6.847zm-10.272,1.369c.998-.942 1.232-2.648 2.397-3.423-.646-.038-.237-1.132-1.027-1.027-1.288,1.208-1.192,2.811-1.37,4.45zm45.538-.684c.258-1.739-.341-2.625-1.368-3.081 .666.818-.301,3.266 1.368,3.081zm-13.011-.342c.439.468 1.618.468 2.056,0-.056-1.798-1.819-1.379-2.056,0zm9.246.342c1.071.159 1.528-.297 1.369-1.369-1.071-.16-1.527.297-1.369,1.369zm-38.691.684c.834-.193 1.761-.292 1.712-1.369h-2.054c-.026.597.075,1.065.342,1.369zm12.668-.684c.681.005.435.934 1.37.685 .082-.488.564-.577.686-1.026-.763-.15-1.857-.789-2.056.341zm32.528,2.397c-.74.893-2.508,1.283-1.37,3.082-.758.839-2.453.742-3.423,1.369-1.507,1.184-.513,2.974-2.055,3.767h-3.423c-.645,1.068-.874,2.552-2.398,2.74-1.786-1.34-4.704-.309-5.136,1.711 3.319,1.018 3.747,4.927 4.793,8.217 5.227.317 8.983-.833 11.642-3.082 .659-5.355-3.418-14.292 5.138-13.696 .222-2.331-1.492-5.545-3.768-6.506-.793.762.118,1.336 0,2.398zm5.821,5.136c2.334,2.54 10.592,7.057 11.985.685-3.94-3.592-8.768-6.299-14.381-8.218 1.196,2.113 2.475,4.144 2.396,7.533zm-35.61-5.136c1.77,4.113 8.176,1.708 13.012,2.397 .461-1.178.11-3.193-1.369-3.425-1.197.173-1.224,1.516-2.397,1.712-2.604-2.767-6.092,1.334-8.217-2.054-.102.698-.928.672-1.029,1.37zm-13.695,3.767c.699-1.413 3.082-3.426 1.712-4.794-2.386-.27-3.902,3.604-1.712,4.794zm40.06-3.083v-1.369h-1.028c-.096.895.126,1.473 1.028,1.369zm-54.44,3.767c3.615-2.295 6.606-.039 8.217,2.396 1.445,2.185 1.767,5.239 2.739,8.218 1.688,5.172 5.453,9.288 11.642,7.875 2.831-3.282 1.912-8.835 6.506-10.272 2.696-.844 5.968.457 8.56-1.027-2.108-.407-3.758.808-5.82.342-1.405-.316-1.851-1.682-3.082-1.711-2.013-.048-2.277,1.534-4.452,2.054-1.063-1.562-2.357-2.893-4.794-3.082-1.57.256-1.544,2.108-3.424,2.055-.76-.952.147-3.571-1.027-4.109-.267-.076-.676-.009-.685-.343-2.122-.067-2.376,1.732-4.451,1.713-.925-1.097.264-2.271 0-3.767-.955-1.212-3.43-.907-4.451-2.054-.207-1.253 2.262-1.592 1.027-2.739-2.274,1.15-5.129,1.719-7.533,2.739 .298,1.325-.836,1.218-1.027,2.054-2.607.613-4.351,3.479-5.821,5.479-1.543,2.1-3.389,3.615-1.712,6.505 3.192.339 2.857-2.851 4.794-3.767 .895-2.907 2.412-7.048 4.794-8.559zm11.298-2.054c.411-.943.743-1.43.343-2.397h-1.37c-.162,1.304.146,2.137 1.027,2.397zm34.583,1.711c2.775,2.269 6.424-1.205 4.108-4.108-3.163-.253-5.008,1.258-4.108,4.108zm-28.42-2.396c.661.666 2.096.358 1.712-1.028-1.075-.162-1.398.427-1.712,1.028zm24.995,2.055c.902.103 1.125-.475 1.027-1.37-.92.022-1.645.782-1.027,1.37zm-22.255,2.738c2.014.978 4.977,2.083 6.163.342 1.43-4.24-8.782-6.74-6.163-.342zm-3.766-2.054c.211.93.679,1.604 1.369,2.055 .842-.837-.252-1.485 0-2.739-.934-.25-.689.679-1.369.684zm13.696,1.027v-1.37h-1.37c-.159,1.073.297,1.529 1.37,1.37zm1.37,1.027c.554,3.777 8.736,4.24 9.929.685-.398-.058-.372-.541-.343-1.027-1.918-1.806-8.466-2.765-9.586.342zm-30.132-.685c-.236,1.377.328,1.955.342,3.082 1.218-.836 2.319-1.79 3.082-3.082-1.25-.48-2.346-1.004-3.424,0zm41.431,0c-.056,1.124 1.398,1.643 2.053,1.027 .341-1.409-1.406-1.634-2.053-1.027zm15.407,3.424h2.055c-.008-1.476-.334-2.633-1.369-3.081-.495.761-.861,1.651-.686,3.081zm3.425-.684c1.054.254.657-.94 1.712-.685-.011-1.36-1.334-1.407-2.398-1.712-.685.727.486,1.526.686,2.397zm-33.213-1.37c.042.872.499,1.328 1.369,1.37-.015-.472.162-.752.344-1.028-.607-.3-1.002-1.085-1.713-.342zm-29.789,2.054h1.711c-.312-.601-.118-1.708-.685-2.054-.303.723-1.042,1.013-1.026,2.054zm7.19,1.713c.968.282.887-.483 1.711-.343-.232-1.137-.312-2.426-1.369-2.739-.354.792-.696,2.627-.342,3.082zm-2.397-1.028c1.267.239 1.512-.542 1.37-1.712-.963.065-1.459.596-1.37,1.712zm72.247.343c.856.284 1.345.938 2.396,1.027 .012-1.38-.097-2.641-1.026-3.082-.214.929-1.432.852-1.37,2.055zm-10.956-.685c-.453-.004-.314-.6-.687-.685-.834.397.382,1.613.687.685zm1.71,1.027h1.029c.061-.747-.28-1.089-1.029-1.027v1.027zm-67.794,1.712c.87-.042 1.328-.499 1.37-1.369h-1.37v1.369zm64.028,6.163c4.193,6.017 10.806,13.091 21.229,10.615 .228-3.993-1.514-6.021-2.054-9.245-9.362,5.13-16.155-3.732-20.544-8.902 .063,2.904 1.76,4.174 1.369,7.532zm9.93-6.163v-1.369h-1.37c-.053.966.969.858 1.37,1.369zm-5.135,0c1.931-.449 1.608,1.357 3.079,1.37 .944-1.419-2.24-3.571-3.079-1.37zm8.217-.343c-.825.14-.745-.625-1.712-.342-.336,1.385 1.835,2.022 1.712.342zm-69.85.685c-.089,1.116.406,1.648 1.37,1.712-.283-.967.482-.887.342-1.712-.449-.439-1.262-.439-1.712,0zm-8.56,1.028c.02-.209.051-.405.342-.343-.039-.417-.103-.811-.685-.685 .054.403-.058.972.343,1.028zm82.517,1.026c.326-3.573-4.783.85-7.533.343 1.778,2.464 7.282,2.43 7.533-.343zm-78.066-1.026c-.544,1.518-1.757,4.168-1.37,5.478 .71-1.19 1.711-5.494 1.37-5.478zm-14.038,19.516c.189,1.067.28,2.232.685,3.082 4.692.403 7.781-2.836 10.272-5.136 3.17-2.926 6.013-6.255 7.875-9.929-1.176-2.249-.497-6.351-2.739-7.533-2.482,9.388-4.921,18.819-16.093,19.516zm19.859-17.805c.398.288.918.452 1.712.343-.007-1.021.032-2.086-1.028-2.054 .054.851-.537,1.059-.684,1.711zm27.049.685c.114-.799.412-1.414.685-2.054-.404-.395-1.21-.387-2.053-.342-.009,1.263.153,2.357 1.368,2.396zm25.681-1.712c-.489-.082-.578-.563-1.028-.685-.71,1.233.38,1.697 1.028.685zm-21.914,2.397c1.159-.097 2.101-.412 2.055-1.712-.646-.609-1.383-1.128-2.739-1.027 .356.784.217,2.066.684,2.739zm42.8.342c-1.701-.144-4.133,1.748-7.533,1.028-2.43-.882-4.334-4.107-6.848-3.767 2.414,3.313 11.493,8.765 14.381,2.739zm-53.073-1.027c.825-.14.744.626 1.712.343 .469-.438.469-1.617 0-2.055-.945.196-1.919.363-1.712,1.712zm-31.842-.685c-.052.851.177,1.421.685,1.712 .308-.605.827-.999 1.027-1.712-.45-.439-1.262-.439-1.712,0zm40.403,2.055c.468-.462.652-2.391-.344-2.397-.871.636-.863,2.122.344,2.397zm-4.451,0c.006-.681.935-.436.685-1.371-1.107.424-.261-1.107-1.368-.685 .004.91-.191,2.018.683,2.056zm-38.007-.685c.042.871.498,1.328 1.37,1.37-.456-.571.125-2.179-1.027-2.055-.077.266-.009.676-.343.685zm65.742-.342c-.06.856.526,1.072 1.025,1.369 .105-.798.731-1.475-.342-1.712-.076.268-.285.399-.683.343zm-70.877,4.451c-.34-.767.061-3.197-1.37-3.767-.156,1.653 0,4.778 1.37,3.767zm-1.712,2.396c-.122,1.949-.085,3.737 1.026,4.452 6.771-.077 8.596-5.101 10.614-9.93-.075-.267-.286-.397-.685-.342-1.612,3.83-5.515,9.018-10.955,5.82zm20.201-4.45c.902.103 1.124-.475 1.028-1.37h-1.028v1.37zm22.255-.685c-.45-.35-1.262-.335-1.712-.685-.414,2.034 1.641,2.628 1.712.685zm9.246,1.37c1.002.176 1.815-1.572 1.026-2.054-.552.516-1.78,1.26-1.026,2.054zm18.831-.685c1.098.158 1.208,1.303 2.397,1.369 .395-.819-.849-2.434-2.055-2.739 .078.647-.386.755-.342,1.37zm-48.963,1.027c.8.106 1.415.67 2.054,0-.193-.834-.292-1.761-1.37-1.712 .257,1.054-.938.658-.684,1.712zm31.843.684h1.369c.793-.761-.115-1.335 0-2.396-1.071.183-1.233,1.277-1.369,2.396zm-9.929-1.369c-.186,2.926 2.835,2.644 4.109,4.108 .594-1.004 1.223-1.973 2.739-2.054-.248-3.145-4.276-3.025-6.848-2.054zm-39.719,1.027c.097-.781-.082-1.287-.685-1.369 .079.606-.344,1.714.685,1.369zm.685,1.712c1.776.066 2.96-1.117 2.397-2.396-.397-.288-.918-.452-1.712-.343-.084,1.057-.346,1.936-.685,2.739zm34.583-1.712h.685c.209-.019.406-.051.343-.342-.453-.004-.313-.6-.686-.685-.019.438-.439.474-.342,1.027zm30.474,2.739c.806-.334 2.172-.111 2.055-1.37-.312-.602-1.2-.626-1.713-1.027-.473.442-.338,1.488-.342,2.397zm-3.426-.684c.807-.008 1.01.589 2.056.342v-1.712c-.807.335-2.172.111-2.056,1.37zm17.806,7.533c-.682-2.187-3.299-2.521-4.794-3.766-1.739-1.45-2.512-3.662-4.451-4.794 2.558,3.704 3.862,7.275 9.245,8.56zm-62.658-7.533c.821.663 1.045,1.922 2.396,2.054v-2.397c-.577-.09-1.899-.836-2.396.343zm19.173,1.026c.349-.449.336-1.262.685-1.711-1.481-.521-1.847,1.564-.685,1.711zm13.011-1.026c.062,1.081.241,2.042 1.369,2.054 .469-.462.654-2.391-.341-2.397-.058.399-.542.372-1.028.343zm-42.457,1.711c-.006-.512 1.272-1.4.343-1.711 .369.875-1.474,1.198-.343,1.711zm14.381.685c.141-.43.442-.699 1.027-.685 .078-1.219-.492-1.79-1.712-1.711 .059.968-.294,2.349.685,2.396zm30.815-.685c.858.059 1.072-.526 1.369-1.027-.487-.082-.577-.563-1.027-.685-.286.398-.451.919-.342,1.712zm-17.119.343c.089-1.117-.407-1.648-1.369-1.712-1.081.999.635,2.527 1.369,1.712zm12.669-1.712c-2.974-.462-2.189,2.834-4.794,2.74-1.788-.609-1.795-3-4.452-2.74 .263,5.417 8.851,4.918 9.246,0zm8.902.342c-.211,2.238 2.157,1.89 1.712-.343-.794-.108-1.314.056-1.712.343zm11.641,3.082c.117-1.482 1.668-1.529 1.369-3.425-1.456.285-3.512,2.571-1.369,3.425zm-69.164,12.669c-.844.045-1.649.051-2.054-.343 .835,2.925 4.822,1.263 6.164.685 4.088-1.761 8.51-7.214 10.957-10.957 .86-1.314 2.817-3.237 1.712-4.451-4.187,6.429-9.154,12.076-16.779,15.066zm62.317-14.724c-.405-.394-1.21-.387-2.055-.342-.462,1.768 1.581.643 2.055.342zm-7.876,1.37c.439.468 1.618.468 2.055,0-.063-.963-.595-1.459-1.712-1.37-.107.464-.488.655-.343,1.37zm-54.099,4.452c-1.033.191-2.515-.75-3.082.342 4.358,1.963 9.735-2.509 9.93-5.821-1.684,1.875-3.862,4.924-6.848,5.479zm26.022-3.767c.858.058 1.072-.526 1.37-1.027-.652-.147-.859-.738-1.711-.685-.11.794.055,1.315.341,1.712zm-3.766.342c.761.266 1.335.72 2.396.685 .045-.844.053-1.649-.342-2.054-1.277-.137-2.008.274-2.054,1.369zm9.93.685c.045-.844.052-1.649-.342-2.054h-1.37c-.453.624.319,2.215 1.712,2.054zm30.472-1.027c.047,2.465 2.273,2.748 3.768,3.766-.045,2.214.421,3.916 2.054,4.451 .313-1.741 1.201-2.909 1.37-4.793-1.37-1.37-3.098-2.38-3.766-4.451-1.171.313-2.453.515-3.426,1.027zm-29.102,1.37c.871-.042 1.328-.5 1.369-1.37-.506-.179-.862-.507-1.369-.685-.468.438-.468,1.617 0,2.055zm9.929.342c-2.887.148-3.851-1.627-5.821-2.396 .168,2.495 4.506,5.232 5.821,2.396zm-46.224,14.381c-.989-.838-.976-2.677-2.054-3.424-1.212,3.581-3.533,6.055-5.137,9.245 2.775.853 4.272.982 6.848,0 2.008,1.317 4.079.471 6.505,1.37 1.575-5.102 5.772-9.215 12.668-7.875 1.309-4.64 4.005-9.673 3.082-15.408-.471.014-.751-.162-1.027-.343-3.992,8.263-10.308,15.88-20.885,16.435zm29.789-14.381c.987.041 2.241-.187 2.739.342-.377-.993-.424-2.315-1.711-2.397-.305.723-1.043,1.012-1.028,2.055zm17.804.342c1.355,1.876 4.232-.805 3.425-2.054-.836.991-2.105,1.548-3.425,2.054zm27.736-2.054h-1.028c-1.583,1.268.158,2.623.686,3.766-1.162,2.34-2.787,7.607-1.028,10.614 1.864-1.417 2.949-4.76 6.506-3.424-.202-3.398 5.634-.758 6.505-3.081-4.385-2.12-9.561-3.451-11.641-7.875zm-16.437,13.011c1.127.472 3.047.149 3.426,1.37-.061,1.815-.222,1.748 0,3.425 1.559,2.286 5.758,3.491 9.587,2.396-.683-1.387-.696-2.336-.344-4.108-3.51.135-3.461-2.436-7.19-1.37-1.788-1.749-4.196-2.88-3.767-6.848-1.425-1.885-3.012-3.606-3.424-6.505-1.432-.166-2.537-.659-3.766-1.028 .987,5.062 2.369,9.728 5.478,12.668zm0-11.299c.711,3.251 5.276,4.855 3.426,8.56 .729.981 1.549,1.874 2.738,2.397 1.104-.153 1.854-.656 3.082-.685 .856.855.872,2.551 3.08,2.055 1.107-3.885-3.673-4.743-3.766-8.56-1.744-1.11-3.276-2.43-3.767-4.793-2.25.447-3.592-.293-4.793,1.026zm-35.951,7.875c1.952-.217 1.302-3.035 3.082-3.423 1.212-.064 3.332-.599 3.766-2.397-2.093-.532-4.294-.956-5.821-2.055 .041,3.008-.552,5.382-1.027,7.875zm16.092-7.875c-1.509.889-1.36,2.316-2.054,3.767-.808,1.689-3.421,2.779-3.082,5.136 1.742.198 3.381.5 4.451,1.369 1.016-2.313 4.587-8.396.685-10.272zm23.285,19.174c-1.699-.263-2.98.515-4.109.343-3.908-.598-6.081-4.423-6.164-7.533-.044-1.657 1.387-3.245 1.37-5.82-.013-1.955-1.075-3.006-1.37-5.479-2.851,1.494-2.76,3.171-2.396,7.534 .396,4.743 1.711,10.412 3.424,13.353 4.739,4.088 13.06,1.469 19.175,2.397 .662-.834-.843-1.693-.342-3.425-3.892,2.205-7.384-1.028-9.588-1.37zm-30.817-17.119c-1.066,1.902-1.934,4.001-4.793,4.109-1.308,1.66-2.431,3.504-4.794,4.108 .199,1.111-.233,1.593-.343,2.396 3.406.703 7.407-2.494 10.615-4.108-.483-3.906 2.999-3.848 3.424-6.848-1.251.233-2.49.478-4.109.343zm9.245,6.848c3.35,5.146-.007,11.847-4.794,13.01 .462,1.653-1.416,3.271 0,3.767 8.188-2.312 6.524-14.476 8.218-23.283-.968.283-.887-.482-1.711-.342 .298,3.151-.769,4.938-1.713,6.848zm5.478-5.821c-1.467,2.661-.784,6.029-1.026,8.902-.592,6.994-2.102,11.64-6.849,14.381-1.227.708-2.822.764-4.108,2.054 .599,1.798 1.333,3.46 1.711,5.479 2.907,4.105 10.591,4.492 15.407,3.766 7.637-1.15 12.316-5.323 17.806-8.217 1.687-.889 3.816-1.587 4.793-3.082-8.393-2.288-17.618,2.416-22.255-4.108-3.379-4.753-3.458-12.445-4.452-19.859-.075-.267-.287-.398-.685-.342-.018.437-.438.473-.342,1.026zm49.648,2.739c.287-.741.886-1.168.685-2.397-1.626.041-3.742.619-6.162.343-1.816-.207-3.778-1.825-5.137-.685 2.473,1.977 6.636,2.266 10.614,2.739zm-5.822,3.424c.57-.671-.255-2.021-1.369-2.054-.786.887-.039,2.317 1.369,2.054zm4.794,0c1.259.33 1.361-1.682.344-1.711 .282.966-.483.886-.344,1.711zm-1.711-.342c.103-.902-.473-1.124-1.37-1.028-.279,1.225.729,1.7 1.37,1.028zm4.793,0c.049-.405.609-.777 0-1.028-.05.405-.609.776 0,1.028zm-15.75,0c-.529,3.194 4.058,2.272 3.423-.343-1.138-.568-2.351-.081-3.423.343zm17.121,4.793c-4.165-2.687-5.705,2.581-8.56,3.424-.756-.723.438-1.013.341-2.055-3.354-.615-4.052,1.425-5.479,2.739 6.73,2.808 9.345-4.721 15.409-2.396-.074-2.437-1.042-3.98-.686-6.848-1.481-.113-.843,1.896-2.396,1.712-3.841-.18-8.055.804-10.958,0-1.204,1.383-2.936,3.02-5.478,2.055-1.369,1.255-2.084,3.165-4.792,3.082-.46,1.595-2.02,2.09-2.741,3.424 1.992-1.064 4.31-2.357 6.164-1.712 1.212-1.819 4.254-4.47 6.847-2.739 1.155-1.117 3.869-1.951 5.48-.685 2.234-.961 3.386-3.005 7.188-2.397 .44,1.071 1.097,1.89-.339,2.396zm-38.349,3.766c.084-1.454-.896-1.844-.686-3.424-3.072-.58-3.608-3.695-5.821-5.135-1.383,5.109 1.103,9.117 6.507,8.559zm-30.474-5.82c1.07.527 2.466.729 3.424,1.37-.134-1.389.532-1.979 2.054-1.712-.641-1.744-4.305-.45-5.478.342zm46.909,1.711h1.712c2.045-4.149-4.265-2.982-1.712,0zm-40.403,5.821c2.766-.411 5.28-5.433 2.739-7.875-.294,3.29-3.895,4.162-2.739,7.875zm0-4.793c.178-.507.506-.863.684-1.37-.68-.004-.435-.934-1.369-.685-.651.645-.042,1.78.685,2.055zm-17.12,26.707c-.969-.037-1.605-2.151-.343-2.397 1.06-.342 1.33,1.823 2.054.685-.448-.005-.436-.95 0-1.027 1.229-.201 1.657.398 2.397.685 .273-.753.688-1.367 1.712-1.37 .679.462-.108,2.391 1.027,2.397 1.268-.786 1.391-2.717 3.081-3.082 1.16,1.585-.901,2.381-1.027,3.767 .929-.316 1.614-.544 2.055.343 2.835-2.896.4-7.135-2.74-7.533-2.565-.325-4.497,2.823-6.506.685 1.23-2.309 4.626-2.451 8.218-2.396 1.46,1.05 2.529,2.492 3.767,3.765 .948-3.837-1.422-7.225-4.109-8.559-1.406.487-4.551,2.07-5.479,0 .782-1.729 4.086-.936 5.479-2.055 1.459.481 2.363,1.517 3.767,2.055 .868-1.406.438-2.224.685-4.452-.704-.096-.684-.914-1.026-1.37-2.066-.901-5.408-.527-7.876-1.027-.867.093-1.941,1.47-2.397,0 1.667-3.849 9.232-.966 12.327,0 .718-2.65-1.136-3.771-1.712-4.451-.33-.389.048-1.047-.342-1.369-3.148-2.6-8.107,2.072-11.3,0-1.428,1.704-3.791,2.532-6.505,2.054v-1.027c-3.936.906-7.064,3.896-7.19,7.532-1.609-.238-1.266,1.475-2.398,1.713 .698,4.938 2.054,9.323 3.767,13.01 1.489,3.208 2.187,6.208 5.478,6.505 .371-.877-1.04-1.632 0-2.054 1.229-.284 1.656.771 2.397,0 .242-1.068-1.915-1.474-.685-2.397 1.009-.841 2.393,2.273 3.424,1.37zm53.757-24.31h1.369c.077-1.219-.23-2.052-1.028-2.397-.32.681-1.115,1.63-.341,2.397zm7.189,4.793c.613-2.012 2.652-2.598 4.109-3.767-1.737-.498.499-1.82-.343-2.396-2.699.385-4.577,3.406-3.766,6.163zm10.615,0c2.23,2.491 6.153-2.45 9.588-1.028-.243-1.269.584-1.469.341-2.739-1.705-.349-2.166-1.942-4.793-1.37-2.358,4.473-10.429,2.249-14.38,4.452 .113,1.482-.472,2.267-1.37,2.739-1.519-1.496-2.006.945-3.082,1.028-.132-1.477-2.278-2.73-1.368-4.11 1.703-.22 1.223,1.745 2.396,2.055 .006-1.377.986-3.561.343-4.451-1.717.45-3.554.782-4.794,1.711 .666,2.645 2.198,4.421 2.739,7.191 2.666-.761 5.64-3.032 8.903-2.055 .076.647-.387.755-.344,1.37-4.078.487-7.199,1.93-9.587,4.108-2.014.633-4.184,1.356-5.82,2.397-1.436.914-3.46,2.181-4.451,3.424-1.423,1.783-2.263,5.437-3.423,7.191-2.064,3.115-4.513,4.765-7.533,6.505-1.874,6.185-1.473,16.603 4.451,18.147 1.01-.746-.885-2.409.684-2.739 1.52-.036 2.011.959 3.767.686-.039-1.351-1.489-1.048-.685-2.398 2.212-.384 2.771.883 4.451,1.029 .965-1.138-1.463-1.073-1.027-2.74 1.667-.952 2.919,1.086 5.136.685-.137-1.46-2.455-.741-2.054-2.739 1.934-1.435 4.306,2.454 5.821.342-.901-.355-2.235-.276-2.055-1.712 1.324-1.637 2.719.974 5.135.342-.252-1.46-2.656-.767-2.739-2.397 1.525-2.121 4.808,1.69 6.164-.342-.783-.472-2.136-.374-2.055-1.711 .488-.083.578-.564 1.027-.685 1.461.333 2.899,1.453 4.451.685 .167-1.536-2.348-.392-2.055-2.055 .835-2.008 3.375.885 4.452-.342-.323-.59-1.267-.561-1.027-1.711 .987-.888 2.122.154 3.423,0-.209-1.143-1.004-1.169-.342-2.397 .986.041 2.241-.188 2.74.342 .826-.681-.57-1.63.341-2.396 .91.003 1.957-.13 2.398.342 .59-.893-.064-3.032 2.054-2.396-.588-1.875.945-3.891 3.081-4.109 .707-1.636.344-2.213.343-4.451-2.033.262-6.062,3.438-7.189.342 .266-.075.397-.286.342-.684 3.558.361 4.628-1.764 6.848-2.739 .12-2.488.036-5.129.343-6.505-.005.448-.95.436-1.027,0 .605-1.265.336-3.155-.685-3.767-2.879-.481-2.08,2.714-3.768,3.424-.829-.197-.761-1.293-1.026-2.054-1.309-.281-.404,1.65-1.713,1.37-.853.752-1.679-.598-2.739-.685-.613.322-1.902,1.718-2.739.685 .144-1.569 1.786-1.638 2.397-2.74-3.07-.391-5.533,1.469-7.191,1.371 .977-4.172 6.837-2.248 9.932-3.082 2.269-.612 4.443-3.762 7.532-2.397 .102.699.926.672 1.027,1.37-3.977-.606-6.193,1.519-9.589,2.393zm-98.611,4.451h2.055c.64-.89.481-3.269-.343-3.766-2.987-.51-3.118,2.51-1.712,3.766zm4.793-.685c1.42-.178 1.468-1.728 3.424-1.369 .019-2.893-4.746-1.969-3.424,1.369zm76.697-1.369c.052-.851-.178-1.421-.684-1.712-.051.85.178,1.421.684,1.712zm-83.887,2.054c-1.045-.633.396-1.627 0-2.739h-1.026c-.996,1.167-.488,3.629 1.026,2.739zm11.642-.342c-.583,6.446 1.673,11.152 3.423,14.724 2.245,4.578 4.979,9.033 10.273,9.586 1.496-.91 2.342-2.802 1.711-4.108-.877-.543-2.71.327-4.452,0-6.613-3.887-8.169-12.831-9.93-21.572-.342.455-.322,1.274-1.025,1.37zm73.274.685c.017-1.043-.312-1.743-1.028-2.055-.017,1.045.312,1.744 1.028,2.055zm-76.698,2.397c-.185,7.5 3.899,17.403 7.875,21.229 1.056,1.017 3.842,3.292 5.479,1.37-.875-1.716-2.842-2.125-4.108-3.424-4.604-4.722-7.153-11.585-7.876-20.202-.076-.267-.287-.397-.684-.342-.476.208-.053,1.317-.686,1.369zm-7.533,2.054c.066-1.19 1.211-1.3 1.37-2.397-8.083.461-7.459,11.132-5.821,18.833 .807,3.787 2.916,5.692 4.794,8.217 1.425,1.917 2.528,4.729 4.109,3.767-.395-.111-1.179-1.494-.343-1.712 1.856-.021 2.6,2.867 4.452,1.712-1.159-.667-2.692-.961-2.739-2.74 .14-.43.441-.7 1.028-.685 1.831.453 1.839,2.726 4.108,2.739 .789-1.604-2.634-1.608-2.739-3.424 .488-.083.577-.564 1.026-.685 1.6.205 3.074,3.482 4.452,1.711-1.267-.673-2.415-1.465-3.083-2.739 .489-.082.578-.563 1.028-.685 1.156.114 2.043,2.274 3.082,1.37-.711-.191-.726-.533-.343-1.026 1.165-.448 2.39.763 2.74,0-3.859-1.574-5.438-4.287-7.533-8.218-1.421-2.667-3.143-5.553-3.767-7.875-.331-1.233-.943-4.65-.685-5.821 .228-1.03 1.563-2.62.342-3.424-1.767.912-3.434,3.568-5.478,3.082zm49.991,8.902c-2.417-.633-3.943-3.15-6.506-2.739-.945,1.441 1.004,2.385 2.054,3.425 1.328,1.312 2.906,2.938 4.11,3.423 11.003,4.439 21.524-4.202 24.651-9.587-5.14,3.452-15.386,7.816-24.309,5.478zm8.559,7.191c-6.378.596-12.684-2.186-15.408-6.163h-1.027c-.151,1.218-1.239,1.5-1.712,2.397-1.4,1.611-5.843,1.858-4.451,5.136 3.686-1.512 11.778-4.523 13.01,1.027 1.851-.48 1.816.924 3.082,1.028 .875-.609 1.496-1.472 2.739-1.713 2.248,1.658 3.78-.843 6.163-1.027 1.083-.056 1.144.911 2.396.685 2.682-1.426 5.161-3.058 6.163-6.163-2.924,1.922-6.183,4.346-10.955,4.793zm-22.256-4.452c-.315,1.245 2.261.783 2.055,0-.438-.468-1.617-.468-2.055,0zm-2.739,2.397c.606-.078 1.715.346 1.37-.685-.638.048-1.144.226-1.37.685zm7.19,3.424c-1.141.313-2.402,1.384-3.767,1.712-2.582.622-5.553.335-5.82,2.397 2.122.617 3.716-1.268 5.478-1.712 2.518-.635 5.159-.223 7.532-1.37 .122,4.852-9.542,2.745-13.01,5.136-.807.008-1.009-.59-2.055-.343-1.636,1.56-4.453,1.938-4.108,5.479 .276,1.208 2.09.877 2.055,2.396 .3,2.355-2.151,1.958-1.712,4.452 2.305,1.546 3.294,3.412 1.712,6.505 .66,1.395 2.25,1.859 3.766,2.396-.361,2.302 1.138,2.743 2.397,3.425 .005-.909-.19-2.017.684-2.055 1.302.182 1.898,1.069 3.424,1.027-.104-.8-.731-1.476.342-1.712 1.859-.034 2.421,1.231 4.11,1.369-.15-.763-.788-1.856.342-2.055 1.002-.09 1.052.774 2.054.686-.05-.852.177-1.422.685-1.713 1.526-.042 2.124.845 3.425,1.027 .843-.698-1.144-1.399 0-2.396 1.102-.075 1.449.605 2.739.342-.301-1.098.525-1.07 1.026-1.368-3.07-4.25-6.011-15.016-1.37-19.86-.984-2.171-4.748.418-5.136-2.055-.502-1.302 1.531-.067 1.027-1.37-1.282-1.242-3.712-.918-5.82-.34zm18.148,1.712c-4.855,4.884-.791,20.293 3.767,21.915 1.411.501 3.696.455 4.451-1.713-6.793-2.431-7.237-12.768-5.821-20.543-1.082-.169-1.21.616-2.397.341zm-4.109,1.37c-8.353,2.908-2.93,24.795 6.163,22.255-3.437-3.615-7.418-10.71-6.506-17.804 .205-1.589 2.095-3.774.686-4.451h-.343zm-9.587,35.266c5.293.998 10.412-1.677 14.724-2.739 2.804-2.808 6.354-4.328 9.586-6.505 9.661-6.506 17.756-14.871 26.707-21.914-.038-.417-.101-.81-.684-.685-1.198,2.104-3.942,3.063-6.164,4.452-5.712,3.571-11.424,7.943-18.489,9.587-1.334,2.088-2.547,4.301-5.137,5.136-2.349-.681-4.122,1.887-6.505,2.055-2.12.146-2.909-.803-5.135-1.37-2.241,1.601-5.23,1.828-7.876,2.739-1.774.612-3.377,1.854-5.135,2.397-1.479.456-3.151-.118-4.109,1.368 2.352,1.652 4.608,4.801 8.217,5.479zm52.044-28.418c-6.293,7.175-12.803,14.132-18.489,21.913 6.178-2.044 8.732-7.212 12.668-11.643 1.272-1.429 2.758-3.286 4.11-4.794 1.36-1.515 4.34-2.845 2.739-5.477l-1.028.001zm4.451,9.587c-.415,2.095-2.938,2.084-3.081,4.45 2.921.607 6.23-3.216 3.081-4.45zm-4.451,6.163c.546,2.105-.313,3.44-.342,5.821 1.857-.312 3.531-.806 5.479-1.027 .453-1.602 1.305-2.803 1.026-5.138-2.343-.173-3.73.61-6.163.344zm-1.371,3.081c.11-.804.543-1.284.343-2.396h-1.026c-.055,1.081-.013,2.066.683,2.396zm-8.216.686c.707,1.981-.272,3.656-.343,5.821 1.825-.802 3.977-1.275 5.479-2.398 .156-2.24 1.361-3.432 1.369-5.82-2.48.486-4.583,1.35-6.505,2.397zm-18.49,2.055c-3.081,2.302-5.52,5.825-8.218,8.559-2.84,2.878-6.041,5.32-7.875,8.903 1.006.365 1.373,1.365 2.739,1.37 6.179-6.945 11.895-14.356 18.488-20.887-.053-.403.062-.973-.341-1.027-1.025,1.673-3.28,1.951-4.793,3.082zm26.366-1.37c.094-.467-.213-1.336-.343-.685-.093.466.212,1.336.343.685zm6.848,2.054c.696.441.622,1.659 2.053,1.369-.616-1.588 1.159-3.853-.341-4.108 .746,2.229-1.175,1.793-1.712,2.739zm-22.258,1.369c.994,1.015-.131,2.819 0,4.108 1.395-.09 2.324-.643 3.425-1.026-.053-2.45.962-3.831 1.369-5.821-1.974.537-3.311,1.71-4.794,2.739zm14.725-1.369c.099-.211.851-1.318 0-1.37 .326.638-1.026,1.144 0,1.37zm9.245,4.451c-.403-2.452-2.04-3.668-4.11-4.451 .969,1.887 2.673,3.034 4.11,4.451zm-71.562,0c1.094,2.344 2.6,5.371 4.108,5.478-1.91-2.655-2.523-6.607-4.451-9.245-1.4.639-.386,2.209.343,3.767zm65.398-3.767c-1.677.492-3.116,1.221-4.795,1.712 2.464,4.272 7.551,5.92 9.589,10.615-.638.328-1.146-1.026-1.369,0 .529.382.711,1.112 1.711,1.027 .04-2.682.571-4.872.685-8.217-2.418-1.236-3.384-3.92-5.821-5.137zm-13.012,3.082c1.159.224 1.394-2.229.687-2.738-.184.958-.503,1.78-.687,2.738zm-47.592.344c-.039-1.445-1.013-1.955-1.712-2.74 .095,1.387.181,2.785 1.712,2.74zm-8.56,2.052c2.043,3.093 3.829,6.442 5.478,9.93 1.164.32 2.51.458 3.767.686-.139-1.459.332-3.528-.343-4.451-.846-.98-4.126.475-4.45-1.027-.136-.82 1.559.19 1.026-1.028-1.701-2.064-2.315-5.216-4.108-7.188-.309,1.174-1.48,1.485-1.37,3.078zm40.06,3.767c-.55.646-1.816,1.45-1.369,2.397 2.737-2.514 6.114-4.386 9.588-6.164-.211-1.268 1.352-2.729 0-3.08-2.661,2.216-6.127,4.387-8.219,6.847zm30.474.686c-1.429-1.201-2.743-2.504-4.109-3.767-1.309-1.207-2.479-2.98-4.451-3.425 1.416,2.239 5.925,6.171 8.56,7.192zm.343,3.081c-3.858-2.943-6.826-6.228-9.931-9.586-1.212.385-3.103.093-3.424,1.368 3.075.805 6.884.879 6.847,4.793-2.18-1.356-3.872-3.203-7.189-3.423 .807,2.731 4.021,3.054 5.137,5.479 4.832.531 6.707,4.021 11.642,4.451 .348-1.982-2.133-2.357-3.082-3.082zm-59.92-6.848c.742-.783.124-2.137-1.028-2.055-.918.624-.636,2.216 1.028,2.055zm25.68,5.136c1.004-2.193 4.133-4.08 4.451-5.821-1.945,1.254-4.467,3.745-4.451,5.821zm-27.051-1.028c1.375-.329 2.729,1.126 3.425.343-2.009-1.076-3.477-4.508-5.479-4.451 .755,1.3 1.319,2.789 2.054,4.108zm48.278-1.369c-1.38-.566-2.315-3.382-4.107-2.396 1.343.602 2.846,2.848 4.107,2.396zm-45.196-.343c.808.105.638,1.19 1.712,1.026 .804-.793 2.073-1.121 2.054-2.738-2.041-.563-3.318-.103-3.766,1.712zm12.67-1.37c-.04-.417-.104-.811-.687-.684-3.178,1.043-5.118,3.326-6.505,6.163 3.88.989 4.556-4.091 7.192-5.479zm21.911,1.028c1.715,2.168 5.81,1.953 9.247,2.397-1.498-3.055-6.114-5.546-9.247-2.397zm-47.592,1.713c1.79,1.406 1.069,5.322 3.767,5.819 .085-2.304-2.079-5.188-3.424-7.189-.109.461-.488.655-.343,1.37zm40.745,3.081c2.237.354 4.652-1.616 6.847-2.396-2.206-2.414-6.034-.418-6.847,2.396zm-29.445.342c.104-.799.731-1.476-.343-1.712-.436.405-.145,1.293.343,1.712zm49.989,25.337c-.354-.471-1.681-1.706-1.027-2.054 .795-.827.916.534 1.712.685 .438-1.509-1.639-1.402-.685-2.396 .928-.934.852.885 2.055.684 .055-1.082-.91-1.144-.685-2.396 .967-.283.886.481 1.712.343 .09-1.004-.774-1.053-.686-2.055 .653-.642.86-.038 1.713,0-4.438-5.493-7.6-12.262-10.272-19.518-3.215-.134-5.862.3-8.56.686 .029,1.534 1.299,1.979 2.055,3.08 4.175,6.096 6.539,14.571 8.218,22.941 .566,2.829.027,6.136 1.026,7.876 2.757-1.917-.066-5.117.342-7.189 1.195.402.869,2.325 2.397,2.396 .45-2.061-2.204-2.414-1.027-4.109 .716.002 1.289,1.865 1.712,1.026zm-1.027-19.173c1.188,2.614 2.048,4.742 3.424,6.847 .81,1.238 2.042,2.79 3.425,3.082 .371-.878-1.04-1.632 0-2.055 1.287-.261.235,1.817 1.711,1.37 .194-1.385-2.003-2.683-.342-3.425 .945.312.551,1.96 1.712,2.055 1.712-1.401-.93-2.763-1.027-4.451 .489-.083.578-.564 1.027-.684 .64.728.559,2.18 1.369,2.738 1.355-1.428-1.278-3.144 0-4.451 .967.062.428,1.628 1.712,1.369-1.42-7.255-9.731-7.616-16.091-9.93 .851,2.726 2.163,5.513 3.08,7.535zm-61.974-3.768c.497.53 1.752.303 2.739.344 .03-1.743-.455-2.971-1.37-3.767-.351,1.246-1.078,2.118-1.369,3.423zm15.066,1.027c2.206-.151 3.316.793 4.792,1.37 .211-1.466-1.115-1.396-1.027-2.739-1.221-.034-2.351-.158-2.739-1.026 .289-.739 2.182.128 2.397-.685-1.222-.49-2.208-1.218-3.767-1.37 .02,1.579-.151,3.347.344,4.45zm19.516,2.399c2.056-1.749 5.139-2.775 6.163-5.138-2.56,1.208-5.07,2.462-6.163,5.138zm11.642-5.138c-1.86-.327-4.099,1.848-5.82,3.082 3.305,3.657 5.267,8.657 7.875,13.012 1.18-2.702 2.391-5.371 3.766-7.874-1.808-1.817-3.375-7.789-5.821-8.22zm-23.969,4.451c.289-1.429-.665-1.616-.684-2.739-.513.059-1.264-.122-1.37.344 1.086.396.844,2.123 2.054,2.395zm3.768,3.082c-.516-2.109-.22-5.029-2.739-5.135 .704,1.921.909,4.341 2.739,5.135zm-24.996-3.082c-3.011,8.403-6.452,18.201-6.163,28.763 5.606-9.232 15.808-13.867 28.077-16.435 .904-2.292 2.275-4.117 2.396-7.19-4.815-4.72-15.199-6.929-24.31-5.138zm74.301.687c-.078-.608.346-1.716-.684-1.37 .046.637.224,1.143.684,1.37zm-45.54,11.641c-1.479,4.98-2.254,11.467-2.396,17.119-.077,3.002.608,5.835 1.026,8.902 .588,4.313.542,8.785 2.053,11.299 2.328,3.867 7.354,4.144 11.302,1.369 2.832-1.989 4.396-5.293 5.818-8.901 1.593-4.038 2.464-5.982 2.056-10.615-.812-9.216-2.989-18.976-6.505-25.337-1.334-2.413-2.438-4.857-4.11-6.506-4.62,2.549-7.475,6.712-9.244,12.67zm1.028-7.534c.243-1.696 1.562-2.318 1.712-4.107-1.76.604-3.661.256-5.135-.344 .011,2.612 1.858,3.391 3.423,4.451zm-1.028,1.37c-1.093-.504-1.068-2.126-2.396-2.396-.105,1.489 1.761,2.785 2.396,2.396zm18.832,8.217c2.084,6.842 3.397,16.464 2.739,23.969 1.645-3.378 4.659-5.384 6.505-8.561-.85-8.279-2.439-15.821-4.451-22.94-.437-.019-.473-.439-1.026-.342-.812,3.068-2.528,5.231-3.767,7.874zm-22.255-4.45c.276-1.207 2.089-.879 2.055-2.396-1.093.176-2.753,1.565-2.055,2.396zm0,1.369c.784-.929 2.982-.441 2.739-2.396-1.175.318-3.105,1.672-2.739,2.396zm1.028,1.369c-.077-.266-.287-.396-.687-.341-2.453,2.087-6.573,2.258-9.929,3.423-2.187.759-4.293,1.686-6.506,2.739-8.353,3.977-17.453,9.158-15.75,21.571 4.281-6.618 12.442-10.992 23.284-9.93 3.5-5.515 7.082-10.95 9.588-17.462zm-2.398,9.245c-.78.818 2.119-1.817 1.028-2.396-.483.659-.906,1.377-1.028,2.396zm-2.74,5.136c.806-1.255 3.788-2.139 3.082-3.766-.448,1.614-3.719,2.205-3.082,3.766zm-1.711,3.082c2.613-.354 5.091-.845 5.137-3.766-.076-.268-.288-.399-.687-.343-1.329,1.525-3.05,2.656-4.45,4.109zm34.925,11.3c2.325.08-2.744,3.461-.686,4.451 .875-.724.954-2.242 2.397-2.396-.064,2.068-2.605,3.219-2.056,4.792 1.522.14 1.734-2.814 2.739-2.053-.019,1.235-.853,1.655-1.026,2.739 1.411.251 2.068-2.018 2.739-1.37 .389,1.535-1.795,1.528-.684,2.738 1.258-.224 1.703-1.262 2.396-2.055-3.95-4.037-2.956-13.721-.686-18.831-3.579,3.153-5.941,7.525-7.874,12.326 2.375-.596 3.188-4.568 5.135-4.451-.417,1.53-2.645,3.048-2.394,4.11zm-36.638-8.904c-7.333-2.44-17.316,1.769-20.543,5.137-1.468,1.532-3.682,4.418-3.767,6.163-.124,2.574 2.544,7.671 5.136,8.219 3.432.722 8.202-2.493 10.272-4.109 2.2-1.718 4.452-4.636 6.163-6.506 2.07-2.262 5.262-4.477 6.506-6.849-.498-.187-1.77.399-1.712-.343-.203-1.368 2.931-2.585 1.369-3.082-1.087.512-1.928,1.268-3.424,1.37zm-.684,9.929c-1.145,1.123-3.127,2.424-3.081,4.452 2.042.095 2.834-2.861 4.45-2.054-.726,2.812-4.346,2.729-5.135,5.478 1.038.869 2.711-1.952 3.766-1.026-1.168,3.169-5.946,2.727-6.847,6.163 1.737.049 3.35-2.405 4.108-.343-3.462,2.357-8.502,3.14-10.957,6.506 2.335.125 4.883-2.662 6.505-1.027-2.934,2.43-8.654,2.075-10.614,5.479 3.065-.476 5.773-3.126 8.56-2.739-3.012,3.493-10.005,3.006-12.327,7.189 2.976-.82 5.912-3.406 8.902-3.082-3.057,3.107-9.391,2.936-11.299,7.191 3.033-.768 6.961-4.521 9.586-3.425-3.438,3.181-10.335,2.903-11.641,8.219 2.335-1.321 5.177-3.951 7.875-3.768-1.582,3.217-8.751,3.437-8.218,7.19 1.196-.866 2.953-2.972 4.793-2.054-1.169,1.34-3.279,1.742-4.451,3.081 2.82.718 5.044,2.031 7.19,3.424 1.391-2.489 3.229-4.531 3.081-8.56 2.999-1.479 5.639-3.493 7.533-6.163 2.202-3.104 4.948-5.819 4.452-10.614-.473-.896-1.561-1.18-1.712-2.398 2.377-3.213 8.168-3.016 7.875-8.9 3.002-2.219 3.903-8.831 2.055-13.012-1.119,2.078-2.891,3.268-4.449,4.793zm-22.941,16.095c3.268,1.619 11.214-1.142 14.039-3.425 2.119-1.712 3.364-4.568 3.767-7.189-4.033,2.871-7.54,7.516-14.724,6.162-3.678-2.029-4.583-6.831-6.505-10.613-3.12,4.812-1.009,12.866 3.423,15.065zm54.098-13.696c-.326-.638 1.026-1.146 0-1.369-.1.209-.85,1.317 0,1.369zm-.684,5.477c1.061.344 1.329-1.822 2.054-.685-.471,1.314-1.868,1.913-.684,3.082-.855.972-1.987,1.664-2.055,3.424 1.665.251 1.986-2.13 3.424-1.027-.941,1.229-2.392,1.945-3.081,3.425 1.49.076 1.644-2.474 3.081-1.37-.38,2.479-4.357,3.169-3.768,5.478 .554-.393 1.086-1.345 1.712-.684-.69,1.817-2.811,2.209-3.08,4.451 .896.179 1.166-1.987 2.055-.686-.153,1.718-3.747,1.924-1.713,3.768-.812,1.47-2.696,1.868-3.767,3.081 2.063,4.672 3.194,10.272 4.793,15.409 5.574-1.991 12.839-.188 17.806,0-.493-.193-.835-.535-1.026-1.029 .363-2.499-.011-4.705-.686-7.19-1.009-3.723-3.98-6.965-3.767-9.587 .161-1.976 4.353-6.626 1.714-8.902 .453-.573.906-1.146.684-2.396-.694-2.439-2.612-3.71-2.739-5.821-1.201-.966-2.871-1.464-3.766-2.739-.805.109-1.286.541-2.398.344-1.217-1.51.218-4.54-.684-6.849h-1.027c-.913,2.28-1.901,4.488-3.082,6.503zm-14.038,4.794c-1.843-.339-3.138-2.739-4.794-2.738 2.05,2.972 3.115,6.927 5.479,9.587 4.818-.742 7.155-5.156 9.246-8.561 1.049-1.711 2.268-3.766 2.396-5.478-2.241,3.143-7.019,8.168-12.327,7.19zm26.022-2.738c1.66.427 2.187-1.41 1.37-2.397h-1.027c-.109.803-.541,1.284-.343,2.397zm-71.218-1.029c-.438-.018-.475-.439-1.028-.343-4.674,5.184-8.504,11.061-11.299,17.806-.913,2.203-2.323,4.426-2.055,6.848-1.955,2.497-2.858,6.043-3.082,10.272 4.068-2.562 11.693-4.013 17.805-2.396 .721-.763-.361-1.65 0-3.082 .721-1.791 1.007-4.016 2.397-5.137 1.623-7.393 7.277-10.756 11.299-15.751-7.106,2.752-14.172-.63-14.037-8.217zm73.958,4.11c.712-.884.292-2.827-.686-3.081-.81.852-1.003,2.999.686,3.081zm-21.229,6.163c-1.314.511-2.485,1.166-3.082,2.396 .993,2.204 2.194,4.198 3.082,6.506 2.139-.51 1.344-2.643 1.712-4.108 .911-3.61 3.123-7.36 3.082-11.642h-1.027c-.928,2.611-2.636,4.442-3.767,6.848zm21.914-3.081c.861-.143 1.116-2.642 0-2.74-.629.813-.883,1.968 0,2.74zm0,3.766c1.325.379 1.218-1.211 2.055-.343-.491,1.344-2.906,2.561-1.712,4.451 .716-.882 1.515-1.682 2.396-2.397-.57-1.826-.536-4.257-1.712-5.478-.883.717-1.255,1.942-1.027,3.767zm-48.963-2.741c-.284.969.482.888.342,1.713 1.062-.079 1.068-1.213 1.37-2.054-.825-.14-.744.626-1.712.341zm27.049,16.78c-.785-4.921-2.904-8.508-4.793-12.327-1.046.248-1.248-.35-2.055-.342 1.654,4.851 3.951,9.058 6.848,12.669zm24.653,6.847c.768.262 1.091-1.581 1.712-.343-.312,1.743-1.966,2.143-2.056,4.108 1.214.185.843-1.212 2.056-1.026-.975,1.547.854,1.998 0,3.424 .716.196.978.849 2.054.685-.743-8.729-2.367-16.577-3.423-24.994-1.901,2.093-4.232,3.756-5.137,6.847 2.451-.009 2.432-4.103 4.45-3.424-.833,2.134-2.855,3.079-3.423,5.478 2.194.021 2.633-3.521 4.109-3.079-.417,2.437-3.062,2.643-3.082,5.478 1.811-.138 2.468-3.229 3.766-2.739-.475,2.263-2.648,2.83-3.082,5.136 1.63.692 1.877-1.745 2.74-.685 .008,1.948-2.12,1.76-2.055,3.767 1.883-.059 1.626-2.256 3.425-2.396-.437,1.499-1.263,2.614-2.054,3.763zm-61.975-2.739c.307-.055.176-1.894-.342-.686-.087.205.14.721.342.686zm-31.842,7.534c-.688,1.561-.885,3.313 0,4.791 5.342-.518 10.325-3.514 15.75-3.082 2.286.185 4.705,1.072 6.163,2.056 1.616,1.09 2.261,3.723 4.793,3.766-.369-10.39-17.833-12.239-26.706-7.531zm99.294,3.423c1.073.41 1.58,1.388 2.398,2.055-.075-2.665-1.302-4.179-2.398-5.821-.102,1.856.472,2.277 0,3.766zm-6.504-.685c-5.469-1.325-21.582-1.98-24.31,1.711-.843,1.141-.715,2.328-.686,3.768 4.139,1.396 6.757-2.026 10.957-2.398 3.914-.345 8.291.636 11.983,1.371 3.364.669 7.257,3.415 9.93.684-1.083-1.972-4.211-4.25-7.874-5.136zm-77.04,1.711c-5.328-.688-10.262,1.516-13.354,2.74-1.132.447-2.799.626-3.082,1.711 5.131-.254 12.363-1.396 13.695,3.082-.191.493-.533.835-1.027,1.027-2.44-2.354-7.4-2.187-12.327-2.054 .376,2.659-2.234,4.064-2.396,7.189 2.141.666.147,2.998.342,4.793 1.063,3.89 7.055,6.352 11.983,4.11-.839-1.786-2.949-2.303-4.451-3.425-.346-1.794-.309-3.249 1.712-3.425 .787.812.538,2.659 2.397,2.398 .019-2.741 1.139-4.886 2.739-5.137 3.997-.628 6.195,6.687 6.848,10.271 1.866-.154 2.813.61 4.793.343 .518-2.148-1.656-3.197-2.396-4.451-.835-1.415-.902-3.182-2.055-4.451-1.687.089-3.329.132-3.082-1.712 4.05-3.62 5.496,2.86 7.19,5.137 .905,1.215 2.344,1.062 2.397,2.396 .209,1.275-.647,3.615 1.027,3.425 .106-1.701 2.009-1.079 2.739-1.369-1.351-.8.955-1.53 0-2.056-3.107-.886-3.25-4.739-5.135-6.848-1.688-.023-3.257-.167-3.425-1.712 .192-.493.535-.836 1.028-1.027 4.158.293 5.519,3.384 6.848,6.505 .854.632 2.727.242 3.082,1.37 .158,1.669-.358,4.011.342,5.137 2.242-.668 2.857-1.955 5.479-.686 .479-2.077-2.341-.854-2.397-2.396 .679-.648.167-1.618 0-2.398-1.463-.819-4.289-.275-5.136-1.711-.136-1.277 2.139-.145 2.397-1.028-.765-.947-2.431-.991-4.108-1.026-.248-1.511-.185-1.805-1.027-3.082-1.13-.765-3.829-.868-3.767-2.053 .043-.825 1.433-.02 1.37-1.37-1.388-.781-3.314-1.024-3.767-2.739 .6-1.156 2.634,1.108 2.739-.686-2.092-2.087-4.639-4.329-8.215-4.792zm84.915,11.985c-.852-.052-.101-1.159 0-1.37-.237-.675-1.91.086-2.054-.685-.393-1.077.538-.832.684-1.369h-2.054c-.349-.449-.335-1.262-.686-1.711-5.487-1.094-13.677-4.039-20.202-2.398-2.227.561-3.756,2.57-6.161,2.056-.638,2.558-1.648,4.742-4.451,5.135 .108.794-.057,1.315-.343,1.713 2.107,1.157 5.29-.564 6.848,0 .648-.384-.788-2.508.685-2.74 4.078.715 2.38,7.208 2.739,11.643 2.207-.268 3.372.508 5.479.343 .502-.499.502-2.241 0-2.739h-4.109c.076-.648-.386-.757-.343-1.371 .853-1.562 2.267-.454 4.108-1.027 .288-2.685-2.19-2.603-2.054-5.135 .343.001.407-.277.685-.343 3.896.899 3.622,5.966 4.451,9.929 1.242.331.287-1.537 1.369-1.369 .607.309 1.001.826 1.712,1.027-.049-.849-.063-1.661.685-1.711 .897,1.363 1.179-.424 2.397.341 .007-.807-.59-1.007-.343-2.053-1.531-.751-3.185-1.381-3.424-3.425-1.092-.506-2.521-.674-2.396-2.396 .497-.529 1.752-.302 2.739-.343 2.11,2.91 5.432,4.612 5.82,9.245 .195-1.567 1.381-.049 2.055-.342 .33-.144.253-2.274 1.37-1.027-.309-3.344-3.253-4.052-4.451-6.506 .267-.076.397-.288.341-.686 3.402.365 4.703,2.832 5.821,5.479 .965-.178 2.895.61 2.398-1.029-.86-.623-2.711-.257-2.74-1.711 .235-.68 2.041.214 1.712-1.028-.785-.926-3.479.057-3.424-1.711-.154-.954 1.865.269 1.712-.685-.946-.652-3.047-.149-3.424-1.37 .918-.336.354-2.154 1.026-2.739 2.266.82 3.923,4.064 5.823,4.108zm-36.636,9.928c3.376.233 9.096.321 9.929-3.081-1.298.186-1.103,1.864-2.739,1.712 .001-.344-.276-.406-.343-.684 .121-1.136 1.026-1.487 1.713-2.055-.21-1.144-1.005-1.17-.343-2.397-2.691-.277-6.051,1.829-7.533-.342-2.132,1.415-.822,4.107-.684,6.847zm-53.073-1.369c1.017,1.443 2.795,3.74 5.479,2.396-.827-3.054-1.301-6.459-4.452-7.19-.696,1.244-.834,3.046-1.027,4.794zm23.626-3.765c.549-.954-1.479-.947-1.37-.343 .596-.026 1.065.077 1.37.343zm-36.295,6.847c-.082-1.06-.953-1.33-1.369-2.055-.787.887-.04,2.317 1.369,2.055z" fill-rule="evenodd"/>
</svg>
