<?xml version="1.0" encoding="UTF-8"?>
<svg enable-background="new 0 0 122.418 334.39" viewBox="0 0 122.418 334.39" xmlns="http://www.w3.org/2000/svg" fill='#964b62'>
 <path d="m80.178,58.39c-1.265.065-1.337-1.063-2.399-1.2-1.471.369-1.879,1.801-2.4,3.12-3.53-2.122 4.955-8.202 4.799-1.92z" fill-rule="evenodd"/>
 <path d="m64.338,58.87c-.092,1.188-1.677.883-2.399,1.44-2.393,1.256-5.299,6.554-9.36,5.52-1.101-.28-2.52-1.697-1.92-3.36 1.984-.083 1.971,1.391 3.36,1.44 3.117.11 7.878-9.069 10.319-5.04z" fill-rule="evenodd"/>
 <path d="m79.699,61.99c-.627.6-2.377.363-3.12-.24 .384-.896 3.383-1.628 3.12.24z" fill-rule="evenodd"/>
 <path d="m78.499,66.07c-.357-1.072-.141-1.552.48-2.16 1.37.038 1.224,2.601-.48,2.16z" fill-rule="evenodd"/>
 <path d="m81.619,71.83c.032,1.243-1.301,1.146-1.92,1.68-.88.76-2.1,2.139-2.64,3.36-.563,1.274-.39,3.115-1.681,3.84-.842.119-1.562.358-2.64.24-1.247.07-1.127,2.113-2.4,1.44-.576-2.054 1.733-3.199 4.08-3.12 2.063-2.658 2.754-7.966 7.201-7.44z" fill-rule="evenodd"/>
 <path d="m86.659,79.75c-.477.675-2.97.824-3.12-.24 .192-1.755 2.998-1.291 3.12.24z" fill-rule="evenodd"/>
 <path d="m57.139,79.99c1.406.866.569,3.535.72,5.52 .111,1.47.317,3.297.96,4.32 1.126,1.794 3.815,1.523 3.6,4.08-2.099-.134-5.293-1.293-6-3.84-.421-1.52-.331-8.997.24-10.08h.48z" fill-rule="evenodd"/>
 <path d="m78.499,82.63c1.238,3.028-3.064,2.513-5.28,2.88-.629-.423-.629-1.737 0-2.16 1.07.13 2.164.236 3.12.48 1.23.109.994-1.246 2.16-1.2z" fill-rule="evenodd"/>
 <path d="m112.579,126.79c-1.44-.559-2.123-1.877-3.12-2.88-7.745-.734-4.904-12.055-9.84-15.6v-.72c.193-.127.39-.25.72-.24 4.213,2.143 3.297,7.125 4.8,11.28 1.023,2.828 2.952,2.98 5.04,3.84 .983.404 3.046,2.511 2.4,4.32z" fill-rule="evenodd"/>
 <path d="m80.178,164.95c.193.127.39.25.721.24 .97,1.958 1.156,4.983 1.439,7.2 .52,4.064.439,11.705 1.2,16.56-.921,2.57-.806,6.732-.96,9.36h-1.68c.921-10.154 1.168-22.944-1.2-32.4-.174-.655.477-.483.48-.96z" fill-rule="evenodd"/>
 <path d="m94.819,196.87c-2.792.34-1.87-1.889-2.16-3.36-.408-2.069-1.296-4.152-1.68-6.479-.238-1.443-.14-2.932-.48-4.32-.89-3.625-2.733-7.759-4.08-11.04-.039-.279.054-.427.24-.48 .214-.187.542-.258.96-.24 2.109,4.563 4.431,10.112 5.52,15.84 .35,1.836.445,3.501.961,5.28 .456,1.579 1.278,3.138.719,4.799z" fill-rule="evenodd"/>
 <path d="m43.938,316.87c1.237-2.895 4.052-4.932 4.32-8.4 .325-4.2-2.279-9.368-2.88-13.439-.659-4.465-1.697-8.965-2.88-12.48-1.371-1.749-2.404-3.836-3.6-5.76-.771-.147-.329.864-.96.24-.067-.975.088-.542.72-.48-.066-1.379-1.262-2.891-.48-4.319-1.013-.853-1.213-2.499-1.44-4.32-.088-.703-.048-1.469 0-1.92 .188-1.773 1.611-4.195 2.16-6.24 .303-1.13.12-2.283.48-3.359 .182-.544.792-1.077.96-1.681 .527-1.887.778-4.638.96-6.96 .139-1.787-.328-3.23-.48-4.8-.18-1.861.04-3.653-.24-5.28-.647-3.757-2.416-6.935-3.12-11.279-.117-1.274.849.796 1.2-.24 .888-.959-1.136-.46-1.44-.96-1.411-6.328-2.705-12.644-2.4-19.681-2.738-1.854-7.365-1.875-11.28-1.92-1.568,1.771-4.792.15-7.2,0 .027-1.652.934-2.425 1.44-3.6-2.834-1.641-6.794-.275-10.08-.96-.968-.201-2.034-1.195-2.88-1.44-.321-.093-.917.168-1.2,0-.747-.441-1.324-1.611-1.92-2.16 1.28-2.246 3.215-2.658 4.8-4.8 3.395-4.585 5.896-11.077 7.92-17.52 2.635-4.166 5.825-7.775 9.12-11.28-6.001-5.439-11.414-11.466-15.12-19.2-.555-.725-1.503-1.057-1.92-1.92-2.763-.356-4.744-1.496-6.48-2.88 .082-2.238-.209-4.85.24-6.72 3.494-4.827 7.005-9.635 11.28-13.68-.753-.375-1.56-.498-2.16-.96-2.058-1.586-1.174-3.735-1.68-6.96 2.239-2.335 5.626-3.152 8.4-4.8 2.133-1.267 4.445-2.577 6.48-4.08v-1.68c3.851-4.869 5.641-11.799 12.72-13.44 2.055-1.311 3.119-4.326 5.76-4.32-1.066-7.212-2.976-12.928-5.04-18.72-.563-1.58-1.354-3.38-2.16-4.8-.799-1.408-2.198-2.582-2.88-4.08-.756-1.661-.33-3.539-1.2-5.04 .854-4.186.521-9.559 1.92-13.2-.062-2.136.328-4.631.96-7.44 .773-3.433 2.288-7.175 2.4-10.56 .092-2.774-1.016-4.879-2.4-6.72-2.768-3.682-8.669-6.487-5.28-10.32 1.939-.938 4.524.512 6.72.96 1.788.365 4.541.212 6.48,1.2 1.458.743 3.005,2.424 4.8,3.6 1.722,1.127 3.583,2.092 5.28,3.12 1.785,1.082 3.665,2.15 5.28,3.12 2.451,1.47 4.15,2.706 5.76,4.32 .799.8 1.176,1.781 2.16,3.12 1.004,1.366 1.834,2.782 2.88,4.56 1.007,1.712 1.742,1.784 1.439,4.32 .945,1.665 2.7,2.699 4.32,4.08 1.485,1.267 2.407,2.925 3.84,4.32 .533.519 1.374.691 1.92,1.2 .683.636.985,1.778 1.681,2.4 .921.824 2.365,1.156 3.359,1.92 2.02,1.549 2.896,4.226 4.561,5.76 2.578,2.377 6.497,2.209 4.08,6.96-1.026,2.016-2.163,3.538-4.08,4.56-1.322,3.041-.836,5.58 1.68,6.96-.01,1.83-.964,2.716-.96,4.56 .369,1.231 2.241.959 2.64,2.16 .49,1.189.216,2.4.48,3.6 .178.805.741,1.469.72,2.16-.059,1.925-1.72,2.77-2.16,4.56 .596,1.404 1.141,2.86 1.92,4.08-.734,1.35-.314,3.231-.72,4.8-.271,1.047-1.473,1.803-.96,2.64 3.795.285 4.708,3.452 6.96,5.28-.13,1.589.976,3.187 1.2,5.04 .137,1.123-.116,2.324 0,3.36s.645,1.548.479,2.4c-2.613.571-1.565-1.898-1.68-3.12-.402-4.306-2.383-8.702-5.28-10.8-.429-.292-1.396-.044-1.68-.48-.567-.392-.765-1.155-1.68-1.2 .212-2.1 1.828-4.753 1.439-7.44-.205-1.424-1.854-2.677-.479-3.6-.254-.626-1.258-.502-1.44-1.2 .2-1.658 1.93-2.173 2.16-3.84 .211-1.523-.891-3.282-.72-5.28-1.121-1.759-4.384-1.376-5.521-3.12 .206-1.604 2.9-1.325 3.12-3.12 .161-1.315-2.043-2.777-2.16-4.8-.063-1.105.649-2.092.721-3.12 .04-.586-.43-1.115-.48-1.68-.192-2.155 1.17-4.526 0-6.24-5.772-2.937-9.696,3.113-14.399,4.32 1,1.665.069,5.672.239,9.36 .165,3.572-.372,4.83-3.12,6 .46,1.014 1.985.971 2.641,2.16 .756,1.373.753,3.532 0,5.04-1.552-.414-.657-2.411-1.2-3.6-.729-1.595-1.917-1.265-3.12-2.4-.464-.584.591-1.187.24-2.4 .706-.814 2.294-.746 3.12-1.44 .476-3.96.297-8.013.479-11.76-1.353.179-4.645,3.054-5.04,5.04-1.269,6.372-1.285,13.958-2.399,20.88-.452,2.809-1.055,3.456.479,6 .998,1.654 2.978,3.551 4.32,5.28 .219.281.727.349.96.72 .184.291 0,.886.24,1.2 .439.575 1.198,1.088 1.68,1.68 1.284,1.578 2.793,3.431 4.08,5.28 1.802,2.589 3.019,5.391 4.56,8.16 .877,1.574 2.252,2.517 2.4,5.04 4.511.956 7.439,1.935 10.08,4.8 .964,1.046 1.577,2.503 2.64,3.36 3.022-.223 2.812,2.788 6,2.4 .375.585.496,1.424.96,1.92 2.977-.038 4.027,3.94 6.96,2.4 .722-1.105-2.517-1.179-1.439-2.64 1.112-1.127 2.661.714 4.319.96 .511.076 1.501-.271 2.16-.24 .891.042 1.617.534 2.16.48 1.52-.15 3.186-1.246 3.601-2.88-1.372-.458-3.743.29-5.04-.72-.307-1.854 2.087-.936 3.6-.96 1.953-.031 4.217-.27 4.8,1.44-1.279,3.822-5.65,5.351-10.56,4.8-2.348,1.182-3.808,2.081-6,1.92-1.949-.144-2.522-1.527-3.84-2.4-.676-.448-1.789-.793-2.641-1.2-2.819-1.346-3.885-1.044-5.52,1.44-1.03.33-1.937.784-2.4,1.68 1.267,5.534 3.572,10.028 4.561,15.84-1.454,1.747-3.631,2.77-4.801,4.8-.349.451-1.57.029-1.92.48-.133,1.813.155,3.205.24,4.8 3.179.521 4.231,2.477 5.76,5.28 .716,1.312 1.314,2.812 1.92,3.84 .658,1.116 1.677,2.045 2.4,3.12 2.026,3.009 3.742,7.305 6.24,9.839 .408,2.132 2.668,3.876 3.6,6.96 .303,1.001.163,2.269.48,3.36 .513,1.763 1.339,3.198 2.399,5.04 .545.945 1.192,1.865 1.2,2.4 .032,2.338-2.87,4.019-5.52,2.88-3.007.674-5.527,1.833-7.2,3.84-4.802.672-10.873-.602-14.641.24 .937,10.537-3.665,19.475-6.479,27.84-.566.394-.684,1.236-1.2,1.68-.423,3.667.42,7.655-.72,10.561-.349.888-1.354,1.625-1.68,2.88-.55,2.111-.5,5.773-.48,8.399 .089,11.646 1.831,25.339 3.12,34.561 1.738,3.451 4.728,6.376 7.2,9.6 .786,1.025 2.286,2.153 1.92,4.08-2.144.118-3.247-2.814-5.04-3.84-.201-.278-.316-.644-.24-1.2-2.447-1.953-3.884-4.916-5.52-7.68-.157-5.609-1.877-10.311-2.16-16.561-.054-1.179.061-2.421 0-3.6-.085-1.647-.637-3.245-.721-4.8-.056-1.042.272-2.29.24-3.36-.083-2.816-.524-5.005-.479-8.399 .001-.068.389-.402.239-.721-.297-.636-.162-.462 0-1.68 .199-1.492-.21-3.784 0-5.04 .301-1.792 1.764-3.334 2.16-5.04 .649-2.792-1.279-8.68 1.681-10.56 2.501-8.61 5.538-15.235 6.96-24.96-.763-.595-3.164-.138-4.32-.24-1.059-.095-2.095-.669-3.84-.48-1.398.151-2.463,1.032-3.84,1.44-2.39.708-4.869.753-7.2,1.2-.366,4.513-.438,9.434-1.68,13.68-.58,1.982-1.075,5.374-1.681,7.92-.379,1.594-.764,3.223-1.2,4.8-.433,1.564-1.218,3.069-1.44,4.561-.489,3.284 1.394,7.359.24,10.56-.516,1.43-2.73,2.549-3.12,3.84-.186.617.068,1.516 0,2.16-.094.89-.569,1.668-.72,2.64-.988,6.366-.205,12.032 0,18.48 .063,2.004.525,4.038.48,5.76-.042,1.595-.583,2.869-.24,5.04 .139.876.522,1.987.72,2.88 .389,1.757.343,2.963 1.2,4.08 .164,2.24.478,4.435 1.2,6.72 .588,1.863.91,3.497 1.68,5.04 1.209,2.425 3.667,3.621 4.56,6 2.657.779 4.456,3.715 6.72,5.28 .47.325 1.189.341 1.68.72 1.244.961 2.138,2.659 3.601,3.36 .934.448 1.893.165 2.88.48 1.51.481 3.651,1.738 5.28,2.64 1.666.922 3.211,2.213 5.04,2.88 1.022,1.191 2.863,2.562 1.68,4.561-2.007-.008-3.339-1.382-5.28-1.44-.719-.021-1.432.315-2.16.24-3.389-.35-6.392-2.314-9.359-3.12-2.74.335-6.997-.678-9.84-.24-2.215-1.691-5.101-.932-7.2-2.16-.622-.363-1.25-1.224-1.92-1.68-.727-.495-1.483-.754-2.16-1.2-1.859-1.226-3.126-2.524-5.28-3.36-3.735.374-4.72-2.002-5.519-4.563zm40.32-270.72c-1.792-.607-2.737-2.062-4.56-2.64-4.53-5.87-11.231-9.568-14.88-16.32-.116-.756.736-.543.479-1.44-2.499-4.225-4.948-8.123-8.88-10.56-1.197-.743-2.633-1.167-3.84-1.92-1.126-.703-1.968-1.738-3.12-2.4-3.677-2.113-7.192-4.283-10.32-6.72-3.755-.405-6.74-1.58-10.08-2.4-1.434,2.046.881,3.48 2.4,5.04 1.163,1.195 2.367,2.278 3.12,3.36 .724,1.04 1.935,3.046 2.16,3.84 .625,2.207-.137,4.931-.48,6.24-.342,1.305-.217,2.893-.48,4.32-.465,2.528-1.46,5.082-1.92,7.68-.191,1.079-.058,2.196-.24,3.36-.78,4.981-2.005,10.448-1.68,14.16 .24,2.742 1.63,3.569 2.64,5.04 .662.964 1.115,2.271 1.68,3.6 .549,1.294 1.446,2.7 1.68,3.84 .402,1.962.716,2.286 1.2,3.6 .294.798.18,1.8.48,2.64 .336.941 1.182,1.713 1.44,2.64 .141.505-.08,1.188 0,1.68 .303,1.86 1.302,3.497 1.44,5.76 1.335-.35 2.046-1.717 3.6-1.68 1.659.04 4.587,2.192 4.32,3.84-1.745.997-3.153-1.699-4.8-1.68-1.089.012-1.89.753-2.64,1.92 1.778.446 4.539,1.981 3.36,3.84-1.63-.93-3.346-1.774-5.28-2.4-2.208,1.232-3.151,3.729-5.04,5.28-5.217.863-7.299,4.861-9.6,8.64 .581.759 1.51-1.047 1.92.24-1.152,3.728-4.62,5.14-7.2,7.44-.502.138-.685.595-1.44.48-2.205,2.995-7.592,2.808-9.6,6-.092,1.002-.054,2.578-.48,3.84 1.385.455 2.215,1.465 3.6,1.92 1.208-.952 3.283-1.037 3.84-2.64-1.621-2.054-5.859-.038-6.48-3.12 6.387-.701 10.829,2.606 14.16,5.76 4.259,1.818 9.03.571 14.64.24 4.021-.237 8.141.038 11.76.72 2.259.426 3.756,1.421 3.6,3.36-2.223.033-3.806-1.683-5.76-2.16-.712-.174-1.943-.38-2.88-.48-2.137-.228-4.302.434-5.76.48-.701.022-1.201-.311-1.92-.24-3.862.382-7.896,1.679-11.52,1.2-3.188-.421-5.068-2.641-7.2-4.56-1.413,0-2.227.933-3.36,1.68-1.067.704-2.421,1.161-3.36,1.92-.712.575-1.289,1.562-2.16,2.4-2.763,2.658-5.261,5.777-7.2,8.88-1.025,1.64-2.477,3.482-2.4,6 1.654,1.385 3.397,2.683 6,3.12 2.792,1.636 3.646,4.845 5.28,7.44 .442.702 1.12.992 1.68,1.68 .512.628.719,1.581 1.2,2.16 .442.532 1.219.916 1.68,1.44 1.625,1.845 2.966,3.757 5.04,5.04 .834,2.206 3.112,2.968 3.84,5.28 .335.332 2.979,1.009 2.4,0 .262-1.505-2.382.431-2.16-1.44 .72-2.24 2.212-3.708 4.32-4.56 1.5-2.98 5.16-3.8 6.48-6.96-.957-1.043-2.299-.922-3.36-1.68-1.909-1.364-2.125-3.93-3.84-5.52-.747-.348-3.182.549-3.36-.96 .318-2.322 3.489-1.791 4.32-3.6-3.098-1.699-8.273,2.451-10.32-.96 .298-.502.698-.902 1.2-1.2 2.511,1.704 5.666-.242 7.68-1.2 .734-.174.706.414 1.44.24 .158-.322.513-.447.96-.48 2.544-2.305 5.386-4.474 8.16-6.24 .997-.635 2.348-.902 3.12-1.92-.149-1.611-2.63-.89-2.16-3.12 2.535-.158 4.478,2.2 6,3.84-1.135,1.054-2.549.986-4.08,1.44-2.342.694-3.93,2.521-5.76,3.84-.97.699-2.021,1.174-2.88,1.92-.938.815-1.619,1.718-2.64,2.4 .746.214 1.038.882 1.2,1.68-.257,1.343-1.409,1.791-2.16,2.64 2.175.769 2.018,3.308 3.36,4.8 1.485,1.651 4.359,1.525 5.28,3.84-.249.614-.865,1.654-.24,2.4 .891.157 1.602-.292 2.64-.24 1.557.078 3.138,1.182 4.8.96 1.079-2.959-.944-6.055-.72-8.16 2.566-.391 2.12,1.987 2.4,3.6 .256,1.474.528,3.08 1.44,4.08 5.699.871 12.005,2.956 17.521,1.92 3.8,1.592 8.818-.206 11.52-1.92-.201-3.523-.658-6.975-.72-10.08 1.087.245.925,1.791 1.2,2.88 .299,1.182.835,2.516.96,3.84 .225,2.387.227,4.191 2.64,4.32 1.387.074 2.577-2.253 4.32-2.4 1.112-2.397.148-4.227-.24-6.72-.198-1.271-.991-3.366.72-3.84 .295,2 1.465,5.033 1.681,6.72 .272,2.139-.283,3.92-.48,5.52 .319.24.725.396.96.72 1.963-.677 3.052-2.228 4.32-3.6-1.311-2.743-1.233-5.914-2.16-9.12-.8-2.768-3.046-6.264-1.92-9.12 2.082,1.333 4.242-.901 4.8-2.64-4.111-3.088-6.467-7.933-12.72-8.88-.157,4.762-.546,9.611-.96,14.16-.069.755.115,1.708 0,2.16-1.005,3.917-3.268.271-4.561-.96-2.811-2.679-4.686-3.784-8.16-5.52-2.468-1.233-4.984-2.44-6.959-3.6-1.815-1.066-4.467-2.256-4.8-4.32 2.842.134 5.77,2.22 8.16,3.6 3.702.458 5.713,2.607 8.88,3.6 .565,1.272 2.047,1.884 3.12,2.88 1,.928 1.655,2.613 2.88,2.64 .176-4.656.877-9.476.96-13.68 .072-3.636-1.22-4.548-2.88-7.2-.883-1.41-1.402-3.099-2.16-4.32-.742-1.198-1.824-2.22-2.64-3.36-2.124-2.968-4.572-5.438-6-8.64-1.682-.94-2.237-3.335-3.36-4.56-.459-.5-1.193-.617-1.68-1.2-3.194-3.827-.159-8.069.24-13.92 .463-6.8 1.689-13.083 3.359-17.76 2.246-.435 3.759-2.583 5.761-3.84 .701-.441 1.541-.738 2.399-1.2 3.872-2.085 7.033-5.723 12.48-3.6 2.037,1.213 1.483,4.707 1.68,7.2 1.882-.758 2.502-2.778 3.12-4.8-2.271-2.049-5.812-2.828-6.48-6.48zm-1.439,4.32c-.082-.194-.638-.29-.72,0-.159.556.938.519.72,0zm-58.08,47.759c.377-.022.832.032.72-.48h-.48c0,.242-.195.286-.24.48zm-20.88,41.041c-.97-.844-.567.772 0,0zm33.599,12.48c-3.8,1.64-5.636,5.244-7.92,8.4 1.167,2.193 1.906,4.814 3.12,6.96-1.869.851-1.814,3.625-3.6,4.56 2.291.176 4.64-2.452 7.68-.96 .48-3.119 3.587-3.613 6-4.8 .349-3.183-.317-6.028 1.68-7.68-2.463-2.017-5.627-3.333-6.96-6.48zm9.121,4.8c.396,1.412-1.208,2.75-.96,4.8 1.46.885 3.146.346 4.8.48 2.854.231 5.873,1.038 8.16,1.2 1.015.072 1.922-.123 2.88,0 .904.116 1.739.612 2.641.72 3.488.418 6.794-.556 10.079-1.2-.64-2.24-.549-5.21-1.439-7.2-2.641.677-4.943.215-6.96,0-1.485-.158-3.066.381-4.56.24-.915-.087-1.775-.596-2.64-.72-.823-.118-1.82.083-2.64,0-2.807-.283-5.27-1.494-7.44-1.44-.783.02-1.418.435-2.16.48-2.396.147-4.019-1.136-6.24-1.68 1.15,2.449 3.899,3.299 6.479,4.32zm-1.44-3.841h.72c.031-.431-.239-.562-.72-.48v.48zm4.08-.239c.808.729.727-.887 0,0zm35.76,1.44c.413.84 1.112,3.23.239,3.84 1.502.032.647.939.96,2.16 .744.024 1.147-.293 1.681-.48-.65-2.48-.177-4.613-.721-7.2-1.516-.237-1.798.761-2.159,1.68zm-6.721.24c-.054-.187-.006-.474-.239-.48 .041.359-.086.885.239.96 .099-.302.31-.491.721-.48-.035.283-.428.544 0,.72 .401-1.196.632-.001 1.92-.48-.399-1.189-1.955-.949-2.641-.24zm-2.88,2.88c.13,2.596 1.496,4.655 2.641,5.52-.159-2.522-1.004-4.083-1.44-6-.105-.463.494-1.314-.479-1.44-1.272-.015-.764,1.064-.722,1.92zm2.161.48c.733.173.875-.246 1.44-.24 .252-.607-.81-1.063-.96-.48 1.199.544-1.43.425-.48.72zm3.36,2.4c-.147-.07-.924-.597-.96,0 .446-.23.802.718.96,0zm28.08,36c-.957-2.185-1.048-4.825-1.92-7.2-.192-.523-.69-.84-.96-1.439-.26-.577-.205-1.389-.48-1.92-.474-.915-1.355-1.771-1.92-2.641-1.93-2.976-3.537-5.738-5.521-8.4-.209-1.072-.966-2.187-1.68-3.36-1.309-2.15-3.568-8.358-5.28-9.36-3.084-1.807-5.134,1.324-7.92,2.4-2.046-.724-3.894.715-5.76.96-1.819-1.572-4.604.292-7.439.72-1.171.176-2.219-.609-3.12.24 .687,1.647 1.877,4.755 2.159,7.44 .176,1.667.858,4.76-1.68,4.32 .022-4.822-1.207-8.393-2.16-12.24-6.766-.085-12.842-1.425-19.92-1.92-.322,2.409-.479,4.024-2.4,4.8-.959.388-2.215.042-3.12.48-1.31.634-1.073,1.985-2.64,2.16 .202.916.388,1.799-.48,2.16-1.45.007-3.034-1.524-4.8-.72-1.18.537-.539,1.75-1.92,2.16-1.985-.095-2.594-1.566-3.12-3.12 .575-1.026 1.789-1.412 2.64-2.16 .77-2.274.431-3.297-.24-5.52-1.34.103-3.009.205-4.56-.48-1.872,1.329-3.521,2.879-4.32,5.28-.61.27-1.17.589-1.68.96-2.352,2.658-3.171,6.345-4.56,9.84-.208.523-.754.916-.96,1.439-1.161,2.96-1.697,5.713-3.12,7.92-1.598,2.478-4.044,4.209-5.28,6.72 3.275,2.113 8.547,1.7 13.2,1.921 .079-8.121 2.088-14.392 4.08-20.16 .631-1.828 1.235-3.402 2.16-5.04 .854-1.512 1.516-3.584 3.36-4.08-.301,2.365-2.202,3.968-3.12,6.24-.657,1.627-1.144,3.658-1.68,5.52-1.146,3.979-2.486,9.365-2.88,13.92-.123,1.422.187,2.892 0,4.32-.164,1.259-1.165,2.613-.96,3.84 4.894.711 11.881-1.555 16.08,1.2 .598-.202 1.286-.314 2.16-.24 6.931,3.3 16.36,2.27 24.959,3.36 5.396,6.137 14.545-2.182 22.08.479 .743-1.752 2.191-2.483 4.561-2.64 3.457-.228 8.296.237 11.52.24 1.33-.822 2.621-2.031 4.08-2.641 .325-.136.699-.393.96-.479 1.821-.609 4.072-.539 5.28-1.92 .047-1.225-1.172-2.201-1.679-3.359zm-28.08-33.12h.72c-.022-.377.032-.832-.48-.72 .01.33-.113.527-.24.72zm-3.12,0c-.655.175-.483-.477-.96-.48-.447.801.862,1.01.96.48zm-44.16,40.32c-.193,1.453 1.1.16 0,0zm2.64,2.399c.088,4.283.77,9.406 1.44,13.44 .475,2.86 1.832,5.56 2.4,8.4 .326,1.627.292,3.046.72,4.56 1.431,5.057 4.31,9.894 3.6,15.84-.247.714-1.55.37-1.68,1.2 .07,5.294-1.709,8.223-2.64,12.479-.6,2.742-.995,5.258-.48,7.44 .091.387.452.507.48.72 .04.305-.44.231-.48.48-.051.314.453.429.48.72 .122,1.298.011,2.365.24,3.12 .332.708 1.108.972 1.44,1.68-.315.745.065.686 0,1.681 2.341,2.929 3.41,6.619 4.32,10.8 1.481,6.804 2.663,12.792 3.84,19.439 .707,1.454 2.97,1.351 2.88,3.601-1.12.62-1.974-.833-3.36-.72-1.119,2.32-2.575,4.305-3.6,6.72 .504.695 1.465.934 1.68,1.92 1.764-.174 3.902.386 4.8.96 1.724,1.103 2.921,2.747 4.56,3.84 1.57,1.047 3.516,2.246 5.52,2.88 5.056,1.6 10.988.771 15.84,2.16 2.287.654 4.334,2.219 6.721,1.44 .819.38 2.074,1.335 3.12.72-.418-.739-1.903-1.489-2.4-1.92-.42-.364-1.388-1.056-1.68-1.2-1.091-.537-2.138-.526-2.881-.96-1.102-.644-2.525-1.095-4.079-.72-4.45-3.63-8.406-7.754-13.2-11.04-.233-1.866-1.787-2.677-2.64-4.08-1.412-2.322-2.363-4.872-3.12-7.681-.605-2.246-1.468-5.345-1.92-7.199-1.11-4.557-1.478-9.282-1.68-13.681-.07-1.529-.311-3.372-.24-4.8 .035-.712.504-1.428.48-2.16-.035-1.032-.451-1.912-.48-2.88-.068-2.276-.143-4.428 0-6.72 .11-1.771.658-3.812.96-5.76 .36-2.32.239-4.896.72-6.24 .418-1.169 2.024-1.547 2.4-2.88 .385-2.674-.146-5.534 0-7.68 .028-.415.432-.766.48-1.2 .071-.637-.326-1.164-.24-1.681 .239-1.433 1.06-2.86 1.44-4.319 .403-1.549.599-3.227.96-4.8 1.703-7.408 3.155-13.599 3.36-21.841-2.362-.037-3.071-1.729-4.56-2.64-8.744,1.138-16.409.281-23.28-2.16-.015.309-.309.336-.241.722zm3.36,70.561h.48v-.48h-.48v.48zm.72,1.439h.48v-.479h-.48v.479zm43.68,23.521c-.971-.844-.566.772 0,0z" fill-rule="evenodd"/>
 <path d="m59.059,255.669c.204-.044.227.094.24.24 .627,4.37 3.46,9.566 5.28,13.44 .552,1.174 1.556,2.404 1.92,3.6 .683,2.237.515,5.041.96,7.68 .406,2.407 1.05,4.956 1.2,7.2 .184,2.73-.285,5.581.24,8.4-.029,1.124-.35-.262-.96,0-.312,1.863-1.981,3.217-2.641,5.04-.396,1.097.073,2.653-1.199,3.359-1.976-1.078-.22-3.377.479-4.8 .792-1.611 1.604-3.439 2.16-4.8-.588-1.615.636-2.839.72-4.32 .115-2.029-.984-4.794-1.68-7.439-.692-2.633-.99-5.37-1.44-7.681-.208-1.066-1.109-2.089-.479-3.6-2.358-4.603-5.104-8.816-5.52-15.36 .324-.234.479-.638.72-.959z" fill-rule="evenodd"/>
 <path d="m114.019,313.27c-.582.912-2.729,1.184-3.601.96-.688-.048-1.31-.03-1.2.72-.771.211-.328-.791-.96-.72-.661.571-1.259.135-1.92.96-5.551-.685-10.598-.415-15.84-.721-1.582-.092-3.837-.132-5.76-.72-.8-.244-1.371-1.002-2.16-1.2-.946-.237-2.086-.048-3.12-.239-3.181-.589-6.343-2.19-8.88-2.4-2.485-.206-7.435,1.515-7.92-2.16 1.161-.671 2.354.355 3.36.48 2.304.286 4.667-.255 6.96,0 2.605.289 4.92,1.369 7.439,1.92 3.785.827 7.914,2.308 12.48,2.64 2.283.166 4.561-.311 6.96-.24 1.496.045 3.004.777 4.56.721 1.057-.039 1.781-1.094 3.12-.48-.608-.922-2.166-1.081-3.36-1.439-1.277-.384-2.623-.489-3.359-1.44-.988.188-1.231-.368-2.16-.24-.199-.385-.468-.397-.96-.72-1.181-.772-2.547-.938-4.08-1.68-1.169-.565-3.218-.68-5.04-1.44 .544-1.992 3.598-1.467 5.28-1.2 1.86.296 3.7,1.495 5.76,2.16 .578.187 1.279.033 1.92.24 .772.25 1.883,1.043 3.36.96 .848,2.585 5.007,1.134 7.439,2.4 .362.188.228.71.24.72 .535.409 1.823.535 1.442,2.158z" fill-rule="evenodd"/>
</svg>
