<svg width="36" height="37" viewBox="0 0 36 37" xmlns="http://www.w3.org/2000/svg">
<path d="M17.48 27.208L18.128 28.24L13.712 30.952C13.04 31.16 12.384 31.296 11.744 31.36C11.12 31.44 10.448 31.48 9.728 31.48C7.952 31.48 6.376 31.072 5 30.256C3.64 29.44 2.576 28.32 1.808 26.896C1.056 25.456 0.68 23.824 0.68 22C0.68 20.128 1.248 18.4 2.384 16.816C3.52 15.216 4.936 13.96 6.632 13.048C8.328 12.12 9.944 11.656 11.48 11.656C12.392 11.656 13.456 11.776 14.672 12.016C15.888 12.256 16.776 12.512 17.336 12.784V17.44H16.424C14.824 14.928 12.712 13.672 10.088 13.672C8.936 13.672 7.888 13.984 6.944 14.608C6 15.216 5.256 16.072 4.712 17.176C4.184 18.264 3.92 19.488 3.92 20.848C3.92 22.416 4.176 23.848 4.688 25.144C5.216 26.44 6.016 27.48 7.088 28.264C8.16 29.048 9.488 29.44 11.072 29.44C11.776 29.44 12.36 29.416 12.824 29.368C13.288 29.32 13.84 29.168 14.48 28.912V23.248L10.784 22.216L11.264 21.256H19.76V22L17.48 23.8V27.208Z" fill="white"/>
<path d="M18.52 27.208L17.872 28.24L22.288 30.952C22.96 31.16 23.616 31.296 24.256 31.36C24.88 31.44 25.552 31.48 26.272 31.48C28.048 31.48 29.624 31.072 31 30.256C32.36 29.44 33.424 28.32 34.192 26.896C34.944 25.456 35.32 23.824 35.32 22C35.32 20.128 34.752 18.4 33.616 16.816C32.48 15.216 31.064 13.96 29.368 13.048C27.672 12.12 26.056 11.656 24.52 11.656C23.608 11.656 22.544 11.776 21.328 12.016C20.112 12.256 19.224 12.512 18.664 12.784V17.44H19.576C21.176 14.928 23.288 13.672 25.912 13.672C27.064 13.672 28.112 13.984 29.056 14.608C30 15.216 30.744 16.072 31.288 17.176C31.816 18.264 32.08 19.488 32.08 20.848C32.08 22.416 31.824 23.848 31.312 25.144C30.784 26.44 29.984 27.48 28.912 28.264C27.84 29.048 26.512 29.44 24.928 29.44C24.224 29.44 23.64 29.416 23.176 29.368C22.712 29.32 22.16 29.168 21.52 28.912V23.248L25.216 22.216L24.736 21.256H16.24V22L18.52 23.8V27.208Z" fill="white"/>
<path d="M26.288 6.70399L25.568 6.94399L22.376 2.21599H19.448V18.176L21.968 19.04L21.488 20H14.192V19.256L16.448 17.48V2.21599H13.592L10.4 6.94399L9.68 6.70399V0.703995L10.976 1.13599H24.992L26.288 0.703995V6.70399Z" fill="white"/>
<path d="M9.712 30.296L10.432 30.056L13.624 34.784H16.552V18.824L14.032 17.96L14.512 17H21.808V17.744L19.552 19.52V34.784H22.408L25.6 30.056L26.32 30.296V36.296L25.024 35.864H11.008L9.712 36.296V30.296Z" fill="white"/>
</svg>
