<?xml version='1.0' encoding='utf-8'?>
<svg xmlns="http://www.w3.org/2000/svg"  enable-background="new -9.1534 -9.0475 436.82 431.8209" version="1.1" viewBox="-9.1534 -9.0475 436.82 431.8209">
	<g fill='#d63666'>
		<path d="m88.909 112.54c-2.6097-1.014-5.1666-2.223-7.6512-3.627-1.9827-1.473-3.6726-3.462-4.9512-5.814-0.3759-0.516-0.7359-1.05-1.0791-1.596-0.831-0.852-1.8633-1.368-2.9496-1.467-1.8306-0.135-3.6447-0.477-5.4222-1.02-2.8419-1.167-5.2782-3.453-6.9189-6.492-0.2883-0.447-0.7323-0.705-1.2012-0.696-4.5726 0.558-9.1242-1.308-12.469-5.121l-0.708-0.717c-0.2754-0.126-0.5859-0.075-0.825 0.135-3.1323 2.667-7.3605 2.43-10.274-0.579-1.1883-1.044-2.2383-2.295-3.1194-3.717-0.3564-0.477-0.8427-0.786-1.37-0.867-3.1254-0.327-5.9988-2.205-7.9324-5.193-1.0441-1.368-2.0191-2.814-2.9191-4.326-0.2227-0.348-0.511-0.624-0.8379-0.813l-0.4863-0.231c-0.2367-0.135-0.4688-0.285-0.6902-0.45-0.239-0.177-0.4664-0.369-0.6867-0.579-4.186-3.078-7.2481-7.968-8.5594-13.677-0.6715-1.707-1.0394-3.561-1.0816-5.448 0.0047-0.915-0.0164-1.827-0.0633-2.736 0.0762-1.008-0.368-1.971-1.1156-2.421-1.6629-1.365-3.0668-3.138-4.1215-5.205-0.7582-2.07-1.2539-4.269-1.4672-6.519 0.0198-2.43 0.0175-4.863-0.0095-7.296 0.723-3.675 1.7484-7.257 3.0586-10.683 1.6734-3.465 3.7852-6.582 6.2625-9.246 2.1879-1.938 4.6172-3.441 7.1977-4.452 2.4188-1.407 5.1223-1.95 7.7906-1.56 0.4465 0.156 0.7055 0.717 0.5859 1.26-1.3629 8.076 0.1266 16.476 4.111 23.166 1.3135 2.073 2.5756 4.2 3.7817 6.369 2.5911 2.556 5.2512 5.001 7.9794 7.341 1.8936 1.287 3.8496 2.439 5.8557 3.447 1.077 0.906 2.3121 1.491 3.6093 1.71 0.5508 0.213 1.0641 0.543 1.5201 0.972 0.171 0.132 0.3645 0.213 0.567 0.237 0.6903 0.264 1.3572 0.624 1.9875 1.065l0.8733 0.465 0.4476-0.015c1.9839 3e-3 3.9573 0.381 5.8464 1.119 3.2964 0.414 6.5943 0.792 9.8976 1.134 3.7653-0.087 7.5246-0.387 11.265-0.894 5.9742-0.777 11.985-1.029 17.988-0.756 2.3286 0.627 4.6944 1.029 7.0746 1.194 0.4347 6e-3 0.8496-0.225 1.1286-0.63 2.0871-2.493 4.4649-4.608 7.0581-6.273 3.8472-3.072 8.1564-5.199 12.682-6.264 1.1553-0.465 2.0271-1.626 2.3025-3.06 0.6471-1.923 1.6923-3.615 3.0351-4.905 1.9899-2.7 4.2693-5.064 6.7818-7.026 2.9133-2.481 6.0972-4.461 9.4605-5.88 3.225-0.978 6.5649-1.281 9.8742-0.894 2.277 0.081 4.5399 0.453 6.7524 1.116 0.4758 0.054 0.9516-0.072 1.3641-0.36 3.5379-2.244 7.1343-4.344 10.787-6.297 2.6694-0.999 5.3706-1.866 8.1-2.604 2.8242-0.534 5.7-0.582 8.5347-0.138 0.4524 0.129 0.9012 0.267 1.35 0.411 0.9435 0.354 1.5024 1.53 1.2798 2.694-0.5931 3.705 0.3 7.53 2.4081 10.311 1.5831 1.764 3.3867 3.21 5.3472 4.284 0.3669 0.249 0.6342 0.669 0.7359 1.164 0.1185 2.898 0.1149 5.805-0.0129 8.7 0.0645 0.729 0.231 1.437 0.4935 2.094 0.1524 0.345 0.2145 0.738 0.1806 1.125-0.0411 0.264-0.1947 0.477-0.402 0.561-0.6516 0.141-1.3185 0.069-1.9407-0.204-1.1706-0.291-2.2464-0.978-3.1077-1.977-1.7298-1.377-3.2532-3.096-4.5072-5.088-0.777-0.801-1.3299-1.875-1.5843-3.072-0.6153-3.078-1.7895-5.949-3.4383-8.409-1.6968-1.389-3.7605-1.962-5.7879-1.605-3.3141 0.663-6.5085 1.992-9.4581 3.936-2.5818 1.878-4.9536 4.152-7.0512 6.765-0.1863 0.237-0.4524 0.351-0.7173 0.309-1.644-0.336-3.2577-0.861-4.8198-1.566-4.0653-1.029-8.2863-0.624-12.168 1.167-3.2169 0.312-6.2343 1.998-8.5161 4.755-2.9694 2.793-5.2779 6.483-6.696 10.695-0.1407 0.357-0.3915 0.63-0.6996 0.762-2.5557 0.888-5.0532 2.001-7.4718 3.336-3.9447 2.148-7.698 4.773-11.204 7.839-3.0036 2.493-5.7915 5.346-8.3226 8.511-3.6306 4.191-6.4677 9.279-8.3133 14.922-0.0657 0.171-0.1956 0.291-0.3492 0.327-0.1512 0.036-0.3093-0.018-0.4218-0.147-0.1467-0.156-0.2592-0.351-0.327-0.57-0.6891-3.543-0.6105-7.239 0.2286-10.734 0.7065-3.321 1.6734-6.555 2.8863-9.654 0.0831-0.249 0.0726-0.528-0.027-0.768s-0.2835-0.414-0.498-0.48c-1.6278-0.138-3.2568 0.258-4.7169 1.149-4.302 1.626-8.1585 4.629-11.164 8.691-0.9174 1.254-1.6476 2.691-2.1633 4.245-0.1512 0.348-0.3657 0.651-0.627 0.882-0.1758 0.141-0.396 0.168-0.5859 0.063-0.1932-0.102-0.327-0.318-0.3561-0.567-0.0762-0.837 0.0162-1.683 0.2754-2.463 0.4149-1.98 1.1649-3.837 2.202-5.448 0.2178-0.873 0.4101-1.752 0.5811-2.64 0.0996-0.381 0.1806-0.768 0.2415-1.164 0.0222-0.186-0.027-0.375-0.129-0.513-0.1032-0.144-0.252-0.222-0.4077-0.219-0.3225-6e-3 -0.6423 0.063-0.9423 0.21-2.1315 0.804-4.104 2.127-5.7984 3.885-1.5189 1.197-2.8863 2.655-4.0581 4.326-1.9479 3.024-3.4254 6.444-4.3653 10.104-0.0609 0.201-0.1605 0.375-0.2931 0.516-0.0996 0.096-0.2391 0.108-0.3492 0.027-0.1581-0.138-0.2823-0.324-0.3633-0.54-0.8694-3.942-0.552-8.127 0.8931-11.811 0.6186-1.362 1.146-2.781 1.5774-4.245 0.09-0.327 0.1371-0.666 0.1392-1.008-0.0561-0.378-0.3492-0.636-0.6609-0.588-0.3867 0.066-0.765 0.186-1.1238 0.366-2.6367 0.861-5.0319 2.565-6.9327 4.935-1.5165 1.371-2.7246 3.18-3.5157 5.259-0.123 0.255-0.3153 0.447-0.5448 0.537-0.1266 0.036-0.2592-0.021-0.3399-0.144-0.0972-0.153-0.1536-0.339-0.1653-0.531-0.1032-3.342 0.6222-6.648 2.0778-9.492 0.2508-0.678 0.5319-1.341 0.8415-1.986 0.09-0.189 0.1416-0.402 0.1488-0.618-0.0024-0.066-0.0141-0.126-0.0387-0.183-0.0294-0.072-0.0705-0.138-0.1197-0.192-0.3762-0.354-0.8589-0.486-1.3254-0.363-4.8762 0.87-9.273 4.026-12.241 8.787-0.1851 0.414-0.3927 0.816-0.6225 1.2-0.1392 0.228-0.3867 0.318-0.6081 0.222-0.2202-0.099-0.3609-0.36-0.3444-0.645 0.0045-0.456 0.0492-0.909 0.1242-1.353 0.6057-3.72 1.8831-7.23 3.7359-10.284 0.4419-0.747 0.9129-1.464 1.4109-2.151 0.1464-0.198 0.2097-0.465 0.171-0.723-0.0363-0.261-0.1734-0.486-0.369-0.606-0.3585-0.186-0.7464-0.261-1.1343-0.219-4.6935-0.219-9.1875 2.298-12.086 6.771-0.1779 0.273-0.4242 0.468-0.7053 0.552-0.2274 0.036-0.4443-0.135-0.5097-0.396-0.0564-0.219-0.0669-0.45-0.0294-0.672 0.5907-2.703 1.6641-5.214 3.1464-7.359 0.1197-0.195 0.1899-0.426 0.2076-0.669-0.0177-0.399-0.2907-0.717-0.6225-0.717-2.4339 0.291-4.8513 0.744-7.2432 1.359l-0.5226 0.096c-0.0903-0.012-0.1734-0.069-0.225-0.159-0.054-0.09-0.0705-0.201-0.0492-0.306 0.0315-0.198 0.1029-0.384 0.2109-0.54 0.7758-1.293 1.7424-2.403 2.8512-3.273 0.1533-0.141 0.2799-0.321 0.369-0.525 0.0657-0.171 0.0633-0.366-0.0129-0.531-0.1533-0.324-0.3831-0.588-0.6585-0.756-1.6899-0.657-3.4722-0.903-5.2418-0.723-0.9598 0-1.9219-0.033-2.8816-0.096-0.1606-0.021-0.3117-0.102-0.4395-0.225-0.1043-0.102-0.1558-0.264-0.1359-0.426 0.0363-0.201 0.1196-0.39 0.2367-0.54 0.7887-0.855 1.4836-1.833 2.0625-2.907 0.2121-0.393 0.4078-0.798 0.5883-1.212 0.1512-0.417 0.0633-0.906-0.2168-1.209-2.2981-2.004-4.2504-4.53-5.7492-7.437-1.609-2.463-2.8769-5.223-3.7535-8.178-0.5684-3.189-0.9692-6.42-1.1953-9.675-0.0269-0.234-0.1078-0.453-0.2344-0.636-0.1196-0.132-0.2789-0.198-0.4395-0.18-0.3469 0.048-0.682 0.189-0.9773 0.411-2.4844 1.623-4.5973 3.969-6.1394 6.831-3.4207 4.785-4.868 11.184-3.9363 17.412 0.1687 1.542 0.464 3.06 0.8824 4.533l0.1945 0.48c0.0856 0.105 0.2051 0.159 0.3269 0.15 0.3985-0.102 0.7031-0.492 0.7641-0.981 0.3867-4.134 1.4648-8.136 3.1699-11.754 0.9563-1.128 1.957-2.199 2.9977-3.213 0.2777-0.225 0.6422-0.204 0.9012 0.048 2.8711 3.162 5.1516 7.029 6.6891 11.343 0.068 0.3-0.0152 0.621-0.2144 0.819-0.3399 0.363-0.7055 0.696-1.0922 0.987-2.8781 3.411-4.6066 7.992-4.848 12.855-0.1735 2.694 0.2027 5.394 1.0957 7.866 0.0926 0.192 0.2273 0.345 0.3891 0.447 0.1219 0.081 0.2684 0.069 0.3809-0.03 0.1172-0.123 0.2098-0.282 0.2684-0.459 0.7711-2.868 2.0262-5.511 3.6809-7.767 1.2891-1.188 2.6566-2.247 4.0852-3.174 0.8344-0.231 1.7039-0.231 2.5418 0 0.2238 0.063 0.4195 0.24 0.532 0.483 0.1148 0.243 0.1394 0.534 0.0656 0.801-0.2906 0.81-0.6246 1.599-0.9984 2.355-1.0031 4.326-1.1086 8.886-0.3082 13.269 0.0586 0.291 0.2613 0.504 0.5086 0.534 0.2437 0.027 0.4758-0.138 0.5789-0.408 0.4395-1.182 0.8391-2.382 1.2058-3.6 0.7467-1.509 1.7403-2.823 2.9193-3.858 0.1617-0.132 0.3516-0.207 0.5496-0.213 0.1593 0.012 0.3057 0.102 0.4077 0.252 0.0996 0.15 0.1443 0.345 0.1242 0.534-0.0291 0.243-0.0924 0.477-0.1896 0.693-1.6068 3.618-2.1858 7.773-1.6536 11.829 0.5565 3.075 1.6851 5.955 3.294 8.427 0.1782 0.246 0.4266 0.396 0.6951 0.42 0.2271-6e-3 0.4206-0.201 0.4686-0.468 0.0645-0.441 0.0693-0.891 0.0177-1.335-0.0072-4.104 1.1085-8.097 3.171-11.355 0.9867-1.674 2.2665-3.06 3.75-4.062 0.1464-0.075 0.306-0.108 0.4665-0.093 0.1641 0.045 0.3081 0.165 0.396 0.339 0.0903 0.171 0.1173 0.381 0.0774 0.579-0.6318 3.186-0.6681 6.504-0.1089 9.711 0.4146 1.041 0.8859 2.052 1.4061 3.024 0.1149 0.186 0.2661 0.33 0.4419 0.423 0.1218 0.069 0.2658 0.054 0.3762-0.042 0.1137-0.126 0.2073-0.282 0.2682-0.456 0.9963-2.478 2.1318-4.866 3.3984-7.158 0.7689-0.936 1.6092-1.782 2.5113-2.526 0.7116-0.306 1.4685-0.42 2.2197-0.339 0.2295-6e-3 0.4593 0.015 0.6867 0.063 0.327 0.078 0.5565 0.435 0.5391 0.837-0.0972 1.023-0.3294 2.016-0.6879 2.949-1.1625 3.834-0.6552 8.118 1.3545 11.4 0.2826 0.504 0.6375 0.948 1.0479 1.305 0.075 0.051 0.1605 0.078 0.246 0.078 0.0807 0 0.1581-0.03 0.225-0.081 0.1464-0.111 0.2508-0.282 0.2952-0.483 0.102-0.447 0.1806-0.903 0.2367-1.365 0.2838-1.806 0.9717-3.486 1.9923-4.854 0.9738-2.139 2.373-3.954 4.0677-5.28 0.2073-0.156 0.4779-0.087 0.615 0.159 0.1629 0.27 0.2286 0.612 0.1782 0.942-0.669 4.491-0.4008 9.111 0.7806 13.44 1.0746 2.403 2.6904 4.389 4.6605 5.724 0.198 0.084 0.4182 0.051 0.5919-0.093 0.1734-0.144 0.2775-0.378 0.2823-0.63 0.0399-0.423 0.0246-0.849-0.0435-1.266 0.027-3.207 0.6834-6.363 1.9113-9.204 0.7032-2.451 2.2149-4.44 4.1733-5.496 0.1488-0.054 0.3093-0.045 0.4557 0.024 0.1197 0.072 0.1911 0.225 0.183 0.387-0.0564 0.825-0.2556 1.626-0.5838 2.352-2.0895 7.8-0.2214 16.362 4.7838 21.897 0.615 0.606 1.323 1.056 2.0871 1.323 0.273 0.096 0.5682 0.039 0.8049-0.159 0.2343-0.198 0.3843-0.513 0.4056-0.858 0.2613-3.885 1.0089-7.704 2.2101-11.322 0.9198-2.301 2.2428-4.332 3.8742-5.958 0.3177-0.375 0.696-0.666 1.1109-0.855 0.0585-0.018 0.1197-0.012 0.1758 0.015 0.0492 0.024 0.0903 0.069 0.1149 0.126 0.129 0.423 0.1242 0.882-0.0105 1.299-0.981 3.108-1.4028 6.435-1.2447 9.753 0.1242 4.323 0.9282 8.577 2.3685 12.537 0.6831 1.824 1.3992 3.633 2.1456 5.424 2.4246 4.437 4.0359 9.4536 4.7214 14.709 0.108 1.4403 0.0366 2.8923-0.2097 4.3068-0.1194 0.5145-0.4077 0.9468-0.7956 1.2012-0.171 0.0912-0.3738 0.0339-0.4935-0.1419-0.4569-0.7935-0.75-1.7028-0.8613-2.6589-1.2726-5.2185-4.2996-9.5484-8.3403-11.932-0.7377-0.36-1.4922-0.66-2.2611-0.897"/>
		<path d="m319.03 112.32c1.542-2.913 2.808-6.03 3.762-9.291 1.344-4.521 1.794-9.36 1.314-14.133 0.153-1.827-0.135-3.669-0.828-5.307-0.081-0.186-0.114-0.396-0.096-0.606 0.027-0.138 0.12-0.249 0.234-0.279h0.201c0.351 0.054 0.669 0.258 0.906 0.573 4.05 4.53 6.351 10.905 6.339 17.58 0.045 0.375 0.162 0.729 0.345 1.032 0.147 0.195 0.381 0.261 0.585 0.162 0.894-0.471 1.704-1.146 2.385-1.986 2.589-2.556 4.347-6.138 4.968-10.11 1.098-3.903 0.918-8.172-0.51-11.919-0.099-0.432-0.147-0.879-0.153-1.329-9e-3 -0.174 0.03-0.345 0.111-0.486l0.15-0.114c0.18-0.024 0.363 0.015 0.525 0.108 2.049 1.509 3.549 3.9 4.203 6.693 1.26 2.775 1.764 5.958 1.44 9.099-9e-3 0.54 0.306 1.008 0.747 1.113 0.186-0.012 0.369-0.087 0.519-0.222 2.373-2.022 4.086-4.983 4.848-8.367 0.816-3.351 0.891-6.903 0.216-10.299-0.069-0.375-0.03-0.768 0.111-1.11 0.075-0.171 0.207-0.297 0.363-0.348 0.153-0.051 0.318-0.021 0.456 0.078 1.698 1.542 3.102 3.504 4.119 5.757 1.023 1.839 1.686 3.939 1.938 6.135 0.018 0.249 0.132 0.471 0.306 0.603 0.312 0.126 0.654 0.024 0.882-0.261 0.501-0.666 0.951-1.386 1.35-2.142 1.086-2.133 1.599-4.623 1.458-7.125-0.048-1.959-0.444-3.885-1.164-5.646-0.108-0.312-0.048-0.669 0.153-0.906 0.513-0.471 1.182-0.627 1.806-0.414 0.816-0.027 1.608 0.339 2.202 1.02 2.1 1.848 3.609 4.521 4.266 7.566 0.24 0.651 0.492 1.293 0.765 1.926 0.129 0.255 0.336 0.426 0.579 0.477 0.045 3e-3 0.096-6e-3 0.138-0.027 0.066-0.03 0.123-0.072 0.174-0.126 0.117-0.108 0.207-0.249 0.27-0.411 0.66-1.311 1.308-2.634 1.938-3.969l0.333-1.125-0.03-0.534c0.282-2.187 0.033-4.425-0.723-6.441-0.123-0.363-0.159-0.756-0.102-1.14 0.015-0.159 0.087-0.3 0.192-0.393 0.108-0.093 0.237-0.129 0.369-0.096 0.318 0.123 0.615 0.321 0.87 0.579 1.476 0.861 2.619 2.382 3.183 4.245 0.813 1.269 1.416 2.715 1.776 4.257 0.117 0.393 0.318 0.741 0.576 1.011l0.189 0.234c0.102 0.183 0.174 0.396 0.201 0.615 0.321 1.995 0.39 4.035 0.201 6.054-9e-3 0.174 0.018 0.348 0.087 0.501 0.063 0.126 0.177 0.195 0.297 0.183 0.159-0.018 0.312-0.105 0.429-0.243 0.606-0.885 1.149-1.833 1.626-2.829 2.244-4.611 2.721-10.176 1.308-15.246-0.066-0.888-0.24-1.758-0.513-2.586-0.066-0.222-0.093-0.456-0.084-0.693-9e-3 -0.258 0.147-0.48 0.36-0.513 0.291 0.024 0.564 0.162 0.783 0.393 1.941 1.779 3.363 4.254 4.065 7.071 0.069 0.24 0.177 0.456 0.321 0.636 0.09 0.126 0.225 0.189 0.363 0.18 0.135-0.012 0.261-0.099 0.339-0.237 0.153-0.324 0.237-0.69 0.246-1.065 0.393-2.481 0.549-5.007 0.468-7.533-0.369-2.547-0.921-5.052-1.656-7.485-0.042-0.201-0.042-0.411-3e-3 -0.615 0.051-0.15 0.156-0.264 0.285-0.306 0.3-0.105 0.612-0.138 0.924-0.099 1.482-0.249 2.979 0.354 4.041 1.626 2.568 2.16 4.41 5.361 5.187 9.027 0.132 0.342 0.273 0.684 0.423 1.017 0.045 0.078 0.114 0.129 0.192 0.147 0.078 0.012 0.159-0.012 0.222-0.069 0.516-0.552 0.825-1.335 0.846-2.172 0.156-1.125 0.447-2.217 0.864-3.24 0.3-2.019 0.102-4.098-0.573-5.982-0.315-4.179-2.073-8.004-4.848-10.524-0.348-0.354-0.531-0.9-0.48-1.449 0.375-1.845 1.149-3.534 2.244-4.896 1.374-2.043 2.799-4.032 4.272-5.973 0.171-0.18 0.369-0.321 0.585-0.414 0.156-0.051 0.324-0.018 0.459 0.096 2.361 1.971 3.945 5.034 4.383 8.469 0.657 2.268 1.26 4.56 1.812 6.87 0.039 0.198 0.12 0.384 0.243 0.525 0.087 0.099 0.219 0.114 0.321 0.036 0.135-0.15 0.237-0.339 0.297-0.552 2.646-7.941 1.239-17.019-3.6-23.265-1.29-2.397-3.054-4.362-5.136-5.718-0.252-0.144-0.549-0.138-0.795 0.024-0.243 0.219-0.396 0.555-0.42 0.921-0.345 7.47-2.853 14.559-7.083 20.013-1.065 1.779-2.352 3.348-3.816 4.644-0.432 0.402-0.525 1.143-0.21 1.68 0.774 1.266 1.524 2.553 2.253 3.855 0.099 0.201 0.156 0.429 0.162 0.663 3e-3 0.165-0.069 0.315-0.186 0.396-0.159 0.078-0.336 0.105-0.507 0.084-2.49-0.042-4.977 0.042-7.464 0.249-0.345 0.078-0.678 0.222-0.984 0.429-0.201 0.15-0.333 0.402-0.363 0.681-0.03 0.282 0.045 0.564 0.201 0.771 0.312 0.348 0.654 0.648 1.023 0.9 0.51 0.588 0.984 1.221 1.419 1.896 0.219 0.273 0.426 0.558 0.621 0.852 0.129 0.171 0.21 0.384 0.231 0.612 6e-3 0.174-0.069 0.333-0.192 0.411-0.147 0.087-0.312 0.108-0.471 0.063-0.387-0.111-0.759-0.279-1.11-0.504-2.124-0.864-4.347-1.32-6.585-1.344-0.225 0-0.432 0.144-0.546 0.381-0.093 0.294-0.078 0.624 0.042 0.903 0.969 1.908 1.914 3.837 2.832 5.787 0.261 0.693 0.468 1.419 0.609 2.16l0.03 0.288c-0.018 0.264-0.207 0.462-0.426 0.447-0.288-0.012-0.561-0.168-0.75-0.435-1.725-2.874-4.128-5.049-6.891-6.243-2.067-0.915-4.269-1.278-6.462-1.071-0.228 0.066-0.414 0.273-0.486 0.546-0.069 0.276-0.012 0.576 0.147 0.786 0.657 0.72 1.218 1.557 1.665 2.481 1.659 3.135 2.835 6.609 3.471 10.251 0.06 0.381 0.084 0.771 0.072 1.158-0.012 0.276-0.168 0.513-0.381 0.597-0.222 0.081-0.459-9e-3 -0.597-0.228-0.141-0.141-0.249-0.321-0.312-0.531-0.771-1.953-1.959-3.621-3.444-4.833-2.772-2.475-5.967-4.176-9.348-4.983-0.297-0.045-0.594-0.027-0.882 0.048-0.171 0.066-0.306 0.21-0.384 0.405-0.075 0.192-0.078 0.411-0.015 0.609 0.282 0.837 0.651 1.623 1.101 2.343 1.221 3.033 1.911 6.33 2.034 9.699-6e-3 0.219-0.069 0.432-0.18 0.606-0.141 0.195-0.381 0.234-0.561 0.096l-0.171-0.186c-0.138-0.144-0.243-0.333-0.309-0.54-0.801-2.133-1.98-4.029-3.45-5.553-2.088-2.502-4.659-4.332-7.479-5.322-0.165-0.042-0.33-0.042-0.498-6e-3 -0.195 0.069-0.3419 0.264-0.378 0.507-0.144 0.813-0.015 1.662 0.366 2.358 1.812 4.155 2.487 8.904 1.92 13.554-0.024 0.297-0.066 0.597-0.123 0.888-0.057 0.306-0.225 0.564-0.456 0.705-0.15 0.06-0.315 0.033-0.444-0.069-0.282-0.27-0.474-0.657-0.537-1.089-0.9-5.202-3.282-9.852-6.732-13.14-2.052-2.274-4.47-4.005-7.098-5.085-0.171-0.06-0.354-0.051-0.522 0.03-0.123 0.096-0.21 0.249-0.234 0.423-0.033 0.222-0.027 0.45 0.021 0.669 0.99 3.135 1.815 6.342 2.466 9.606 0.156 0.531 0.201 1.101 0.135 1.662l-0.063 0.279c-0.048 0.114-0.135 0.201-0.24 0.231s-0.213 0-0.3-0.078c-0.168-0.159-0.309-0.357-0.417-0.582-1.335-3.375-3.36-6.285-5.883-8.448-3.225-2.952-6.891-5.121-10.797-6.381-0.543-0.063-1.095-0.03-1.638 0.09-0.231 0.051-0.414 0.282-0.444 0.567 0.033 0.864 0.258 1.701 0.651 2.421 1.995 5.442 2.781 11.418 2.283 17.343-0.078 0.465-0.186 0.921-0.321 1.368-0.051 0.186-0.159 0.345-0.303 0.444-0.114 0.075-0.258 0.066-0.369-0.021-0.12-0.111-0.213-0.258-0.27-0.426-2.502-7.272-6.369-13.74-11.298-18.888-5.6541-6.033-12.022-11.01-18.889-14.769-1.5891-0.33-3.1056-1.05-4.458-2.115-0.2589-0.264-0.4662-0.597-0.6069-0.966l-0.1689-0.555c-0.6327-1.203-1.2093-2.451-1.7214-3.735l-0.2916-0.855-0.2508-0.297c-2.5923-3.906-5.8863-7.05-9.6342-9.189-2.8335-0.894-5.6754-1.761-8.5194-2.607-3.4947-0.558-7.0476-0.045-10.335 1.488-0.573 0.228-1.2024 0.108-1.6842-0.327-4.3557-5.7-10.069-9.618-16.348-11.211-3.2601-0.867-6.5661 1.227-7.8351 4.962-0.7839 3.723-2.3685 7.131-4.5891 9.876-1.9149 2.886-4.7403 4.668-7.7895 4.917-0.2238-0.015-0.4452-0.072-0.6537-0.168-0.2463-0.147-0.3879-0.468-0.354-0.795 0.1569-0.792 0.2919-1.587 0.4044-2.388-0.0141-2.91 0.1008-5.814 0.342-8.709 0.081-0.825 0.5298-1.527 1.1697-1.833 4.5408-1.365 7.8222-6.138 8.1081-11.79-0.1746-1.074-0.2238-2.172-0.1488-3.261 0.1347-0.9 0.7194-1.605 1.4673-1.758 3.7476-0.801 7.5948-0.582 11.263 0.642 5.9157 1.689 11.544 4.608 16.635 8.628 0.3033 0.162 0.6057 0.321 0.9093 0.483 0.1992 0.105 0.4113 0.174 0.6294 0.204 0.2388 0.03 0.4815 0.021 0.717-0.027 3.858-0.81 7.7814-1.053 11.685-0.729 5.4717 1.164 10.599 4.02 14.887 8.292 3.2238 2.856 6.0081 6.378 8.2242 10.404 0.2133 0.531 0.4194 1.068 0.6198 1.608 1.2939 1.824 3.0948 3.015 5.0637 3.342 5.5194 2.484 10.626 6.15 15.075 10.815 1.032 1.527 2.688 2.22 4.278 1.791 6.573-1.125 13.245-1.107 19.815 0.048 3.876 0.819 7.776 1.452 11.691 1.899 3.612 0.201 7.233-0.069 10.8-0.798 3.498-0.429 6.96-1.221 10.347-2.367 2.997-0.765 5.88-2.061 8.565-3.846 5.862-2.913 10.971-7.674 14.796-13.788 4.011-5.712 6.183-12.99 6.114-20.487-0.255-1.56-0.375-3.147-0.36-4.734 0.03-0.318 0.198-0.594 0.438-0.723 0.354-0.126 0.72-0.18 1.089-0.156 3.405 0.228 6.738 1.287 9.801 3.114 1.515 1.632 3.108 3.162 4.761 4.584 3.09 3.447 5.391 7.803 6.672 12.642 2.199 5.823 2.466 12.441 0.747 18.492-0.699 2.22-1.929 4.131-3.537 5.496-0.72 0.933-1.557 1.725-2.475 2.355-0.264 0.231-0.435 0.588-0.471 0.981 0.039 2.352-0.21 4.701-0.75 6.966-1.377 4.347-3.345 8.385-5.823 11.952-1.53 1.836-3.336 3.294-5.322 4.302-0.285 0.144-0.534 0.372-0.723 0.66l-0.3 0.546c-1.854 3.198-4.302 5.826-7.146 7.668-1.512 0.552-3.063 0.936-4.632 1.152-0.147 0.036-0.276 0.141-0.36 0.291-0.171 0.366-0.357 0.723-0.549 1.071-2.391 3.768-6.288 5.658-10.17 4.926-0.927-0.459-1.824-1.002-2.685-1.623-0.21-0.126-0.435-0.207-0.666-0.237-0.192-9e-3 -0.384 0.06-0.54 0.195-2.652 2.991-6.021 4.884-9.621 5.397-1.167 0.057-2.331-0.072-3.468-0.387-0.315-0.033-0.63 0.09-0.87 0.342-1.485 2.226-3.225 4.191-5.163 5.835-2.541 1.32-5.271 2.025-8.037 2.067-1.698 0.099-3.213 1.32-3.945 3.18-1.404 2.463-3.315 4.44-5.541 5.736-2.907 1.4487-5.907 2.5911-8.976 3.4161-1.494 0.9681-2.97 1.9842-4.422 3.0471-2.181 3.3186-3.9 7.0416-5.097 11.028-0.087 0.2052-0.222 0.375-0.39 0.4875-0.123 0.0669-0.264 0.0516-0.375-0.0363-0.231-0.2121-0.402-0.5085-0.486-0.8472-0.735-3.2928-0.339-6.8085 1.098-9.7464 0.864-2.9778 1.89-5.8806 3.081-8.6901"/>
		<path d="m110.99 116.85c2.9508-0.8883 6.0375-0.8754 8.9811 0.0387 2.2584 0.369 4.4121 1.3779 6.2871 2.9448 0.3972 0.2181 0.7665 0.5073 1.0911 0.8625 0.1899 0.219 0.2544 0.5577 0.1617 0.8556-0.0738 0.1593-0.2028 0.2682-0.3516 0.2928-0.3222 0.0153-0.6423-0.0657-0.9339-0.2367-3.7008-1.2444-7.6359-1.0182-11.223 0.6456-1.4673 0.7854-2.8242 1.8447-4.0209 3.1383-0.3408 0.4713-0.6105 1.0149-0.7908 1.6032-0.8298 1.404-1.1028 3.1806-0.7467 4.8528 0.0681 0.2601 0.0903 0.5319 0.0705 0.8028-0.0165 0.2541-0.1782 0.4605-0.3855 0.4932-0.4125 0.1161-0.8427-0.069-1.1016-0.4722-2.7117-3.6435-3.2931-8.9274-1.4649-13.303 1.2234-1.3758 2.7714-2.2569 4.4274-2.5182"/>
		<path d="m296.38 123.72c-2.2233-0.3987-4.4871-0.1548-6.6141 0.7113-0.1665 0.0666-0.3423 0.0807-0.5157 0.042-0.1065-0.0303-0.1899-0.1287-0.219-0.2565l0.0045-0.2238c-0.0024-0.1794 0.0504-0.3564 0.1488-0.4947 0.4875-0.6621 1.1076-1.1658 1.8024-1.4613 2.4552-1.7565 5.256-2.6835 8.1093-2.6859 3.4206-0.6561 6.9246 0.1839 9.8796 2.3706 2.295 2.4108 2.934 6.4068 1.554 9.6834-0.528 1.6545-1.275 3.1956-2.217 4.5573-0.174 0.279-0.459 0.4218-0.747 0.3738-0.288-0.0492-0.531-0.2823-0.633-0.6105-0.033-0.2274-0.03-0.4593 6e-3 -0.6855 0.531-3.3927-0.837-6.804-3.369-8.3976-1.5-1.2093-3.174-2.0637-4.9353-2.523-0.7488-0.1641-1.5012-0.2967-2.2545-0.3996"/>
		<path d="m194.22 135.73c-0.8226-4.1121-1.3428-8.3028-1.5504-12.526-0.5637-7.2375 0.102-14.54 1.9572-21.455 0.1464-0.486 0.5109-0.828 0.9351-0.882l0.2049 0.015c0.1371 0.063 0.2439 0.195 0.2943 0.36 0.0762 0.258 0.1041 0.531 0.0807 0.801-0.198 7.044 0.8181 14.061 2.985 20.602 1.6674 4.9665 4.2771 9.3867 7.6146 12.908 0.2673 0.3924 0.3657 0.9141 0.2697 1.4085-0.3072 2.9694-0.354 5.9706-0.1407 8.9532 0.0105 0.5274-0.3024 0.9831-0.7323 1.0698-0.1794-0.0093-0.3564-0.0867-0.4971-0.2226-0.9012-1.0452-1.869-2.004-2.8944-2.8677-1.6395-1.0335-3.5133-1.3932-5.3367-1.0218-0.3246 0.0669-0.6564 0.0093-0.948-0.1686-0.2988-0.2733-0.5274-0.6423-0.6621-1.0629-0.7242-1.8867-1.2528-3.8721-1.5798-5.9109"/>
		<path d="m214.21 129.82c2.0625-3.2685 3.5718-6.9975 4.446-10.97 1.5915-5.4864 2.3955-11.264 2.3766-17.081 0.0081-0.153 0.0564-0.303 0.1359-0.423 0.0294-0.036 0.0669-0.06 0.1068-0.069 0.0678-0.012 0.1371-0.012 0.2037 0 0.4125 0.06 0.7713 0.375 0.9399 0.834 2.079 9.753 2.2794 19.954 0.5871 29.816-0.5049 3.7032-1.425 7.3065-2.7363 10.712-0.1464 0.4863-0.5379 0.8016-0.9657 0.7746-1.0053-0.1935-2.0271-0.2718-3.0456-0.2319-2.106 0.1194-4.0698 1.3146-5.4024 3.2871-0.2577 0.3117-0.5787 0.5283-0.9339 0.6258-0.252 0-0.4947-0.1221-0.6726-0.3366-0.177-0.219-0.2766-0.5109-0.273-0.8166-0.0237-3.3528-6e-3 -6.7068 0.0492-10.058 0.0117-0.4638 0.2355-0.8799 0.5811-1.0815 1.7766-1.3008 3.3375-2.9883 4.6032-4.9815"/>
		<path d="m97.856 166.84c-0.0459-0.3702-0.0483-0.7476-0.0072-1.119 0.0786-0.4488 0.4173-0.7581 0.7935-0.7266 1.5549 0.2685 3.1371 0.1887 4.6674-0.2343 1.6242-0.6633 3.1476-1.6452 4.5093-2.9052 0.5157-0.6504 0.96-1.3779 1.3209-2.1645 0.3645-0.8355 0.1617-1.8666-0.4734-2.4117-1.1355-0.6267-2.1822-1.4625-3.108-2.4726-1.6968-2.4609-2.0307-5.9028-0.8541-8.7738 0.5121-1.2645 1.0275-2.5278 1.548-3.7887 0.1899-0.3645 0.4464-0.6738 0.7464-0.9045 2.7984-3.0891 5.9496-5.6721 9.3585-7.6713 1.785-1.3404 3.7665-2.2476 5.8371-2.6718 2.8443-1.3242 5.8536-2.0415 8.8992-2.1165l0.4737 0.0705c0.09 0.048 0.1404 0.1629 0.1263 0.2811-0.0093 0.0657-0.0267 0.1278-0.0525 0.1863-0.0306 0.0669-0.0693 0.129-0.1125 0.183-0.2379 0.2202-0.504 0.39-0.7887 0.5025-3.423 1.5036-6.8754 2.9145-10.352 4.227-2.6073 1.8234-4.6698 4.602-5.8956 7.9338-0.3 1.2138-0.4395 2.4819-0.408 3.7488 0.0609 0.5448 0.3153 1.0299 0.6939 1.3311 0.2295 0.1512 0.5121 0.0822 0.6738-0.1653 0.2238-0.3633 0.4419-0.7359 0.6468-1.1166 2.4117-4.0161 5.8149-7.0068 9.7161-8.5407 2.5488-0.2496 5.1045-0.2976 7.6593-0.1407 0.8004 0.2472 1.5669 0.6411 2.271 1.1649 1.4685 1.296 3.156 2.1843 4.9407 2.604 3.123 0.5649 6.2871 0.7041 9.4371 0.4182 3.6879-0.2025 7.3314 1.0677 10.365 3.6153 2.1093 1.1496 3.9234 2.9685 5.2512 5.2665 0.1347 0.2028 0.1641 0.4791 0.0726 0.7158-0.0996 0.2391-0.2742 0.4173-0.4851 0.4947-0.2121 0.0786-0.4395 0.0492-0.6318-0.081-3.2178-2.1021-6.8847-2.9847-10.522-2.5335-3.7476 0.3843-7.5153 0.3891-11.263 0.0117-2.4774-0.8577-4.8855-1.9944-7.1907-3.3903-3.6267-1.6767-7.6488-1.5924-11.228 0.2334-0.51 0.3468-0.9621 0.8016-1.335 1.344-1.9803 1.698-3.621 3.906-4.8069 6.4665-0.8895 3.2601-2.1198 6.3678-3.6597 9.2532-2.1786 4.5258-6.1431 7.3557-10.47 7.4718l-0.915 0.1569c-0.5298 0.258-0.8274 0.9411-0.7008 1.6161 0.3762 3.7593 1.6968 7.2903 3.7815 10.116 0.1548 0.2061 0.2661 0.4545 0.3282 0.723l0.0069 0.2871c-0.0105 0.1593-0.0714 0.3093-0.171 0.4149-0.0996 0.1053-0.2298 0.1581-0.3645 0.1464-1.3794-0.3198-2.5557-1.404-3.1803-2.9298-2.9685-3.8835-4.7802-8.8545-5.1492-14.126"/>
		<path d="m308.52 173.22c-3.561-1.044-6.51-4.0476-7.971-8.1165-1.4577-3.6855-3.0174-7.3137-4.6698-10.877-1.2036-2.1633-2.7177-4.05-4.4673-5.5701-3.9456-2.5593-8.694-2.5254-12.613 0.0903-3.7113 2.4012-7.9734 3.2496-12.127 2.4141-3.8823-0.5943-7.8138-0.5556-11.689 0.1149-1.3407 0.5859-2.6778 1.1859-4.0137 1.7964-0.2391 0.0633-0.4887-6e-3 -0.6834-0.1863-0.1932-0.1818-0.3093-0.4605-0.3198-0.7548 0.0036-0.1488 0.054-0.2907 0.1419-0.3936 0.2706-0.2979 0.5484-0.5859 0.8343-0.8613 2.7057-3.285 6.1299-5.562 9.8718-6.5673 3.5661-0.8193 7.221-0.9117 10.813-0.2754 3.3117-0.2694 6.5367-1.3992 9.4548-3.3141 2.3484-0.7863 4.8045-0.9915 7.2222-0.6048 3.6561 0.4266 7.0254 2.5818 9.375 5.9979 1.0734 1.3932 2.1375 2.7984 3.1908 4.2129 0.162 0.2013 0.414 0.246 0.618 0.1137 0.204-0.1713 0.33-0.4419 0.354-0.7407 0.528-3.4125-0.54-6.9012-2.7813-9.0705-1.8879-2.5908-4.4238-4.3629-7.221-5.0424-2.1234-1.2927-4.3395-2.3379-6.6234-3.1197-0.1818-0.0891-0.3363-0.2436-0.4431-0.4416-0.0678-0.1314-0.0561-0.3024 0.0294-0.4173l0.1758-0.1182c0.3573-0.0903 0.7254-0.108 1.0875-0.0504 3.4956 0.7521 6.9444 1.8093 10.317 3.165 1.1073 0.4863 2.1702 1.1157 3.1662 1.881 1.9446 1.0746 3.7596 2.4621 5.4006 4.1238 2.814 2.0061 5.016 5.0649 6.27 8.7165 1.05 2.8815 0.702 6.2319-0.915 8.7057-0.891 1.0302-1.953 1.8165-3.12 2.3052-0.381 0.2343-0.666 0.6468-0.789 1.1412-0.123 0.4959-0.072 1.0302 0.141 1.479 0.876 2.3334 2.628 4.0137 4.71 4.5072 1.785 1.0008 3.786 1.296 5.718 0.8529 0.273-0.0279 0.537 0.1104 0.711 0.3633l0.096 0.2814c0.129 0.5436 0.12 1.119-0.027 1.6545-0.447 3.7056-1.572 7.2423-3.297 10.349-0.999 1.9194-2.187 3.6843-3.537 5.2521l-0.579 0.5391c-0.36 0.1488-0.726 0.2754-1.095 0.375-0.267 0.0036-0.51-0.1791-0.624-0.4698-0.117-0.2907-0.081-0.6363 0.09-0.8838 0.231-0.39 0.501-0.7452 0.804-1.0617 1.275-1.7154 2.208-3.765 2.721-5.9904 0.561-1.2774 0.75-2.7435 0.54-4.1673-0.06-0.273-0.237-0.4863-0.462-0.5613-0.234-0.0927-0.483-0.1335-0.732-0.1242-1.029-0.1314-2.049-0.3492-3.054-0.6516"/>
		<path d="m177.12 230.83c3.0516 0.4371 5.9778 1.7154 8.5593 3.7359 2.7834 1.7448 5.6355 3.3327 8.5431 4.7529 2.4867 0.8286 5.0799 1.0854 7.6464 0.7665 0.1383-0.0069 0.273 0.0669 0.3609 0.198 0.0471 0.1101 0.0564 0.2391 0.0246 0.3564-0.0327 0.117-0.1008 0.2145-0.1932 0.2682l-0.2238 0.1032c-1.7838 0.2214-3.585 0.171-5.3568-0.1512-3.9-0.6795-7.8153-1.2117-11.742-1.5984-0.9024 0.0714-1.7967 0.2484-2.6685 0.5262-0.3141 0.1557-0.5952 0.3903-0.8262 0.6903-0.3714 0.4125-0.7452 0.825-1.1202 1.2327-0.5226 0.7476-1.4052 0.9528-2.1201 0.4935-2.8767-1.3653-5.0388-4.3068-5.823-7.9197-0.0762-0.8274 0.0222-1.6653 0.2895-2.4291 0.2544-0.4419 0.6585-0.7221 1.1016-0.7665 1.1625-0.3234 2.3613-0.4101 3.5484-0.2589"/>
		<path d="m219.41 241.09c-2.2149 0.4467-4.4718 0.5181-6.7032 0.2088-0.1992-0.0798-0.3843-0.2064-0.5484-0.3669-0.096-0.0972-0.1593-0.2319-0.1782-0.3807-0.0174-0.1185 0.033-0.2358 0.1209-0.2874 0.1254-0.0561 0.2601-0.0726 0.3924-0.0501 4.5879 0.6855 9.2343-0.4782 13.22-3.312 2.4537-1.2129 4.8642-2.5476 7.2258-4.0029 2.9529-1.554 6.294-1.6302 9.2928-0.2088 0.3786 0.2217 0.6222 0.681 0.633 1.1883 0.0363 3.027-1.3677 5.8092-3.6084 7.1556-1.1766 1.1565-2.5464 1.9923-4.0161 2.4516-0.4698 0.027-0.9081-0.2895-1.113-0.804-1.452-2.2536-3.8556-3.2823-6.1572-2.6391-2.8641 0.2205-5.7177 0.5697-8.5605 1.0476"/>
		<path d="m248.26 226.58c-2.2335-1.7193-4.4541-3.4536-6.669-5.208-0.1677-0.1629-0.3657-0.2754-0.5754-0.3279-0.1758-0.0129-0.3468 0.0573-0.4806 0.1956-0.294 0.3117-0.5391 0.6819-0.7254 1.098-1.5561 2.8242-3.8025 4.9899-6.4263 6.198-1.2483 0.7371-2.5737 1.2693-3.9375 1.581-0.2685 0.1101-0.5487 0.1641-0.8298 0.1641l-0.2697-0.0738c-0.1863-0.0189-0.3678-0.075-0.5379-0.1701-0.1359-0.0972-0.2259-0.267-0.2424-0.4569-0.0177-0.1923 0.0411-0.3798 0.1569-0.5133 0.135-0.156 0.2988-0.2718 0.4782-0.3447 2.8887-1.617 4.5702-5.3214 4.1496-9.1383-0.4746-4.6041-1.998-8.9553-4.3944-12.573-0.3177-0.8097-0.6294-1.6254-0.9354-2.442-0.2751-0.5754-0.8226-0.8742-1.3617-0.7467-3.0396 0.5826-6.1404-0.4392-8.517-2.8065-1.1544-0.9573-2.1939-2.1036-3.0903-3.4044-0.2214-0.342-0.6165-0.4395-0.9306-0.2283-0.3549 0.2847-0.6807 0.6198-0.9678 0.9984-0.8601 0.8895-1.7331 1.7637-2.6181 2.6166l-0.9141 0.6996c-1.2045 0.4842-2.5347 0.0399-3.3609-1.1271-0.9444-0.9141-1.8234-1.9221-2.6283-3.0141-0.2016-0.2496-0.4689-0.408-0.756-0.4359-0.2907 0.015-0.5625 0.1755-0.7536 0.444-2.3391 3.2601-5.6061 5.3355-9.1512 5.8173-0.8142 0.0069-1.6275-0.0693-2.4327-0.225-0.3702-0.0903-0.7536 0.0654-1.002 0.4125-1.0347 1.8492-1.9992 3.7557-2.892 5.7105-1.6383 2.9637-2.7987 6.273-3.4221 9.7581-0.1017 3.7782 1.5588 7.3068 4.2984 9.1266 0.2262 0.1758 0.4512 0.3621 0.6693 0.5577 0.0423 0.0492 0.0657 0.1161 0.0633 0.1875-0.0024 0.0822-0.0294 0.1608-0.0738 0.2217-0.183 0.2472-0.4443 0.3843-0.7197 0.3762-4.971-0.4407-9.4383-3.8322-11.925-9.0588-0.1218-0.2577-0.3258-0.4416-0.5637-0.5061-0.2367-0.0645-0.4875-0.0024-0.6867 0.1653-3.3162 2.7129-6.7512 5.2089-10.291 7.4742-0.6762 0.7416-1.0746 1.7835-1.1064 2.8875-0.2295 4.0347 1.4403 7.8867 4.3137 9.9525 0.2895 0.2439 0.5274 0.5661 0.6915 0.9423 0.0585 0.1407 0.075 0.2988 0.0468 0.4524-0.0363 0.1242-0.123 0.219-0.2307 0.252-0.579 0.1347-1.1745 0.0819-1.731-0.15-4.0302-1.9173-6.927-6.2637-7.6194-11.435-0.6576-2.1057-0.8193-4.3896-0.4713-6.6009 0.1959-0.7971 0.6951-1.4286 1.3455-1.6992 1.4754-0.8124 2.844-1.8774 4.0674-3.1641 1.7601-1.4121 3.4149-3.0108 4.9455-4.7733 0.3738-0.4005 0.867-0.6 1.365-0.5505 1.3278 0.2496 2.6766 0.3174 4.0197 0.1968 3.3198-0.5838 6.2661-2.8746 8.0835-6.2847 1.3173-2.0838 1.9347-4.6947 1.7298-7.3068-0.0258-0.1956-0.108-0.3762-0.2274-0.5097-0.0504-0.0576-0.1125-0.0879-0.1806-0.0915-0.0783-0.0012-0.1557 0.0234-0.2214 0.075-3.2202 2.7093-6.9831 4.329-10.894 4.6863-0.4737 0.0471-0.9072-0.3162-1.0407-0.8658-0.0447-0.2943 0.0282-0.5967 0.1968-0.8169 0.5367-0.6081 1.1073-1.1778 1.7028-1.7028 1.4895-1.398 2.6157-3.2835 3.246-5.4303 0.0459-0.2955-0.0036-0.5991-0.1383-0.8508-0.7698-0.9516-1.7085-1.6806-2.7456-2.1306-1.3266-0.8964-2.5806-1.9407-3.7452-3.1149-0.2862-0.2601-0.6717-0.2847-0.9762-0.0633-2.0028 1.1979-4.2072 1.8165-6.4383 1.8096-0.2367-0.0435-0.4617-0.1479-0.6621-0.3024-0.2367-0.1806-0.3504-0.5238-0.2838-0.8532 0.1032-0.4254 0.2895-0.8157 0.5427-1.1355 0.879-1.0407 1.5375-2.3226 1.9182-3.7383 0.054-0.9153-0.0678-1.8375-0.3561-2.6871-0.0867-0.6189-0.3504-1.1802-0.7419-1.5867-0.2799-0.2661-0.6738-0.2661-0.9537-0.0024-0.8133 0.8718-1.7052 1.6266-2.6592 2.2524-2.9904 1.2633-6.3162 0.342-8.5569-2.3685-1.2141-1.6791-2.0589-3.702-2.4585-5.8815-0.1467-0.5496-0.2979-1.0992-0.4548-1.6464-0.0435-0.1056-0.1173-0.1887-0.2052-0.237-0.0585-0.0303-0.1266-0.0117-0.1686 0.0447-0.171 0.2553-0.3 0.5496-0.3831 0.8625-1.3302 2.8242-1.3548 6.2811-0.0624 9.1323 0.5709 3.1068 2.277 5.7282 4.6374 7.1274 1.065 0.6258 2.1807 1.1181 3.3291 1.4673 0.0798 0.0363 0.1476 0.0996 0.1992 0.1803 0.0387 0.0621 0.0564 0.1383 0.0492 0.2145-0.0258 0.3072-0.2097 0.5601-0.4569 0.6294-0.5955 0.1254-1.206 0.0984-1.7943-0.0798-4.9638-0.8952-9.4263-4.152-12.395-9.0468-1.6218-3.0819-2.4423-6.681-2.3544-10.329-0.0162-0.4968-0.1101-0.9831-0.273-1.4367-0.1149-0.342-0.4218-0.5238-0.7161-0.4242-0.9045 0.4758-1.6347 1.3383-2.0496 2.4234-2.2347 4.0221-2.6496 9.1314-1.1085 13.602 1.1556 4.7826 3.9234 8.7528 7.6242 10.94 0.6129 0.3891 1.1544 0.9246 1.5951 1.5702 0.123 0.1992 0.1017 0.4782-0.0492 0.6471l-0.2052 0.1053c-0.8814 0.2016-1.7847 0.1947-2.6637-0.0234-3.9855-0.7137-7.4823-3.5883-9.498-7.8117-1.4109-2.652-2.5407-5.5068-3.3633-8.4996-0.0492-0.1839-0.1395-0.3504-0.2589-0.4794-0.1278-0.0948-0.2814-0.123-0.4242-0.0774-0.1443 0.0447-0.2673 0.1572-0.3423 0.3129-0.1782 0.3528-0.2589 0.7641-0.2343 1.1766 0.102 4.6875 1.365 9.231 3.6222 13.042 5.2254 7.2798 12.909 11.276 20.868 10.856 3.1638-0.7263 6.3573-1.2456 9.5646-1.5549 0.0282 0.0045 0.0516 0.0222 0.0669 0.0468 0.0141 0.0282 0.0186 0.0585 0.0117 0.0903-0.0294 0.1464-0.096 0.2799-0.1863 0.3819-1.4883 1.5609-3.4347 2.3346-5.3964 2.154-2.979 0.9129-5.9967 1.6323-9.0399 2.1564-4.5081 0.3363-9.0318-0.0036-13.473-1.0044-6.5217-1.3464-12.095-6.4383-14.951-13.658-0.3036-0.4875-0.7524-0.8088-1.2528-0.8931-3.3492-0.798-6.5508-2.3355-9.4407-4.5375-3.6456-2.271-6.2754-6.3774-7.1799-11.215-0.0717-0.4089 0.1287-0.8145 0.4605-0.9327 0.5541-0.0213 1.0863 0.2787 1.4286 0.8061 2.4117 3.0342 5.2734 5.4855 8.4375 7.2363 1.0791 0.3459 2.19 0.5322 3.3057 0.5532 0.3903-0.0996 0.6564-0.5319 0.627-1.0125-0.075-1.3044-0.4032-2.5686-0.954-3.6915-1.1286-3.2121-1.7097-6.6642-1.7121-10.154 0.0024-0.3048 0.1512-0.5838 0.381-0.7113 0.2133-0.075 0.4347-0.1092 0.6573-0.0963 2.5851 0.1617 5.1117-0.9783 6.9774-3.1512 2.1903-2.0307 4.3335-4.1271 6.4323-6.2916 2.6298-2.6298 5.7165-4.5012 9.0294-5.4738 4.2282-0.8637 8.5665-0.4044 12.607 1.3299 1.7367 0.9012 3.4971 1.7334 5.2758 2.4939 0.2475 0.1722 0.5322 0.2367 0.8133 0.1815 0.6399-0.2379 1.179-0.7662 1.506-1.473 1.1109-1.5798 1.3782-3.7911 0.6807-5.6871-0.0912-0.1932-0.1404-0.4137-0.1404-0.6375 0-0.4101 0.2658-0.7476 0.6021-0.7641 0.4794-0.0891 0.9657 0.102 1.3116 0.5097 3.5577 3.21 6.3009 7.5552 7.923 12.552 1.0218 2.9637 2.5722 5.6169 4.5444 7.7709 1.4064 0.975 3.0234 1.4061 4.6371 1.2363 0.2391 0.0129 0.4536 0.1803 0.558 0.4416 0.2976 0.8157 0.5331 1.6617 0.7005 2.5302 0.4866 1.6665 1.05 3.2988 1.6875 4.8891 0.1419 0.3327 0.3495 0.6174 0.6048 0.8307 2.5746 3.0234 5.8173 5.0838 9.3339 5.931 2.7564 0.6411 5.6016-0.3339 7.6689-2.6286 1.9932-2.6403 3.192-6.0165 3.4053-9.5823 0.8112-6.579 0.3318-13.297-1.4025-19.608-1.7358-5.2089-4.2129-10.008-7.3173-14.183-0.1113-0.1557-0.1863-0.3444-0.2181-0.5472-0.021-0.1818 0.033-0.3669 0.1443-0.4959 0.1113-0.1287 0.2661-0.1851 0.4173-0.1509 0.3525 0.0678 0.6867 0.2226 0.9867 0.4557 7.3581 4.65 12.502 13.192 13.906 23.093 0.7887 6.1347 0.8952 12.367 0.3177 18.536-0.1794 0.8766-0.2592 1.779-0.2322 2.679l0.1734 1.0077c0.8661 1.6839 2.1975 2.9391 3.7572 3.5379 0.423 0.0867 0.8589-0.0411 1.1988-0.3564 1.2375-0.7383 2.325-1.7976 3.1863-3.1017 0.2718-0.6741 0.3435-1.4391 0.2052-2.1705-0.9108-6.3246-0.7617-12.806 0.4359-19.062 0.8085-5.823 2.9145-11.268 6.0924-15.749 2.5794-3.5073 5.7516-6.306 9.2988-8.2101 0.1395-0.0705 0.2931-0.0738 0.435-0.0129 0.1125 0.0597 0.1875 0.1932 0.1944 0.342 0 0.21-0.048 0.4161-0.1407 0.5943-1.2468 1.8456-2.4654 3.7173-3.6549 5.6145-5.4891 8.8827-7.4496 20.246-5.3592 31.045 0.4935 2.8056 1.6899 5.3601 3.4221 7.3197 1.8291 2.0202 4.3137 2.9379 6.7629 2.4972 3.7077-1.023 7.1073-3.2718 9.8214-6.4947 1.275-2.0331 2.1984-4.3581 2.7141-6.8331 0.0702-0.3222 0.2214-0.6093 0.4335-0.8202 0.5883-0.3024 1.2282-0.4221 1.8645-0.3483 2.6706-0.1746 5.0379-2.1396 6.1347-5.0928 1.6056-3.8214 3.4653-7.4823 5.5584-10.943 1.4238-2.2242 3.2601-4.0077 5.3613-5.2065 0.1347-0.0645 0.2859-0.0609 0.417 0.0105 0.1149 0.0762 0.1863 0.2202 0.1842 0.3798-0.012 0.2343-0.0576 0.4662-0.1374 0.6831-0.6468 2.4294-0.2109 5.0931 1.1568 7.0383 0.3057 0.3609 0.7452 0.4932 1.1556 0.3492 2.7174-0.9282 5.4033-1.9815 8.0565-3.156 4.1847-0.9384 8.4855-0.7488 12.605 0.5544 3.069 1.4298 5.8476 3.6411 8.1504 6.4818 2.2674 2.2593 4.515 4.5468 6.7416 6.8682 0.2544 0.2532 0.5568 0.4266 0.8778 0.504 1.575 0.5016 3.183 0.8589 4.803 1.0722 0.273 0.0282 0.507 0.246 0.6 0.5568 0.084 0.4464 0.105 0.9069 0.066 1.3605-0.12 3.4182-0.867 6.7629-2.193 9.7875-0.336 0.9258-0.582 1.8972-0.726 2.8944-0.024 0.252 0.048 0.5028 0.198 0.6822 0.141 0.1113 0.303 0.1722 0.471 0.1779 3.225-0.0702 6.327-1.4988 8.775-4.0404 1.233-1.2282 2.442-2.4891 3.624-3.783 0.312-0.2202 0.678-0.294 1.032-0.2085 0.225 0.096 0.369 0.3633 0.348 0.6492-0.336 2.8101-1.467 5.3919-3.195 7.3101-3.678 4.5024-8.499 7.3794-13.695 8.1645-0.7584 0.2649-1.3854 0.9129-1.7205 1.7802-1.4673 2.7573-3.2238 5.2722-5.2266 7.4823-0.1476 0.1488-0.3174 0.2613-0.5004 0.3282-0.9129 0.4803-1.7754 1.0863-2.571 1.8117-5.3415 3.027-11.272 4.2105-17.135 3.4218-3.5379 0.1065-7.0548-0.6633-10.338-2.2641-1.8387-0.3057-3.654-0.7992-5.4246-1.4706-0.8355-0.4266-1.6326-0.954-2.3802-1.5738-0.0339-0.0363-0.054-0.0891-0.054-0.1419 0.0012-0.0423 0.0225-0.0819 0.0564-0.0948 0.1311-0.0588 0.2766-0.0738 0.4149-0.0459 3.3867 0.5592 6.7524 1.2681 10.096 2.1282 6.6996 0.4734 13.296-2.1879 18.418-7.4367 2.3718-1.7181 4.14-4.4355 4.9617-7.629 0.5859-2.8149 0.9936-5.6799 1.2198-8.5686-0.0153-0.2238-0.0492-0.4419-0.1032-0.6576l-0.0891-0.2682c-0.0549-0.1113-0.1464-0.1875-0.2517-0.2145-0.1056-0.0234-0.2133 0.0069-0.2988 0.0843-0.1641 0.1455-0.2931 0.3399-0.3717 0.5661-1.3734 5.1516-3.8859 9.7488-7.2645 13.297-2.5275 1.7214-5.3883 2.604-8.2887 2.5572-0.1956 0-0.3738-0.1302-0.4662-0.3411-0.0492-0.1572-0.0447-0.3327 0.0153-0.4899 0.0996-0.4605 0.3714-0.8367 0.7359-1.0182 2.415-1.3629 4.5855-3.2838 6.39-5.658 1.9362-3.723 3.0741-7.971 3.3096-12.361-0.0855-3.5028-1.3677-6.8061-3.5403-9.1254-0.1689-0.1722-0.3996-0.2286-0.6117-0.1476-0.3585 0.2694-0.579 0.7428-0.5835 1.254-0.0153 8.6847-4.8903 16.256-11.846 18.396-1.6911 0.7746-3.4899 1.1391-5.2968 1.0746-0.1689-0.0258-0.3282-0.1044-0.4629-0.231-0.0927-0.0888-0.1431-0.2283-0.1335-0.3702 0.0069-0.1419 0.0714-0.273 0.1722-0.3444 0.1629-0.0975 0.3423-0.1596 0.5226-0.1794 3.5238-0.6117 6.4722-3.5403 7.6548-7.602 1.3908-3.2274 1.4787-7.0488 0.2391-10.365-0.1233-0.2742-0.3564-0.4557-0.6165-0.4734-0.1488 0.0117-0.279 0.1254-0.3318 0.2943-0.1323 0.4275-0.2379 0.8646-0.315 1.3101-0.2484 2.7432-1.4064 5.2476-3.2076 6.9399-0.2694 0.2307-0.5778 0.3924-0.9024 0.471-1.5267 0.9669-3.2529 1.377-4.9698 1.1871-1.6758-0.2637-3.2391-1.173-4.4601-2.5899-0.2028-0.2049-0.4782-0.2718-0.7302-0.177-0.1803 0.102-0.3327 0.2673-0.4359 0.4758-1.2891 2.2617-1.0359 5.3193 0.5976 7.2282 0.2532 0.4335 0.5052 0.8694 0.7512 1.3089 0.108 0.1725 0.1689 0.3798 0.1734 0.5931-0.0093 0.1815-0.1008 0.3423-0.2355 0.423-0.3303 0.1992-0.6915 0.3093-1.0581 0.3198-0.2976 0.0657-0.6048 0.0447-0.8943-0.0609-1.8351-0.369-3.621-1.0428-5.3037-2.0073-0.3234-0.231-0.729-0.1956-1.023 0.0855-1.8588 1.9206-3.9387 3.5028-6.1749 4.6935-0.2763 0.2013-0.4827 0.5166-0.5811 0.8871-0.027 0.2073-0.0093 0.4182 0.054 0.6129 0.8133 2.2662 2.0976 4.2363 3.7311 5.7198 0.4641 0.6177 0.9222 1.2423 1.371 1.8738 0.0459 0.0843 0.0681 0.1827 0.0669 0.2826-0.0012 0.0996-0.0294 0.1968-0.0786 0.2742-0.0984 0.171-0.2472 0.2883-0.4134 0.3351-0.375 0.1041-0.7665 0.1158-1.1463 0.0375-3.8484-0.2883-7.521-2.0556-10.481-5.0472-0.1431-0.1092-0.3036-0.1806-0.4725-0.2052-0.1932-0.0258-0.3738 0.1161-0.4335 0.3399-0.123 0.5238-0.1032 1.0803 0.0528 1.5924 0.1266 3.0375 1.1226 5.9262 2.8173 8.175 1.9629 2.7318 4.7061 4.4721 7.6791 4.875 1.1976-0.069 2.3955-0.1464 3.5919-0.2319 0.6093-0.0153 1.1907 0.3057 1.5807 0.8742 0.5229 1.0536 1.2366 1.95 2.0871 2.6214 1.6854 1.4601 3.3282 2.9907 4.9254 4.5867 0.6612 0.3975 1.3548 0.7068 2.0673 0.9258 0.4137 0.1524 0.696 0.6117 0.6984 1.1355 0.3294 5.4939-1.1766 10.921-4.179 15.06-1.4142 1.9686-3.4311 3.1464-5.5839 3.2658-0.2613 0.0189-0.5028-0.1746-0.5964-0.4686-0.0915-0.2976-0.0129-0.633 0.1932-0.8274 0.3258-0.3714 0.6822-0.7032 1.0596-0.9891 2.2299-1.8948 3.7722-4.7553 4.3125-7.9863 0.0258-0.5718-0.054-1.1448-0.2379-1.6734-0.5508-1.8258-1.6935-3.2964-3.1653-4.077-0.4359-0.3069-0.8802-0.5976-1.3302-0.8706"/>
		<path d="m253.18 310.64c3.0315 2.0733 6.4041 3.3036 9.8763 3.6012 3.4104 0.8463 6.9294 0.7479 10.303-0.2859 0.3117-0.027 0.6141-0.1347 0.8871-0.3174 0.1959-0.1536 0.2697-0.456 0.1758-0.7149-0.1557-0.3282-0.4101-0.5766-0.7101-0.6855-3.3939-1.3923-6.5262-3.579-9.2214-6.4359-1.2387-1.4451-2.2314-3.1701-2.9193-5.0766-3.1557-6.0072-4.6686-13.062-4.323-20.164-0.402-3.1548 0.4431-6.3576 2.2863-8.6427 0.5907-1.077 1.575-1.7412 2.6415-1.7847 0.3 0.0996 0.5964 0.2133 0.8883 0.3399 0.45 0.1782 0.8916 0.3855 1.3218 0.621 3.3468 2.9931 5.727 7.2996 6.7347 12.184 0.5064 2.2725 0.9105 4.5774 1.2165 6.9024 0.0561 0.2214 0.1536 0.4218 0.2859 0.5859 0.198 0.1419 0.4512 0.0984 0.6069-0.1029 0.1983-0.2862 0.3471-0.6177 0.4362-0.975 0.4686-2.9064 1.0803-5.7762 1.8339-8.5935 0.5718-5.6109 0.3222-11.299-0.7371-16.805-0.1383-0.4392-0.2205-0.9033-0.2415-1.3722-0.0153-0.2916 0.108-0.5706 0.3141-0.7218 0.2064-0.1548 0.4665-0.1569 0.675-0.0081 1.5036 1.0452 2.8992 2.3061 4.152 3.7557 3.9222 4.4697 7.1472 9.756 9.5226 15.608 0.1194 0.3822 0.3 0.7362 0.5298 1.0374 0.1395 0.2013 0.3633 0.2823 0.5706 0.2154 0.0573-0.0198 0.1056-0.0645 0.1371-0.123 0.0435-0.0843 0.0681-0.1839 0.0702-0.2835-0.1182-2.0871-0.3726-4.1613-0.7557-6.2016-0.9351-5.7645-0.7839-11.71 0.4428-17.394 0.0834-2.0436 0.7842-3.9795 1.9737-5.4363 2.5734-3.6387 6.1488-6.0267 10.061-6.7266 4.041-0.8811 8.19-0.615 12.129 0.7758 2.943 1.4229 5.55 3.7044 7.593 6.6366 1.728 1.6884 3.081 3.8763 3.93 6.3621 1.206 2.925 0.486 6.4734-1.704 8.3847-3.042 1.7907-6.489 2.3226-9.804 1.5081-5.31-1.2411-10.566-2.8101-15.742-4.6992-0.6165-0.3282-1.2939-0.4431-1.9584-0.3351-0.0879 0.0294-0.1593 0.1101-0.1887 0.2145-0.0387 0.1299-0.0363 0.2754 0.0084 0.4029 0.2436 0.5334 0.5343 1.035 0.8658 1.4919 4.9584 4.3218 10.379 7.8024 16.118 10.35 2.739 1.0206 5.451 2.1645 8.124 3.4314 0.285 0.1254 0.591 0.1569 0.891 0.09 0.453-0.0387 0.906-0.09 1.353-0.1533 6.135-1.1475 12.156-3.0246 17.985-5.604 2.337-0.669 4.599-1.6944 6.729-3.0492 1.848-0.8439 3.651-1.8129 5.409-2.9073 3.585-1.8423 7.041-4.0479 10.323-6.5931 0.366-0.177 0.693-0.4593 0.948-0.8226 0.18-0.2334 0.219-0.5766 0.102-0.8601-0.159-0.2685-0.405-0.4419-0.678-0.4725-2.646-0.1992-5.301-0.3315-7.953-0.3996-4.845-0.3117-9.591-1.7718-13.968-4.2972-2.391-1.0875-4.629-2.6049-6.645-4.5048-0.276-0.1476-0.507-0.3948-0.663-0.7065-0.108-0.3069-0.111-0.6552-3e-3 -0.9597 0.288-0.8601 0.573-1.7193 0.858-2.5818 2.586-5.9307 2.739-12.98 0.417-19.07-0.21-0.9681 0.048-1.9968 0.6721-2.6556 2.502-2.6016 5.199-4.9242 8.049-6.9363 0.366-0.1464 0.687-0.4158 0.924-0.7803 1.989-2.7681 4.035-5.4786 6.135-8.1246 1.842-3.8355 3.438-7.8342 4.776-11.966 1.266-5.1702 2.187-10.453 2.757-15.802 0.09-0.5682-0.027-1.1565-0.318-1.6161-0.912-1.1025-1.86-2.1642-2.838-3.1815-0.342-0.2943-0.549-0.7617-0.561-1.2681-0.015-0.5037 0.168-0.9891 0.492-1.3077 1.116-1.0935 2.265-2.1363 3.45-3.1278 0.405-0.3561 0.681-0.8859 0.777-1.4811 0.105-5.7564-0.684-11.487-2.331-16.889-1.539-6.3084-3.762-12.342-6.609-17.946-0.318-0.8811-0.81-1.6533-1.431-2.2521-0.213-0.1536-0.465-0.2064-0.708-0.1479-0.24 0.0366-0.441 0.2403-0.51 0.5205-0.3 1.3992-0.732 2.7528-1.29 4.0323-1.005 3.4959-2.901 6.5157-5.415 8.6217-1.554 1.4073-3.204 2.6484-4.929 3.7125-3.318 1.7505-7.113 1.5621-10.299-0.5133-1.734-2.3112-2.472-5.4693-2.004-8.5395 0.342-3.6972 1.428-7.2363 3.156-10.312 2.016-2.9637 4.725-5.1201 7.776-6.1875 3.639-0.7746 6.975-2.9484 9.51-6.2016 0.243-0.2697 0.537-0.4665 0.855-0.5685l0.441-0.0258c0.747-0.1134 1.497-0.1686 2.247-0.1674 3.018-0.2883 5.823-1.9968 7.809-4.7595 0.495-0.81 1.266-1.305 2.097-1.356 3.837-0.015 7.485-2.028 10.008-5.526 0.348-0.435 0.774-0.762 1.245-0.963 1.824-0.171 3.63-0.591 5.379-1.254 2.964-1.938 5.712-4.317 8.19-7.083 0.063-0.078 0.105-0.177 0.12-0.282 0.015-0.075 0-0.153-0.033-0.216-0.147-0.225-0.396-0.315-0.618-0.222-0.333 0.15-0.651 0.33-0.957 0.537-3.102 2.19-6.744 2.994-10.284 2.271-0.705-0.357-1.413-0.687-2.136-0.996-0.366-0.126-0.762-3e-3 -1.035 0.324-1.347 2.028-3.009 3.714-4.896 4.965-2.271 1.014-4.731 1.254-7.107 0.705-0.276-0.045-0.555 0.054-0.768 0.276-1.161 1.602-2.457 3.057-3.867 4.341-0.408 0.402-0.858 0.735-1.341 0.99-1.773 0.477-3.585 0.717-5.397 0.723-0.435-0.021-0.855 0.192-1.152 0.576-0.222 0.303-0.459 0.591-0.711 0.864-1.2 1.998-2.934 3.4404-4.905 4.0839-3.867 1.398-7.626 3.1887-11.241 5.3532-2.307 1.8033-4.392 3.9912-6.195 6.4992-3.027 4.8702-4.68 10.785-4.719 16.877 0.21 2.0226 0.546 4.0218 1.011 5.9823l0.018 0.5298 0.402 1.119c0.519 1.1331 1.101 2.2266 1.734 3.2697 0.381 0.6186 0.495 1.4238 0.3 2.1609-0.399 1.6125-0.726 3.2508-0.972 4.9065 0.225 2.3847 0.564 4.7544 1.005 7.0956 0.546 4.3959 2.4 8.4012 5.2169 11.257 1.305 0.7173 2.631 1.3758 3.975 1.9734 0.561 0.3423 1.182 0.5202 1.812 0.5238 0.303-0.0339 0.534-0.3432 0.531-0.7113-0.024-0.3306-0.147-0.6399-0.345-0.8685-1.851-2.0238-3.324-4.5033-4.314-7.2726-0.165-0.4359-0.267-0.9045-0.294-1.3839 0.075-0.546 0.498-0.9177 0.951-0.8355 0.852 0.1536 1.713 0.2004 2.574 0.1428 2.331-0.492 4.599-1.3521 6.747-2.5557 0.57-0.2121 1.185 0.1311 1.419 0.8004 1.14 2.7246 1.857 5.679 2.121 8.7165 0.264 3.4509 0.111 6.9315-0.456 10.33-0.249 4.0851-1.638 7.9476-3.942 10.954-2.46 2.5323-4.65 5.4303-6.519 8.6238-1.56 2.5686-2.145 5.8194-1.611 8.9415 0.048 0.24 0.198 0.4335 0.39 0.5037 0.195 0.0717 0.4081 0.0105 0.555-0.1581 0.201-0.2367 0.348-0.5319 0.426-0.8601 0.123-0.8391 0.363-1.6455 0.714-2.3814 2.088-2.6166 4.425-4.9254 6.963-6.8706 3.072-1.896 5.481-5.0556 6.804-8.9073 1.077-3.3177 1.731-6.8169 1.938-10.375 0.471-5.0931 0.243-10.246-0.669-15.252-0.678-3.3564-1.599-6.6342-2.751-9.7959-0.3-0.5202-0.861-0.7101-1.341-0.4557-1.572 0.7851-3.228 1.2879-4.92 1.494-2.595 0.9972-5.376 1.0419-7.995 0.1278-0.243-0.0798-0.465-0.2403-0.639-0.4629-0.156-0.1803-0.222-0.4476-0.168-0.7008 0.09-0.2799 0.279-0.4992 0.516-0.5895 2.598-0.8412 5.208-1.6311 7.827-2.373 3.891-2.1315 7.284-5.3964 9.876-9.5016 0.264-0.4674 0.573-0.8952 0.921-1.2738 0.186-0.177 0.432-0.2415 0.663-0.1746s0.426 0.258 0.531 0.5169c2.553 4.9323 4.347 10.385 5.292 16.092 0.351 1.0818 0.048 2.3145-0.735 2.9871-1.359 0.7923-2.652 1.7439-3.855 2.8419-0.306 0.273-0.51 0.6855-0.558 1.1439-0.048 0.4569 0.06 0.9162 0.297 1.2762 1.563 2.2134 2.988 4.5642 4.266 7.0287 0.666 1.0851 0.9 2.475 0.633 3.7899-0.513 7.1214-2.331 14.013-5.325 20.173-0.804 2.2395-1.917 4.2927-3.297 6.0705-4.041 3.7521-8.112 7.4577-12.216 11.115-0.315 0.3117-0.747 0.3915-1.125 0.204-1.482-0.7395-2.925-1.5786-4.332-2.5101-3.498-1.3383-7.206-1.6758-10.83-0.9855-4.038 0.7065-8.145 0.6303-12.165-0.2262-0.144-0.0258-0.288-0.0693-0.426-0.1302-0.162-0.0702-0.315-0.1581-0.462-0.2637-0.774-0.5823-1.581-1.098-2.412-1.542-0.168-0.1173-0.354-0.1923-0.546-0.2181-0.102-0.0036-0.2007 0.0447-0.2721 0.1371-0.0705 0.0879-0.1044 0.2097-0.0972 0.3339 0.0129 0.2145 0.0795 0.4185 0.1944 0.5802 0.6639 0.9 1.4049 1.7085 2.2089 2.4141 4.251 2.2992 8.85 3.5226 13.506 3.5919 2.829-0.0375 5.628 0.7557 8.148 2.313 3.177 1.3383 5.727 4.26 7.002 8.0262 1.278 3.7665 1.158 8.0121-0.327 11.664-0.135 0.3024-0.354 0.5403-0.618 0.6669-0.273 0.0645-0.558 0.0024-0.792-0.1782-3.183-2.8335-6.147-6.0081-8.853-9.4899-0.933-1.7646-1.797-3.5823-2.586-5.4444-0.129-0.4173-0.333-0.7935-0.597-1.1052-1.872-1.4988-4.056-2.3355-6.303-2.4105-5.976-1.2234-12.097-0.9633-17.989 0.7641-2.6391 0.9903-5.3577 1.6464-8.1093 1.9581-4.0911 1.5435-8.325 2.4834-12.602 2.7987-2.8137 0.6-5.6976 0.4827-8.4714-0.3447-0.3738-0.1851-0.7875-0.2049-1.173-0.0573-0.1818 0.1275-0.2721 0.3891-0.2205 0.6387 0.0915 0.3642 0.2847 0.6762 0.546 0.8904 2.7693 1.7484 5.7657 2.91 8.862 3.4314 3.7629 0.0036 7.5234-0.2943 11.252-0.8943 3.4278-0.7827 6.8814-1.4013 10.349-1.8549 0.9411-0.2766 1.9104-0.3834 2.8746-0.3189 0.1407 0.0234 0.2733 0.0984 0.3762 0.2169 0.075 0.1194 0.0798 0.2847 0.0096 0.4101-0.1608 0.3072-0.3984 0.5439-0.6762 0.6774-0.7455 0.3492-1.458 0.7899-2.1294 1.3137-1.7202 0.9339-3.3738 2.0355-4.9488 3.2907-2.5359 1.7883-5.0802 3.5553-7.6371 5.298-2.8605 1.3395-5.7117 2.7045-8.5569 4.0992-5.5326 2.2311-11.291 3.5436-17.116 3.9036-3.1383 0.1323-6.279 0.2154-9.4185 0.2496-5.1492-0.6153-10.269-1.5612-15.336-2.8371-2.5839-0.825-5.1045-1.9245-7.5303-3.285-0.4488-0.2529-0.981-0.102-1.2879 0.3669-1.7475 2.9016-4.1484 5.1246-6.9165 6.4089-4.1319 2.7855-9.0774 3.1935-13.486 1.1088-3.5556-1.3842-6.6609-4.0899-8.8746-7.731-0.3516-0.5964-0.9774-0.8556-1.5564-0.6432-4.3932 2.3505-9.0912 3.7521-13.882 4.1448-3.5322 1.002-7.1601 1.3968-10.784 1.1754-1.956-0.2052-3.9189-0.3036-5.8842-0.2943-3.9117-0.4674-7.8045-1.125-11.675-1.9674-5.6436-1.6734-11.09-4.1919-16.22-7.4943-4.6851-3.7383-9.5484-7.1343-14.565-10.179-0.1464-0.0705-0.2661-0.2028-0.342-0.3693-0.0588-0.1287-0.0564-0.2895 0.0069-0.417 0.0831-0.1314 0.2004-0.2274 0.3351-0.2649 0.2076-0.0738 0.4242-0.1149 0.6423-0.1242 3.6375 0.3891 7.2387 1.1823 10.756 2.3718 4.3407 0.6786 8.6967 1.1673 13.066 1.4682 2.9097-0.2577 5.7633-1.1214 8.4327-2.5545 0.3903-0.0972 0.7467-0.3387 1.0173-0.6915 0.171-0.2238 0.2202-0.5448 0.1278-0.8274-0.0927-0.2823-0.3129-0.4758-0.5613-0.4968l-0.2721 0.0456c-0.3633 0.102-0.7323 0.1899-1.1025 0.258-5.2875 0.3996-10.6-0.231-15.723-1.8669-4.0029-1.4085-8.0613-2.5791-12.16-3.504-4.6557-1.7472-9.5367-2.4513-14.4-2.073-3.2145-0.0246-6.4113 0.6282-9.4428 1.9314-0.3129 0.0984-0.5976 0.2952-0.8298 0.5694-0.7815 1.1673-1.4823 2.4096-2.0952 3.7161-2.808 4.6899-6.2226 8.8044-10.117 12.172-0.279 0.2343-0.6177 0.3447-0.9573 0.3084-0.2754-0.0951-0.51-0.3153-0.6588-0.6129-0.8202-2.3697-1.1646-4.9419-1.0008-7.5024 0.0072-3.8472 1.5528-7.4532 4.1475-9.675 3.4404-3.1347 7.6557-4.7661 11.962-4.6314 3.348 0.0363 6.6831-0.519 9.8976-1.65 2.1537-0.402 4.1412-1.6383 5.6649-3.5214 0.2238-0.2508 0.3807-0.579 0.4464-0.9411 0.0516-0.2625-0.0738-0.5283-0.2883-0.6069-0.1851-0.0282-0.3762 0.0234-0.5343 0.1464-0.5613 0.3903-1.1262 0.7758-1.6923 1.1568-2.4198 1.2258-5.0484 1.7142-7.6605 1.425-2.0976-0.2604-4.1931-0.5112-6.2895-0.7512-3.1419-0.6213-6.3504-0.5661-9.4758 0.1641-1.8456 1.1355-3.75 2.1222-5.7024 2.9541-0.2952 0.0927-0.6081 0.0363-0.8694-0.1536-1.6923-1.6335-3.3891-3.2613-5.0907-4.8759-5.1903-3.7536-9.2919-9.3588-11.74-16.049-0.7698-2.5323-1.6512-5.0121-2.6424-7.4283-0.1992-0.4068-0.3411-0.8508-0.4173-1.3125-0.7101-3.5601-0.9561-7.2318-0.7299-10.883 0.0315-0.5754 0.2001-1.1295 0.4839-1.5936 1.2738-1.6149 2.4972-3.2847 3.669-5.0097 0.6564-0.6258 1.1064-1.5165 1.2717-2.508 0.123-0.4476 0.0222-0.9408-0.2532-1.2726-1.1673-1.3254-2.5302-2.3766-4.0137-3.0996-0.4185-0.2343-0.7431-0.6621-0.8988-1.1871-0.2097-1.0782-0.1899-2.2032 0.0537-3.273 1.4604-4.6536 3.1782-9.1827 5.1471-13.556 0.2319-0.7569 0.6903-1.3815 1.2855-1.7472 0.4932-0.1206 0.9915 0.1641 1.2282 0.7032 0.948 1.8306 2.0859 3.5097 3.3867 4.9932 2.8218 3.8487 6.6891 6.3504 10.903 7.0455 1.2729 0.3351 2.5197 0.7863 3.7362 1.3476 0.2259 0.1161 0.3783 0.3819 0.3879 0.6798 0.0093 0.3-0.1245 0.5787-0.3447 0.7182-0.7548 0.4524-1.5798 0.7125-2.4246 0.7653-3.7815 0.0726-7.5363-0.8319-11.007-2.6565-0.2988-0.1455-0.6375-0.1125-0.9129 0.0888-0.3375 0.285-0.6129 0.6669-0.7992 1.11-0.4983 1.8174-1.0617 3.6069-1.6863 5.3637-1.6875 6.5154-2.256 13.38-1.6725 20.17 0.1407 4.6053 1.2105 9.0996 3.1149 13.09 2.4318 2.9706 5.1201 5.6154 8.0205 7.8879 2.148 1.4976 3.8109 3.8343 4.7109 6.6291 0.1053 0.3471 0.2496 0.6738 0.4275 0.9738 0.135 0.2052 0.381 0.2391 0.552 0.0798 0.1266-0.1371 0.2145-0.3198 0.2484-0.5226 0.1371-0.8379 0.2181-1.6863 0.2475-2.5383-0.5298-4.4589-2.3862-8.5314-5.2197-11.453-2.3274-2.3274-4.1436-5.3121-5.2911-8.6895-2.6388-7.8525-2.4291-16.685 0.5766-24.342 0.1338-0.5568 0.4266-1.0371 0.8298-1.3584 0.2343-0.177 0.5298-0.198 0.7815-0.0573 2.0991 1.3242 4.3314 2.3145 6.6375 2.9427 0.1395 0.0351 0.2814 0.0492 0.4233 0.0432 0.3117-0.0141 0.6222-0.048 0.9327-0.1032 0.6363-0.1956 1.3032-0.2085 1.9431-0.0363 0.2271 0.0798 0.3876 0.3258 0.4005 0.6105 0 0.2334-0.0375 0.4665-0.1101 0.681-0.7053 2.8992-2.1 5.4798-4.0137 7.4202-0.3561 0.2673-0.6516 0.6399-0.8601 1.0842-0.1335 0.2577-0.0702 0.6 0.1419 0.7638l0.2403 0.1137c0.1827 0.0657 0.3702 0.1008 0.5613 0.1068 2.9565-0.5859 5.6274-2.4798 7.494-5.3145 3.5157-5.5746 4.7835-12.765 3.4476-19.589l-0.1512-0.546c-0.0492-0.3693-0.0198-0.7476 0.0858-1.0992 0.6621-1.5447 1.4718-2.9919 2.4093-4.3137l0.2883-1.1028c0.2637-1.2891 0.6012-2.5548 1.0077-3.7887 0.5004-2.9049 0.3984-5.9145-0.2952-8.7621-0.5145-2.8665-1.3959-5.6178-2.6169-8.1528-2.454-4.3851-5.7174-8.0214-9.5307-10.623-3.6846-1.9545-7.4298-3.7395-11.225-5.3535-1.2846-1.263-2.4177-2.742-3.3576-4.389-0.2202-0.276-0.5226-0.429-0.8355-0.426-2.4048 0.111-4.8012-0.363-7.05-1.392-1.6044-1.308-3.0327-2.907-4.2339-4.74-0.2262-0.279-0.5343-0.432-0.8568-0.426-1.9311 0.249-3.8823 0.03-5.7396-0.645-2.2782-1.212-4.2774-3.078-5.8254-5.436-0.0975-0.162-0.2241-0.297-0.3681-0.393-0.2181-0.15-0.4794-0.174-0.7137-0.063-0.5544 0.258-1.1073 0.513-1.6641 0.762-1.9335 0.318-3.894 0.342-5.8335 0.069-1.9548-0.675-3.8298-1.659-5.5734-2.925-0.1536-0.087-0.3246-0.111-0.4887-0.066-0.0576 0.015-0.1089 0.057-0.1407 0.12-0.0351 0.06-0.0468 0.135-0.0351 0.21 0.0375 0.21 0.1278 0.402 0.2589 0.549 2.0238 2.19 4.1145 4.287 6.2649 6.294 1.9044 1.011 3.9282 1.665 5.9964 1.938 0.8661 0.081 1.6701 0.576 2.2338 1.377 2.3952 3.555 6.0012 5.592 9.792 5.529 0.4395-0.039 0.8742 0.138 1.2072 0.489 1.1766 1.569 2.4771 2.994 3.8859 4.251 1.9968 1.56 4.3722 2.247 6.7359 1.944 0.4665-0.039 0.9303 0.138 1.2936 0.495 0.6258 0.7065 1.2435 1.4259 1.8483 2.1585 1.35 1.4004 2.8791 2.5266 4.5267 3.3351 3.1641 1.092 6.1746 2.754 8.931 4.9266 0.5976 0.4323 1.1298 0.9867 1.569 1.6383 1.0161 2.1408 1.8483 4.4016 2.4858 6.7452 1.5279 4.0395 1.2621 8.7411-0.7032 12.494-0.1419 0.3834-0.3585 0.7185-0.6294 0.981-1.7871 1.1379-3.8016 1.6569-5.8161 1.4952-2.4408-0.1992-4.7847-1.242-6.7521-3.0033-2.5596-1.9185-4.7274-4.5117-6.3435-7.5846-0.9573-1.6605-1.7016-3.4863-2.2113-5.415-0.1347-0.825-0.3936-1.6113-0.7593-2.325-0.1371-0.2217-0.3693-0.3246-0.5919-0.2649-0.3024 0.1113-0.5778 0.3141-0.798 0.5907-2.6073 4.2888-4.7556 8.9589-6.3915 13.9-0.0222 0.0867-0.0363 0.1779-0.0432 0.2682-0.0294 0.4581-0.0492 0.9165-0.0645 1.377l0.0129 0.5286-0.3645 1.1331c-1.4448 3.8625-2.5944 7.8786-3.4323 11.995-0.3492 2.3028-0.5955 4.6254-0.7395 6.96 0.0117 0.2553 0.0807 0.5016 0.2004 0.7158 0.2682 0.3483 0.5811 0.6459 0.9246 0.8838 1.5819 0.819 2.9403 2.1654 3.9117 3.8859 0.1827 0.3702 0.1665 0.8379-0.0411 1.1895-0.9843 1.3392-2.0661 2.5686-3.2331 3.6714-0.3342 0.2859-0.5298 0.7569-0.5169 1.2528-0.0081 1.071 0.0117 2.1444 0.0552 3.2154 0.5274 3.1125 1.1694 6.1947 1.9242 9.237 1.0932 9.1509 4.8024 17.55 10.481 23.738 1.7988 1.4964 3.5697 3.042 5.3097 4.6335 1.56 1.4307 3.0201 3.0165 4.3653 4.7391 0.3246 0.4206 0.4347 1.017 0.2859 1.5654-0.9081 2.4774-1.4871 5.1129-1.7166 7.8108-0.2415 4.6968 0.6129 9.3831 2.4714 13.517 0.2823 0.6726 0.1806 1.4859-0.252 2.0298-6.2109 5.0133-13.413 7.9407-20.866 8.4819-2.7642 0.0399-5.5275 0.0609-8.2908 0.0669-0.2076-0.0198-0.4101 0.0702-0.5592 0.2436-0.1464 0.1746-0.2271 0.4173-0.2178 0.6693 0.0423 0.2799 0.1686 0.5367 0.3597 0.7113 2.556 2.25 5.3193 4.1367 8.2347 5.6169 3.027 2.2581 6.1842 4.2492 9.4455 5.9589 3.1758 1.2798 6.3303 2.6214 9.4674 4.0323 4.8294 2.0625 9.7923 3.627 14.842 4.6734 0.1827 0.0354 0.3702 0.0354 0.5544 0.0024 0.273-0.0492 0.5412-0.1311 0.8025-0.246 3.9939-1.2258 7.9032-2.8395 11.683-4.8294 4.4754-1.9524 8.6859-4.692 12.503-8.127 0.3339-0.2799 0.5484-0.7254 0.5859-1.2162 0.0069-0.1008 0-0.2028-0.0222-0.3012-0.0153-0.0597-0.0423-0.1161-0.081-0.1581-0.144-0.1185-0.3177-0.1725-0.4911-0.1491-0.5637 0.0786-1.125 0.1806-1.6839 0.3129-3.9702 1.5117-8.0319 2.6532-12.146 3.4125-3.5367 1.1463-7.2528 1.2108-10.815 0.1863l-0.456-0.0738-0.8847-0.6c-2.5464-1.9359-3.5424-5.8299-2.3484-9.1698 0.7077-2.5758 2.1222-4.7823 4.0089-6.2508 2.5959-3.6012 6.1326-6.0177 10.02-6.8532 2.9367-1.0488 6.0528-1.1274 9.021-0.2262 5.481 0.7149 10.198 5.0028 12.298 11.17 1.1613 5.3157 1.4625 10.856 0.8814 16.308-0.108 2.6076-0.5697 5.1762-1.3677 7.602-0.1512 0.3915-0.198 0.8274-0.129 1.2504 0.027 0.1452 0.1068 0.2682 0.2193 0.3306 0.1266 0.0621 0.2661 0.0738 0.3984 0.0351 0.4734-0.1734 0.8814-0.5415 1.152-1.0407 2.9589-7.4004 7.4589-13.742 13.059-18.395 0.3294-0.3153 0.6903-0.5814 1.0746-0.7887 0.1314-0.0822 0.2871-0.0738 0.4149 0.0198 0.1101 0.1161 0.177 0.2766 0.1923 0.4512 0.0315 0.2682 0.0267 0.5427-0.0117 0.8085-0.8496 4.4439-1.2693 8.9931-1.2552 13.555 0.0738 4.6008 0.7827 9.1569 2.1 13.473 0.054 0.3423 0.2016 0.6492 0.4218 0.8718 0.0468 0.0459 0.1056 0.0705 0.1665 0.0681 0.0468-0.0012 0.0903-0.0306 0.1149-0.081l0.1287-0.5238c0.2979-1.9125 0.7125-3.7956 1.2399-5.6319 0.4125-2.7447 1.3266-5.3427 2.6742-7.6044 1.1346-3.2919 3.4326-5.7936 6.258-6.8133 0.4476-0.1593 0.9291-0.1242 1.3593 0.1008 2.1363 1.5693 3.5811 4.2153 3.9375 7.2093 0.3432 3.4584 0.1794 6.9621-0.4887 10.351-0.4512 4.5588-1.9185 8.8806-4.2423 12.51-1.6698 3.7455-4.2267 6.8052-7.3392 8.787-1.1826 1.4646-2.7459 2.3859-4.4286 2.6049-0.3891 0.0516-0.7629 0.2085-1.0959 0.4572-0.1746 0.1383-0.267 0.3831-0.24 0.6351 0.0291 0.2484 0.1734 0.4569 0.3714 0.5331 3.219 1.1427 6.6024 1.4826 9.9351 0.9915 2.6109-0.102 5.1951-0.702 7.6536-1.7778 4.677-1.7847 8.8758-5.0427 12.17-9.4347 2.7177-3.8718 4.7955-8.3355 6.1242-13.152 0.2649-0.7734 0.2145-1.6488-0.1335-2.3706-0.054-0.1044-0.1407-0.1806-0.2427-0.2064-0.1134-0.0258-0.2307-0.0012-0.3303 0.0693-0.1956 0.1638-0.3738 0.3537-0.5331 0.5658-0.7806 1.2234-1.6596 2.3451-2.6262 3.3552-0.6225 0.6303-1.4451 0.8964-2.2431 0.7254-0.7992-0.1689-1.4976-0.7572-1.9053-1.6068-0.5052-3.1617-0.0318-6.4383 1.3311-9.2061 0.8661-2.3028 2.4819-4.0677 4.4625-4.8762 1.9827-0.8073 4.1496-0.5883 5.994 0.6105 0.9576 1.0794 1.7766 2.3274 2.4306 3.6984 1.5141 5.073 3.0117 10.156 4.4907 15.245 0.8766 4.3674 2.8416 8.3025 5.6319 11.271 0.252 0.3036 0.5697 0.5133 0.9153 0.606 0.1827 0.0561 0.3762-0.0024 0.5169-0.1512 0.1416-0.15 0.2133-0.3738 0.192-0.6-0.0279-0.2802-0.0666-0.5604-0.117-0.8334-1.7592-7.0605-1.0899-14.682 1.8597-21.135 0.7278-2.6367 2.5581-4.6077 4.8093-5.1714 2.2488-0.5661 4.5774 0.3585 6.1125 2.4291 0.2556 0.4008 0.5331 0.7818 0.8343 1.1358 0.3387 0.3771 0.8556 0.3879 1.2072 0.0279 1.8174-3.0291 5.0613-4.2597 7.9839-3.0315 1.1121 0.6609 2.0577 1.6698 2.7375 2.9226 1.3206 2.5581 2.3754 5.3073 3.1371 8.1831 0.6081 4.8612 0.423 9.8169-0.5424 14.59-0.1302 0.3738-0.237 0.7584-0.3177 1.1508-0.048 0.2835 0.0315 0.5766 0.2109 0.7689 0.1782 0.1932 0.4302 0.2541 0.6564 0.1629 1.7763-1.2915 3.2718-3.0762 4.3629-5.2068 1.6662-3.8424 3.0666-7.8456 4.1859-11.971 0.6879-2.9838 1.5795-5.8935 2.6658-8.6976 0.4794-2.6838 2.2689-4.7346 4.5072-5.175 2.0214-0.51 4.1286-0.0237 5.8545 1.3488 1.725 1.371 2.9286 3.5226 3.3411 5.9718 0.6564 1.8915 0.9 3.9552 0.7089 5.9931-0.0432 0.8976-0.4242 1.7214-1.0371 2.2299-0.6129 0.5121-1.3839 0.648-2.0928 0.375-1.6935-0.8508-3.0633-2.4411-3.8343-4.4553-0.1056-0.2229-0.2568-0.4068-0.4407-0.5358-0.0705-0.0513-0.1524-0.0771-0.2331-0.075-0.0774 0.0024-0.1512 0.0318-0.2133 0.0846-0.3141 0.3327-0.4782 0.8214-0.4443 1.3242 0.1278 1.29 0.3867 2.5569 0.7722 3.7686 2.1855 7.7637 6.6189 14.31 12.485 18.424 0.4359 0.2871 0.888 0.5403 1.35 0.7605zm-37.362-42.978c3.204 0.0948 6.381 0.7254 9.4395 1.8726 3.3552 0.6399 6.7887 0.1347 9.9165-1.4649 1.9911-0.3927 3.8835-1.3311 5.5311-2.7411 0.1935-0.198 0.2943-0.4956 0.2721-0.8004-0.0669-0.3012-0.2742-0.5262-0.5322-0.5763-0.5541-0.0987-1.1097-0.1875-1.6674-0.2661-3.777-0.5496-7.5318-1.2927-11.256-2.2314-2.1444-0.3012-4.2492-0.9186-6.2661-1.8408-0.3513-0.1758-0.7392-0.2229-1.113-0.1326-0.3012 0.1476-0.5709 0.3714-0.7935 0.6576-2.6778 3.7311-6.6516 5.7246-10.727 5.3787-3.5472 0.4149-7.1238-0.3456-10.343-2.1972-1.4496-1.1484-2.8044-2.4645-4.0419-3.9339-0.3996-0.3447-0.906-0.4488-1.377-0.2826l-0.4536 0.2298c-0.7323 0.2976-1.4835 0.5202-2.2464 0.6681-2.2488 0.45-4.4871 0.9666-6.7161 1.5525-3.273 0.3645-6.5412 0.7842-9.8049 1.2657-0.1923 0.0573-0.3714 0.1746-0.5145 0.3411-0.1782 0.1956-0.2202 0.5157-0.1008 0.7662l0.1758 0.2661c0.3669 0.4713 0.7839 0.8838 1.2363 1.2282 1.8693 1.0311 3.8226 1.8141 5.8314 2.3355 3.1593 1.452 6.6045 1.7214 9.8928 0.7782 3.5214-1.1826 7.2165-1.3935 10.815-0.6141 2.0484 1.4214 4.4004 2.0706 6.7569 1.869 1.983-0.4428 3.9318-1.0875 5.8266-1.9254 0.7443-0.1698 1.5036-0.2388 2.2593-0.2025"/>
		<path d="m193.2 406.6c1.9827 2.5898 4.5141 4.4731 7.3173 5.4492 2.0484 1.4027 4.4202 1.9488 6.7488 1.5469 3.0585-0.8156 5.9601-2.3344 8.5452-4.4695 2.8149-2.2043 4.9536-5.4644 6.0879-9.2813 1.8645-6.8777 6.0141-12.505 11.45-15.528 2.1855-0.7829 4.3065-1.8047 6.3387-3.0515 1.9053-0.3294 3.6528-1.4718 4.9254-3.2181 1.7964-2.8218 3.1032-6.0492 3.8448-9.4968-0.0012-0.3762-0.15-0.7323-0.4008-0.9564-0.2541-0.2589-0.5133-0.5109-0.777-0.7569-4.221-3.7581-7.8093-8.4609-10.57-13.855-3.423-4.125-4.7661-10.147-3.5226-15.796 1.8444-3.6528 1.9137-8.2278 0.1758-11.959l-0.2601-0.5205-0.156-1.098c-0.2367-2.3577-0.3024-4.7343-0.198-7.1037-0.0996-2.8479 0.4593-5.6721 1.6137-8.1564 0.7371-3.3762 1.0428-6.8718 0.9069-10.36 0.0951-2.7411-0.2355-5.4786-0.975-8.073-0.1311-0.4653-0.4674-0.7992-0.8706-0.8613-0.4008-0.0621-0.7968 0.1557-1.0206 0.5637-0.735 2.2335-1.4532 4.4754-2.1564 6.7242-0.2049 0.4641-0.3492 0.9654-0.4299 1.4859-0.0294 0.2274 0.0057 0.4557 0.0984 0.6573 0.2847 0.7254 0.5472 1.4637 0.7863 2.2149 0.6162 2.7117 0.4593 5.5935-0.45 8.181-0.7806 2.2206-1.629 4.4049-2.5359 6.5529-0.5112 2.9217-0.2613 5.9637 0.717 8.7048 0.9726 2.5428 1.2306 5.4024 0.7326 8.1411-1.0758 2.8065-1.6701 5.8464-1.7475 8.9388-0.0279 0.3741-0.2754 0.6705-0.5835 0.7008-0.2661-0.021-0.5085-0.1815-0.6669-0.4392-2.319-3.8322-4.8855-7.4439-7.6698-10.794-1.2585-1.8996-2.7807-3.5226-4.5-4.7895-0.1806-0.1218-0.4044-0.1137-0.5811 0.0201-0.1758 0.1347-0.2754 0.3762-0.2637 0.627 0.021 0.2238 0.0633 0.4416 0.1266 0.6513 1.4811 5.6979 2.1702 11.651 2.0412 17.62 0.177 1.8186-0.0456 3.6645-0.6504 5.3448-0.0432 0.0786-0.1125 0.1326-0.1899 0.1455-0.0819 0.0138-0.1686-0.0108-0.2367-0.0705-0.2775-0.2847-0.4887-0.6549-0.6105-1.0722-0.3387-2.0544-0.669-4.1109-0.9843-6.1689-0.0528-0.567-0.4044-1.0263-0.8661-1.1355-0.3174 0.0105-0.6174 0.1653-0.8424 0.4338-1.4649 2.1408-2.9883 4.2186-4.5693 6.2331-0.2307 0.2391-0.5403 0.3351-0.8355 0.2577-0.3234-0.1722-0.5964-0.4617-0.7794-0.8262-0.7803-1.9029-1.7766-3.6642-2.9589-5.2347-0.2073-0.3891-0.4803-0.7182-0.8028-0.9678-0.198-0.1161-0.4266-0.1359-0.6351-0.0471-0.2226 0.0774-0.3843 0.3108-0.4113 0.5871-0.2673 1.7709-0.6339 3.5169-1.0956 5.2254-0.1197 0.8568-0.402 1.6653-0.8298 2.3604-0.054 0.0678-0.1242 0.1065-0.1992 0.1134-0.0798 0.0072-0.156-0.015-0.2202-0.0666-0.2181-0.2262-0.36-0.5379-0.4008-0.8814-0.2496-3.0327-0.3024-6.0855-0.1584-9.1311 0.3879-4.4262 1.1766-8.7879 2.3556-13.006 0.0762-0.2649 0.1065-0.5436 0.096-0.8226-0.0024-0.2871-0.1464-0.5436-0.3645-0.6561-0.2718-0.075-0.5589-0.0108-0.7887 0.1839-4.4847 4.5528-8.5767 9.6444-12.213 15.194-0.1116 0.1641-0.252 0.2907-0.4125 0.3738-0.081 0.0411-0.1737 0.0294-0.2451-0.0339-0.2109-0.2097-0.3468-0.5133-0.3786-0.8415-0.0033-2.9307-0.4521-5.8383-1.3254-8.5758-0.4347-2.367-0.2553-4.8408 0.5121-7.0851 1.2282-3.825 1.4016-8.0295 0.4911-11.985-2.4315-4.4976-2.8206-10.178-1.0347-15.1 0.1359-0.3282 0.1419-0.7101 0.0186-1.0452-0.813-2.5923-1.7517-5.1294-2.8089-7.5903-0.1053-0.3306-0.2742-0.6222-0.492-0.8568-0.2205-0.2952-0.5931-0.3291-0.8496-0.0795-0.1395 0.1581-0.2616 0.3363-0.3645 0.5307-0.9717 2.835-1.5609 5.8371-1.7439 8.8959-0.2157 3.8706 0.1536 7.7601 1.0911 11.471 1.3125 3.3879 1.8081 7.1544 1.4331 10.868-0.7932 2.6916-1.5141 5.4126-2.1585 8.1621-0.2496 2.7549 0.0048 5.5404 0.75 8.1621 0.8367 1.8279 1.1169 3.9549 0.7932 6.0057-1.3452 4.6992-3.3045 9.1056-5.8005 13.056-2.6193 3.9117-5.6625 7.3779-9.0504 10.303l-0.4395 0.3375c-0.3645 0.3213-0.5919 0.8274-0.6129 1.3713 0.1125 1.9218 0.6258 3.7791 1.494 5.394 0.7839 2.8101 2.3778 5.1843 4.4895 6.6927 1.902 0.4359 3.7254 1.2783 5.3823 2.4855 4.7625 1.8927 8.9052 5.5629 11.835 10.485 1.467 3.7125 2.9226 7.4308 4.3686 11.154 0.5355 1.2304 1.2576 2.3285 2.1282 3.2355zm5.8347-42.198c-0.3069 1.3653 0.0669 2.8206 0.9564 3.7371 0.8916 0.9165 2.1375 1.1274 3.2025 0.5436 1.2342-0.8508 2.7012-1.0521 4.0641-0.5613 0.4467 0.2226 0.8931 0.4407 1.3455 0.6564 0.8343 0.5766 1.8561 0.5883 2.7021 0.0339 0.8451-0.5532 1.3923-1.5972 1.4499-2.7561-0.2943-3.5451-1.0254-7.0173-2.1717-10.298-0.15-0.6996-0.4428-1.3395-0.8532-1.8633-0.171-0.1827-0.417-0.2226-0.621-0.0996-0.1581 0.1125-0.2916 0.2661-0.3936 0.4512-0.756 1.458-1.3782 3.0105-1.8528 4.6347-0.2847 0.7197-0.9879 1.0467-1.5996 0.7395l-0.177-0.1758c-0.1137-0.1827-0.1923-0.396-0.2262-0.621-0.2016-1.4448-0.5964-2.8419-1.1694-4.1355-0.1371-0.4056-0.3717-0.7524-0.6738-0.9948-0.1806-0.1443-0.4173-0.1479-0.5991-0.0024-0.1593 0.1416-0.2928 0.3198-0.3924 0.5283-0.8637 2.4576-1.6617 4.95-2.3931 7.4733-0.315 0.8601-0.5166 1.7754-0.5976 2.7093zm-14.832-9.2451c-1.0806 3.8637-1.002 8.0637 0.2214 11.868 0.7944 1.5375 2.0601 2.6331 3.519 3.0468 0.6645 0.4641 1.404 0.7488 2.1657 0.8367 0.4842-0.0912 0.9516-0.273 1.3887-0.5367 0.9786-0.375 1.8294-1.1367 2.4129-2.1609 0.5403-2.1246 0.5556-4.3944 0.0456-6.5286-1.8408-6.0807-2.4678-12.6-1.8327-19.03 0.1068-0.696 0.096-1.4097-0.0303-2.1012l-0.0717-0.2262c-0.0678-0.1185-0.1782-0.1935-0.2988-0.2004-0.1698 0.0024-0.3315 0.0798-0.4581 0.2157-3.3399 4.1472-5.7693 9.2412-7.0617 14.817zm34.583 3.2721c-0.8811 3.1395-1.1565 6.4827-0.8052 9.7722 0.0975 0.5661 0.3249 1.0887 0.6588 1.5036l0.4206 0.315c0.4137 0.3153 0.8415 0.606 1.281 0.8721 0.6666 0.4686 1.4367 0.6726 2.2041 0.5904 0.3177-0.1017 0.6201-0.2658 0.8943-0.4863 1.6125-0.5787 3.048-1.7154 4.1331-3.273 0.6222-2.1399 1.0956-4.3371 1.4145-6.5706-0.3996-2.3754-0.8556-4.7355-1.3734-7.0794-1.2306-4.9044-3.3984-9.3879-6.327-13.091-0.1371-0.1416-0.3117-0.225-0.4911-0.2343-0.2472 0.0294-0.4488 0.2532-0.4944 0.5472-0.054 0.2802-0.0774 0.5721-0.0645 0.8592 0.5391 4.1508 0.396 8.3904-0.4194 12.478-0.3669 1.2552-0.7104 2.5221-1.0314 3.7971zm-16.925 38.829c1.4076-0.8285 2.9589-1.2387 4.5246-1.1977 1.4742 0.6422 2.973 1.1977 4.4931 1.6629 3.9561-0.1031 7.5363-2.8664 9.2799-7.1625 2.16-5.1024 5.6967-9.1537 10.022-11.49 2.9049-0.9444 5.7339-2.2017 8.4537-3.7593 0.5097-0.3282 0.8169-0.9843 0.7851-1.6803-0.4581-2.7951-1.4964-5.4012-3.015-7.5786-0.4278-0.7923-0.9975-1.4625-1.6689-1.9524-0.2379-0.1347-0.5226-0.0948-0.7299 0.102-0.5568 0.477-0.9552 1.1811-1.1181 1.9803-0.0165 0.5169-0.1056 1.0233-0.2637 1.5012-1.8738 3.4431-4.4016 6.2919-7.3734 8.31-3.0939 1.5807-6.6444 1.1073-9.3819-1.2528-0.3435-0.3459-0.7245-0.6351-1.1286-0.8625-0.2826-0.0891-0.5814-0.0318-0.8262 0.1545-2.2266 1.8516-5.0964 2.1354-7.5411 0.7512l-0.4476-0.2391c-0.2964-0.0936-0.6105-0.0702-0.894 0.0705-1.3584 0.9528-2.9826 1.1742-4.4838 0.6129-1.0089-0.4395-1.977-1.0092-2.8839-1.7004-0.3081-0.2121-0.696-0.1653-0.9645 0.1206-2.4927 2.3193-5.6988 3.204-8.7762 2.4201-3.948-2.283-7.227-5.9709-9.4008-10.568-0.2589-0.8331-0.6645-1.5903-1.1883-2.2149-0.1803-0.2085-0.4359-0.2871-0.6774-0.2085-0.3492 0.1887-0.6549 0.4758-0.8904 0.8415-0.5088 1.0686-1.008 2.1444-1.4967 3.2283-1.0416 1.308-1.644 3.0423-1.6863 4.8588-0.1287 0.6585 0.0036 1.3533 0.3621 1.875 1.4052 1.2585 2.9754 2.2194 4.6467 2.8452 2.9061 0.5835 5.6436 2.052 7.9521 4.2681 2.7939 3.5401 5.2221 7.4764 7.2375 11.724 0.5415 0.9515 1.185 1.814 1.9137 2.5629 0.4512 0.3 0.9036 0.6012 1.3572 0.9012 1.7355 1.2973 3.8331 1.6852 5.8089 1.0758"/>
	</g>
</svg>