<svg width="11" height="18" viewBox="0 0 11 18" fill='#d63666' xmlns="http://www.w3.org/2000/svg">
<path d="M4.53397 1.35263C3.01786 2.86874 2.02367 5.94324 2.44581 9.09764L1.31331 10.2301C0.494973 11.0485 0.636748 12.1283 0.959754 13.0972L1.39201 14.3941L3.43463 12.3515H5.55595H7.67727L9.71989 14.3941L10.1522 13.0973C10.4751 12.1283 10.6169 11.0485 9.79859 10.2301L8.66609 9.09764C9.08823 5.94324 8.09404 2.86874 6.57793 1.35263L5.55595 0.330648L4.53397 1.35263ZM4.84884 5.2804C5.23938 4.88986 5.87252 4.88986 6.26306 5.2804C6.65359 5.67093 6.65359 6.30407 6.26306 6.69461C5.87252 7.08514 5.23938 7.08514 4.84884 6.69461C4.45831 6.30407 4.45831 5.67093 4.84884 5.2804ZM4.49529 14.1192L4.49529 14.8263C4.49529 15.8477 5.55595 17.3012 5.55595 17.3012C5.55595 17.3012 6.61661 15.9605 6.61661 14.8263V14.1192H4.49529Z" fill="black"/>
</svg>
